<svg xmlns="http://www.w3.org/2000/svg" id="google-icon" width="35.13" height="35.846" viewBox="0 0 35.13 35.846">
    <defs>
        <style>
            .cls-1{fill:#4285f4}.cls-2{fill:#34a853}.cls-3{fill:#fbbc05}.cls-4{fill:#eb4335}
        </style>
    </defs>
    <path id="Path_29" d="M147.756 110.425a15.36 15.36 0 0 0-.378-3.664H130.55v6.651h9.878a8.759 8.759 0 0 1-3.664 5.815l-.034.223 5.321 4.122.369.037a17.524 17.524 0 0 0 5.337-13.184" class="cls-1" data-name="Path 29" transform="translate(-112.627 -92.104)"/>
    <path id="Path_30" d="M29.937 170.749a17.083 17.083 0 0 0 11.869-4.341l-5.656-4.381a10.608 10.608 0 0 1-6.213 1.792 10.79 10.79 0 0 1-10.2-7.448l-.21.018L14 160.67l-.072.2a17.91 17.91 0 0 0 16.012 9.878" class="cls-2" data-name="Path 30" transform="translate(-12.013 -134.902)"/>
    <path id="Path_31" d="M7.727 82.99a11.034 11.034 0 0 1-.6-3.545 11.6 11.6 0 0 1 .58-3.545l-.01-.238-5.6-4.35-.183.087a17.886 17.886 0 0 0 0 16.091l5.815-4.5" class="cls-3" data-name="Path 31" transform="translate(0 -61.522)"/>
    <path id="Path_32" d="M29.937 6.93a9.934 9.934 0 0 1 6.93 2.67l5.058-4.94A17.22 17.22 0 0 0 29.937 0a17.91 17.91 0 0 0-16.012 9.878l5.8 4.5A10.834 10.834 0 0 1 29.937 6.93" class="cls-4" data-name="Path 32" transform="translate(-12.013)"/>
</svg>
