<svg xmlns="http://www.w3.org/2000/svg" width="20" height="16" viewBox="0 0 20 16">
    <path d="M18.5 16h-17A1.5 1.5 0 0 1 0 14.5v-13A1.5 1.5 0 0 1 1.5 0h17A1.5 1.5 0 0 1 20 1.5v13a1.5 1.5 0 0 1-1.5 1.5zM1.5 1a.5.5 0 0 0-.5.5v13a.5.5 0 0 0 .5.5h17a.5.5 0 0 0 .5-.5v-13a.5.5 0 0 0-.5-.5z" data-name="Path 115"/>
    <path d="M9.5 4h-6a.5.5 0 0 1 0-1h6a.5.5 0 0 1 0 1z" data-name="Path 116"/>
    <path d="M9.5 7h-6a.5.5 0 0 1 0-1h6a.5.5 0 0 1 0 1z" data-name="Path 117"/>
    <path d="M9.5 9h-6a.5.5 0 0 1 0-1h6a.5.5 0 0 1 0 1z" data-name="Path 118"/>
    <path d="M9.5 11h-6a.5.5 0 0 1 0-1h6a.5.5 0 0 1 0 1z" data-name="Path 119"/>
    <path d="M8.5 13h-5a.5.5 0 0 1 0-1h5a.5.5 0 0 1 0 1z" data-name="Path 120"/>
    <path d="M17.943 4.544l-.813-.591L16.819 3h-1.005L15 2.406 14.188 3h-1.005l-.311.956-.813.591.311.956-.311.956.813.591.128.403a.37.37 0 0 0 0 .047v5a.5.5 0 0 0 .854.354L15 11.708l1.146 1.146a.5.5 0 0 0 .545.108A.5.5 0 0 0 17 12.5v-5-.047l.132-.406.813-.591-.311-.956.311-.956zm-4.71.382l.488-.355.187-.571h.6L15 3.642l.488.358h.6l.187.574.488.355-.183.571.187.574-.488.355-.187.571h-.6L15 7.358 14.512 7h-.6l-.187-.574-.488-.355.183-.571-.187-.574zm2.121 5.72a.5.5 0 0 0-.707 0l-.647.646V8h.187l.813.591.814-.591H16v3.29l-.646-.646z" data-name="Path 121"/>
</svg>
