<svg xmlns="http://www.w3.org/2000/svg" width="15" height="19" viewBox="0 0 15 19">
    <path d="M12.5 17h-10a.5.5 0 0 1 0-1h10a.5.5 0 0 1 0 1z" data-name="Path 122"/>
    <path d="M14.5 2a.5.5 0 0 0-.5.5v15a.5.5 0 0 1-.5.5h-11a1.5 1.5 0 0 1 0-3h9a1.5 1.5 0 0 0 1.5-1.5v-12A1.5 1.5 0 0 0 11.5 0h-10A1.5 1.5 0 0 0 0 1.5v15A2.5 2.5 0 0 0 2.5 19h11a1.5 1.5 0 0 0 1.5-1.5v-15a.5.5 0 0 0-.5-.5zm-13-1h10a.5.5 0 0 1 .5.5v12a.5.5 0 0 1-.5.5h-9a2.491 2.491 0 0 0-1.5.5v-13a.5.5 0 0 1 .5-.5z" data-name="Path 123"/>
</svg>
