<svg xmlns="http://www.w3.org/2000/svg" width="22.156" height="12.999" viewBox="0 0 22.156 12.999">
    <defs>
        <style>
            .cls-1{fill:none;stroke:#2962ff;stroke-width:.5px}
        </style>
    </defs>
    <g id="noun_id_2830748" transform="translate(.249 .25)">
        <g id="Group_272" data-name="Group 272">
            <path id="Path_124" d="M33.18 115.9H14.351a1.415 1.415 0 0 0-1.413 1.413v9.673a1.415 1.415 0 0 0 1.413 1.413H33.18a1.415 1.415 0 0 0 1.413-1.413v-9.673a1.414 1.414 0 0 0-1.413-1.413zm1.057 11.086a1.059 1.059 0 0 1-1.057 1.058H14.351a1.059 1.059 0 0 1-1.057-1.058v-9.673a1.058 1.058 0 0 1 1.057-1.057H33.18a1.058 1.058 0 0 1 1.057 1.057v9.673z" class="cls-1" data-name="Path 124" transform="translate(-12.938 -115.898)"/>
            <path id="Path_125" d="M69.89 172.965h-3.814a1.807 1.807 0 0 0-1.805 1.805v3.814a1.807 1.807 0 0 0 1.805 1.8h3.814a1.807 1.807 0 0 0 1.805-1.8v-3.814a1.807 1.807 0 0 0-1.805-1.805zm1.45 5.62a1.451 1.451 0 0 1-1.45 1.449h-3.814a1.451 1.451 0 0 1-1.449-1.449v-3.815a1.451 1.451 0 0 1 1.449-1.45h3.814a1.451 1.451 0 0 1 1.45 1.45z" class="cls-1" data-name="Path 125" transform="translate(-61.989 -170.428)"/>
            <path id="Path_126" d="M284.488 191.127h-7.275a.178.178 0 0 0 0 .356h7.275a.178.178 0 0 0 0-.356z" class="cls-1" data-name="Path 126" transform="translate(-265.293 -187.782)"/>
            <path id="Path_127" d="M284.488 252.434h-7.275a.178.178 0 0 0 0 .356h7.275a.178.178 0 0 0 0-.356z" class="cls-1" data-name="Path 127" transform="translate(-265.293 -246.364)"/>
            <path id="Path_128" d="M284.488 313.811h-7.275a.178.178 0 0 0 0 .356h7.275a.178.178 0 0 0 0-.356z" class="cls-1" data-name="Path 128" transform="translate(-265.293 -305.012)"/>
        </g>
    </g>
</svg>
