<?xml version="1.0" encoding="utf-8"?>
<!-- Generator: Adobe Illustrator 23.0.1, SVG Export Plug-In . SVG Version: 6.00 Build 0)  -->
<svg version="1.1" id="Layer_1" xmlns="http://www.w3.org/2000/svg" xmlns:xlink="http://www.w3.org/1999/xlink" x="0px" y="0px"
	 viewBox="0 0 595.3 841.9" style="enable-background:new 0 0 595.3 841.9;" xml:space="preserve">
<style type="text/css">
	.st0{opacity:0.34;}
	.st1{opacity:0.94;}
	.st2{opacity:0.74;fill:#010101;enable-background:new    ;}
	.st3{opacity:0.74;fill:#ADAEAD;enable-background:new    ;}
	.st4{fill:#ADAEAD;fill-opacity:0;}
	.st5{fill-rule:evenodd;clip-rule:evenodd;fill:#766AB0;}
	.st6{fill-rule:evenodd;clip-rule:evenodd;fill:#F8AF84;}
	.st7{fill-rule:evenodd;clip-rule:evenodd;fill:#212121;}
	.st8{fill-rule:evenodd;clip-rule:evenodd;fill:#99765A;}
	.st9{opacity:0.4;fill-rule:evenodd;clip-rule:evenodd;fill:#010101;enable-background:new    ;}
	.st10{fill-rule:evenodd;clip-rule:evenodd;fill:#2A2357;}
	.st11{opacity:0.36;fill-rule:evenodd;clip-rule:evenodd;fill:#010101;enable-background:new    ;}
	.st12{fill:none;}
	.st13{fill-rule:evenodd;clip-rule:evenodd;fill:#EDF2FA;}
	.st14{fill:#2A2357;}
	.st15{fill:#2E3364;}
	.st16{fill:#6FC6A6;}
	.st17{opacity:0.31;}
	.st18{fill:#A1D8CF;}
	.st19{opacity:0.3;}
	.st20{fill-rule:evenodd;clip-rule:evenodd;fill:#2F3776;}
	.st21{fill-rule:evenodd;clip-rule:evenodd;fill:#ADAEAD;}
	.st22{fill-rule:evenodd;clip-rule:evenodd;fill:#FFFFFF;fill-opacity:0.2;}
	.st23{fill-rule:evenodd;clip-rule:evenodd;fill:#BA8364;}
	.st24{fill-rule:evenodd;clip-rule:evenodd;fill:#989898;}
	.st25{fill-rule:evenodd;clip-rule:evenodd;fill:#3D4386;}
	.st26{fill:none;stroke:#212121;stroke-miterlimit:10;}
	.st27{fill:#212121;}
	.st28{fill:#EDF2FA;}
	.st29{fill-rule:evenodd;clip-rule:evenodd;fill:#E6A07C;}
	.st30{fill-rule:evenodd;clip-rule:evenodd;fill:#FFD775;}
	.st31{opacity:0.29;fill-rule:evenodd;clip-rule:evenodd;fill:#383838;}
	.st32{fill-rule:evenodd;clip-rule:evenodd;fill:#273B8A;}
	.st33{opacity:0.2;fill-rule:evenodd;clip-rule:evenodd;}
	.st34{fill-rule:evenodd;clip-rule:evenodd;fill:#010101;}
	.st35{fill-rule:evenodd;clip-rule:evenodd;fill:#8688C2;}
	.st36{fill:#E19873;}
	.st37{fill:#FFFFFF;}
	.st38{opacity:0.56;fill-rule:evenodd;clip-rule:evenodd;fill:#010101;enable-background:new    ;}
</style>
<g class="st0">
	<g id="Path_484-2" class="st1">
		<path class="st2" d="M506.4,282.3c19.4,26.4,33.7,56.1,42.2,87.7c1.2,4.4,1.9,8.8,1.9,13.4c0.9,56-94.7,79.2-122.2,132.3
			c-32.3,62.3,8.8,156.5-65.3,176.5c-113.2,30.5-229-17.8-289.2-111.3c62.4,84.6,172.3,126.8,279.9,97.8
			c74.1-19.9,33-114.2,65.3-176.5c27.5-53.1,123.1-76.2,122.2-132.2c-0.1-4.5-0.8-9-2-13.3C532.2,330.3,521.1,305.2,506.4,282.3z"/>
		<path class="st3" d="M506.4,282.3c14.7,22.9,25.8,47.9,32.9,74.3c1.2,4.3,1.9,8.8,2,13.3c0.9,56-94.7,79.2-122.2,132.2
			c-32.3,62.3,8.8,156.5-65.3,176.5c-107.6,28.9-217.5-13.2-279.9-97.8c-19.4-26.3-33.7-56.1-42.2-87.7
			C-6.1,352.9,77,208.7,217.2,171C330.3,140.6,446.1,188.8,506.4,282.3z"/>
		<path class="st4" d="M291.7,280.8h1.4l0,0h0.1l0,0l0,0l0,0l0,0l0,0l0,0l0,0l0,0l0,0l0,0l0,0l0,0l0,0l0,0l0,0l0,0l0,0l0,0l0,0l0,0
			l0,0l0,0l0.2,0.1l0,0c1.3,1.3,2.6,2.7,3.6,4.2l-1.5,1.1c-1.5-2.1-3.3-3.9-5.4-5.5l1.1-1.4L291.7,280.8z M301.3,293.9
			c0.1,0.4,0.3,0.7,0.4,1.1l0,0l0,0l0,0l0,0l0,0l0,0l0,0l0,0l0,0l0,0l0,0l0,0l0,0l0,0l0,0l0,0l0,0l0,0l0,0l0,0l0,0l0,0l0,0l0,0l0,0
			l0,0l0,0l0,0l0,0l0,0l0,0l0,0l0,0l0,0l0,0l0,0l0,0l0,0l0,0l0,0h0.1l0,0l0,0l0,0h0l0,0l0,0l0,0l0,0l0,0l0,0l0,0l0,0l0,0l0,0l0,0
			l0,0l0,0l0,0l0,0l0,0l0,0l0,0l0,0l0,0l0,0l0,0l0,0l0,0l0,0l0,0l0,0l0,0l0,0l0,0l0,0l0,0l0,0l0,0l0,0l0,0l0,0l0,0l0,0l0,0l0,0l0,0
			l0,0l0,0l0,0l0,0l0,0l0,0l0,0l0,0l0,0l0,0l0,0l0,0l0,0l0,0l0,0l0,0l0,0l0,0l0,0l0,0l0,0l0,0v0l0,0l0,0l0,0v0.1l0,0l0,0l0,0l0,0
			l0,0c0.1,0.5,0.2,1,0.3,1.4l0,0l0,0l0,0l0,0l0,0v0.1l0,0v0.1l0,0l0,0l0,0l0,0l0,0l0,0l0,0v0l0,0l0,0l0,0l0,0l0,0l0,0l0,0l0,0l0,0
			l0,0l0,0l0,0l0,0l0,0l0,0l0,0l0,0l0,0l0,0l0,0l0,0l0,0l0,0l0,0l0,0l0,0l0,0l0,0l0,0l0,0l0,0l0,0l0,0l0,0l0,0l0,0l0,0l0,0l0,0l0,0
			l0,0l0,0l0,0l0,0l0,0l0,0l0,0l0,0l0,0l0,0l0,0l0,0l0,0l0,0l0,0l0,0l0,0l0,0l0,0l0,0l0,0l0,0l0,0l0,0l0,0l0,0l0,0l0,0l0,0l0,0l0,0
			l0,0l0,0l0,0l0,0l0,0l0,0l0,0l0,0v0l0,0c0,0.3,0.1,0.5,0.1,0.8l-1.8,0.1c-0.2-2.6-0.8-5.1-1.6-7.5L301.3,293.9z M302.6,310.1
			L302.6,310.1L302.6,310.1L302.6,310.1L302.6,310.1L302.6,310.1L302.6,310.1L302.6,310.1L302.6,310.1L302.6,310.1L302.6,310.1
			L302.6,310.1L302.6,310.1L302.6,310.1L302.6,310.1L302.6,310.1L302.6,310.1L302.6,310.1L302.6,310.1L302.6,310.1L302.6,310.1
			L302.6,310.1L302.6,310.1L302.6,310.1L302.6,310.1L302.6,310.1L302.6,310.1L302.6,310.1L302.6,310.1L302.6,310.1L302.6,310.1
			L302.6,310.1L302.6,310.1L302.6,310.1L302.6,310.1L302.6,310.1L302.6,310.1L302.6,310.1L302.6,310.1L302.6,310.1L302.6,310.1
			L302.6,310.1L302.6,310.1L302.6,310.1L302.6,310.1L302.6,310.1L302.6,310.1L302.6,310.1L302.6,310.1L302.6,310.1L302.6,310.1
			L302.6,310.1L302.6,310.1L302.6,310.1L302.6,310.1L302.6,310.1L302.6,310.1L302.6,310.1L302.6,310.1L302.6,310.1L302.6,310.1
			L302.6,310.1L302.6,310.1L302.6,310.1L302.6,310.1L302.6,310.1L302.6,310.1L302.6,310.1L302.6,310.1L302.6,310.1L302.6,310.1
			L302.6,310.1L302.6,310.1L302.6,310.1L302.6,310.1L302.6,310.1L302.6,310.1L302.6,310.1L302.6,310.1L302.6,310.1L302.6,310.1
			L302.6,310.1L302.6,310.1L302.6,310.1L302.6,310.1L302.6,310.1L302.6,310.1L302.6,310.1L302.6,310.1L302.6,310.1L302.6,310.1
			L302.6,310.1L302.6,310.1L302.6,310.1L302.6,310.1L302.6,310.1L302.6,310.1L302.6,310.1L302.6,310.1L302.6,310.1L302.6,310.1
			L302.6,310.1L302.6,310.1L302.6,310.1L302.6,310.1L302.6,310.1L302.6,310.1L302.6,310.1L302.6,310.1L302.6,310.1L302.6,310.1
			L302.6,310.1L302.6,310.1L302.6,310.1L302.6,310.1L302.6,310.1L302.6,310.1L302.6,310.1L302.6,310.1L302.6,310.1L302.6,310.1
			L302.6,310.1L302.6,310.1L302.6,310.1L302.6,310.1L302.6,310.1L302.6,310.1L302.6,310.1L302.6,310.1L302.6,310.1L302.6,310.1
			L302.6,310.1L302.6,310.1L302.6,310.1L302.6,310.1L302.6,310.1L302.6,310.1L302.6,310.1L302.6,310.1L302.6,310.1L302.6,310.1
			L302.6,310.1L302.6,310.1L302.6,310.1L302.6,310.1L302.6,310.1L302.6,310.1L302.6,310.1L302.6,310.1L302.6,310.1L302.6,310.1
			L302.6,310.1L302.6,310.1L302.6,310.1L302.6,310.1L302.6,310.1L302.6,310.1L302.6,310.1L302.6,310.1L302.6,310.1L302.6,310.1
			L302.6,310.1L302.6,310.1L302.6,310.1L302.6,310.1L302.6,310.1L302.6,310.1L302.6,310.1L302.6,310.1L302.6,310.1L302.6,310.1
			L302.6,310.1L302.6,310.1L302.6,310.1L302.6,310.1L302.6,310.1L302.6,310.1L302.6,310.1L302.6,310.1L302.6,310.1L302.6,310.1
			L302.6,310.1L302.6,310.1L302.6,310.1L302.6,310.1L302.6,310.1L302.6,310.1L302.6,310.1L302.6,310.1L302.6,310.1L302.6,310.1
			L302.6,310.1L302.6,310.1L302.6,310.1L302.6,310.1L302.6,310.1L302.6,310.1L302.6,310.1L302.6,310.1L302.6,310.1L302.6,310.1
			L302.6,310.1L302.6,310.1L302.6,310.1L302.6,310.1L302.6,310.1L302.6,310.1L302.6,310.1L302.6,310.1L302.6,310.1L302.6,310.1
			L302.6,310.1L302.6,310.1L302.6,310.1L302.6,310.1L302.6,310.1L302.6,310.1L302.6,310.1L302.6,310.1L302.6,310.1L302.6,310.1
			l-0.2,0.1l0,0l0,0l0,0h-0.1l0,0h-0.2l0,0l0,0l0,0l0,0l0,0l0,0l0,0l0,0l0,0l0,0l0,0l0,0l0,0l0,0l0,0l0,0l0,0l0,0l0,0l0,0l0,0l0,0
			l0,0l0,0l0,0l0,0l0,0l0,0l0,0l0,0l0,0l0,0l0,0l0,0l0,0l0,0l0,0l0,0l0,0l0,0l0,0l0,0l0,0l0,0l0,0l0,0v0l0,0l0,0l0,0
			c-0.2,0.5-0.5,1-0.7,1.4l-1.6-0.8c1.2-2.3,2-4.8,2.5-7.3L302.6,310.1z M294.1,322.6l0.8,1.6c-1.8,0.9-4,0.7-6.4,0.1h-0.4
			c-0.4-0.1-0.9-0.2-1.3-0.4l0.5-1.7C289.8,322.9,292.4,323.5,294.1,322.6L294.1,322.6z M279.2,319.9l-0.3,1.8l-0.5-0.1h-0.1
			c-0.9-0.1-1.8-0.1-2.7,0h-0.4c-1.5,0.3-2.9,0.8-4.2,1.6l-0.9-1.6c1.5-0.9,3.2-1.5,5-1.8C276.6,319.6,277.9,319.6,279.2,319.9
			L279.2,319.9z M263.2,326.1l0.9,1.6c-0.5,0.3-1.1,0.6-1.7,0.9l0,0l-0.1,0h-0.8l0,0h-0.2h0l0,0h-0.1l0,0H261l0,0l-0.2,0.1l0,0
			c-1.5,0.4-3.1,0.2-4.4-0.5l0.8-1.6C258.9,327.8,260.6,327.6,263.2,326.1L263.2,326.1z M247.7,315.4c1,2.4,2.4,4.6,4,6.6l-1.4,1.2
			c-0.8-0.9-1.5-1.9-2.1-2.9l0,0c0-0.1-0.1-0.1-0.1-0.2l0,0v-0.1l0,0l0,0l0,0l0,0l0,0l0,0l0,0l0,0l0,0l0,0l0,0l0,0l0,0l0,0l0,0l0,0
			l0,0l0,0l0,0l0,0l0,0l0,0l0,0l0,0l0,0l0,0l0,0l0,0l0,0l0,0l0,0l0,0l0,0l0,0l0,0v0l0,0l0,0l0,0l0,0l0,0l0,0l0,0l0,0l0,0l0,0l0,0
			l0,0l0,0l0,0l0,0l0,0l0,0l0,0l0,0l0,0l0,0l0,0l0,0l0,0l0,0l0,0l0,0l0,0l0,0l0,0l0,0l0,0l0,0l0,0l0,0l0,0l0,0l0,0l0,0l0,0l0,0l0,0
			l0,0l0,0l0,0l0,0l0,0l0,0l0,0l0,0l0,0l0,0l0,0l0,0l0,0l0,0l0,0l0,0l0,0l0,0l0,0l0,0l0,0l0,0l0,0l0,0l0,0l0,0l0,0l0,0l0,0l0,0l0,0
			l0,0h-0.1l0,0h0l0,0h-0.2l0,0l0,0l0,0l0,0l0,0l0,0l0,0l0,0l0,0l0,0l0,0l0,0l0,0l0,0l0,0l0,0l0,0l0,0l0,0l0,0l0,0l0,0l0,0l0,0l0,0
			l0,0l0,0l0,0l0,0l0,0c-0.1-0.2-0.2-0.5-0.3-0.7L247.7,315.4z M245.7,300.2c-0.4,2.6-0.4,5.1-0.1,7.7l-1.8,0.2
			c-0.4-2.7-0.3-5.5,0.1-8.2L245.7,300.2z M250.6,285.2l1.4,1.2c-0.2,0.2-0.4,0.5-0.6,0.8c-1.4,1.8-2.5,3.7-3.4,5.7l-1.7-0.7
			c0.3-0.6,0.5-1.1,0.8-1.7l0,0v-0.1l0,0v-0.1l0,0v-0.1l0,0v-0.1l0,0v0l0,0l0,0l0,0l0,0l0,0l0,0l0,0l0,0l0,0l0,0l0,0l0,0h0.2l0,0
			l0,0l0,0h0.2l0,0l0,0l0,0h0.1l0,0l0,0l0,0l0,0l0,0l0,0l0,0l0,0l0,0l0,0l0,0l0,0l0,0l0,0l0,0l0,0l0,0h0.1l0,0l0,0l0,0l0,0l0,0l0,0
			l0,0l0,0l0,0l0,0l0,0l0,0l0,0l0,0l0,0l0,0l0,0l0,0l0,0l0,0l0,0l0,0l0,0h1.2l0,0l0,0l0,0l0,0l0,0l0,0l0,0h0.1l0,0l0,0l0,0l0,0l0,0
			h0.2l0,0l0,0l0,0h0.1l0,0h0.2l0,0h0.1l0,0h0.1l0,0l0,0l0,0h0.3l0,0h0.2l0,0l0,0l0,0l0,0L250.6,285.2z M264,276.1l0.6,1.7
			c-2.4,0.8-4.8,2-6.9,3.4l-1-1.5c0.5-0.4,1.1-0.7,1.7-1l0,0l0,0l0,0l0,0l0,0l0,0h1l0,0h0l0,0l0,0l0,0l0,0l0,0l0,0l0,0l0,0l0,0l0,0
			h0.1l0,0h0.1l0,0c0.6-0.3,1.3-0.6,2-0.9l0,0l0.2-0.1l0,0l0,0l0,0h0.1h0.1l0,0h0.1l0,0h1.4l0,0l0,0L264,276.1z M280.2,275.3
			l-0.4,1.8c-2.5-0.6-5.1-0.8-7.7-0.7l-0.1-1.8c0.6,0,1.2,0,1.8,0h6.3L280.2,275.3z M291.7,280.9l-1.1,1.4c-1.1-0.9-2.4-1.7-3.6-2.4
			l0.9-1.6c1,0.6,2,1.2,3,1.9l0,0l0,0l0,0l0,0l0,0l0,0l0,0l0,0l0,0l0,0l0,0l0,0h0l0,0l0,0l0,0h0.6L291.7,280.9z"/>
	</g>
</g>
<path class="st5" d="M116,405.5h4.7c0,0,2.6,41.1,4.8,42.9l-4.3-0.3C121.1,448.1,115.3,407.8,116,405.5z"/>
<g id="Head">
	<path class="st6" d="M101.2,379.9c-4.8-5.6-8-12.5-7.5-20.1c1.6-22.1,32.4-17.3,38.4-6.1c6,11.2,5.3,39.5-2.5,41.5
		c-3.1,0.8-9.7-1.1-16.4-5.2l4.2,29.8H92.6L101.2,379.9z"/>
</g>
<path id="hair" class="st7" d="M122.3,341.4c-3.4-0.9-6.9-1.3-10.4-1.1c1.2-2.9,1.6-6,1.3-9c-0.4-3-1.7-5.5-2.9-8.2
	c-0.5-1.2-1.2-2.4-2.2-3.4c-1-0.9-2.2-1.6-3.5-1.9c-1.3-0.3-2.7-0.3-4,0c-0.6,0.1-1.1,0.4-1.7,0.5c-0.6,0.2-0.9-0.2-1.3-0.6
	c-1.1-0.9-2.4-1.4-3.8-1.5c-1.5-0.2-3,0-4.4,0.5c-1.4,0.5-2.7,1.3-3.6,2.3c-0.5,0.5-0.8,1.1-1.1,1.7c-0.1,0.3-0.1,0.4-0.4,0.5
	c-0.3,0.1-0.5,0.1-0.7,0.2c-2.4,0.8-4.4,2.6-5.5,4.9c-0.7,2.1-1,4.2-0.9,6.4c0.1,2.7,2.5,9.7,4.8,12.2c2.1,2.2,4.8,3.8,7.9,4.4
	c-1.8,2.3-3.2,4.9-4.1,7.6c-1,3-1.7,6.1-1.9,9.3c-0.3,3.1-0.2,6.1,0.5,9.2c0.5,2.7,2.1,5,4.4,6.5c1.1,0.6,2.2,1.2,3.4,1.6
	c1.1,0.5,2.3,0.8,3.5,1.1c2.3,0.5,4.9,0.4,6.7-1.4c0.7-0.7,1.3-1.5,1.8-2.3c0.2-0.3,0.3-0.5,0.1-0.8c-0.3-0.3-0.6-0.6-0.9-0.9
	c-1.8-1.5-2.9-3.6-3.2-5.9c-0.3-2.4,0.4-5.6,2.7-6.6c2.9-1.3,6.1,0.2,8.7,1.6c1.1-3.9,3.4-7.4,6.9-9.1c3.9-2,8.4-2.2,12.4-3.9
	c1.1-0.4,2.1-1,2.9-1.8c0.4-0.4,0.7-0.9,0.8-1.4c0.1-0.6-0.1-1.2-0.6-1.7C132.3,347.9,125.7,342.5,122.3,341.4z"/>
<path class="st8" d="M136.2,444.4l38.6-20.4c0,0,16.2-15.7,20.4-16.4s4.4,0.5,1.8,4.4c-2.5,4-7.5,11.3-5.6,12.8
	c1.9,1.6,6.8,0.2,7.3,2.7c0.5,2.5-7.8,5-21,7.4l-30.1,23.6L136.2,444.4z"/>
<path id="Sleeve" class="st5" d="M114.1,450.9c17.9-3.3,34.4-11.6,47.8-23.9l10.4,15.3c-10.9,15.3-27.5,29.3-43.8,31.7
	C115.7,475.9,106.5,461.6,114.1,450.9z"/>
<path id="Sleeve-2" class="st9" d="M114.1,450.9c17.9-3.3,34.4-11.6,47.8-23.9l10.4,15.3c-10.9,15.3-27.5,29.3-43.8,31.7
	C115.7,475.9,106.5,461.6,114.1,450.9z"/>
<polygon id="Leg" class="st10" points="84.4,516.8 121.9,648.4 149.3,745.5 169.3,745.5 140.2,516.8 "/>
<polygon id="Leg-2" class="st11" points="84.4,516.8 121.9,648.4 149.3,745.5 169.3,745.5 140.2,516.8 "/>
<line id="Leg-3" class="st12" x1="169.3" y1="745.5" x2="140.2" y2="516.8"/>
<path class="st10" d="M74.4,516.8c-0.9,67.9-3.8,104.9-4.7,111C68.7,634,55,673.2,28.3,745.5H49c33.9-69.3,52.9-108.6,56.8-117.7
	c4-9.1,16.1-46.1,34.5-111H74.4z"/>
<path id="Shirt" class="st13" d="M67.5,517c32.5,3.5,58.1,3.5,76.8,0c2.3-0.4,2.7-4.3,1.6-6.9c-16.7-41-24.2-83.1-28.9-105.4
	c-3.1,1.5-14.8,1.9-22.4,0.8C74,434.8,71.6,468.6,67.5,517z"/>
<path class="st14" d="M108.3,411.5l2.4-1c7.3,14.1,16.8,33.5,16.4,79.7c-2.6,1.2-7.9,9.2-7.9,9.2l-6.8-11.7
	C117.1,448.1,110.4,423.1,108.3,411.5z"/>
<polygon class="st15" points="106.4,406.5 111.3,406.2 113,411.9 106.4,412 "/>
<path class="st16" d="M261.5,295.2l-80.2,80.8c-24.9,25.1-24.7,65.6,0.4,90.5c0,0,0,0,0,0l0,0l31.6-31.8l0,0
	c-10.6-10.5-10.7-27.6-0.2-38.2c0,0,0,0,0,0l74.6-75.2L261.5,295.2z"/>
<path class="st17" d="M261.5,295.2l-80.2,80.8c-24.9,25.1-24.7,65.6,0.4,90.5c0,0,0,0,0,0l0,0l31.6-31.8l0,0
	c-10.6-10.5-10.7-27.6-0.2-38.2c0,0,0,0,0,0l74.6-75.2L261.5,295.2z"/>
<path class="st18" d="M254.3,302.4l-80.2,80.7c-24.9,25.1-24.7,65.6,0.3,90.5l0,0l31.5-31.8l0,0c-10.6-10.5-10.7-27.6-0.2-38.2
	c0,0,0,0,0-0.1l74.6-75.2L254.3,302.4z"/>
<path class="st16" d="M352.3,385.3l-80.2,80.8c-24.9,25.1-65.4,25.2-90.5,0.4c0,0,0,0,0,0l0,0l31.6-31.8l0,0
	c10.6,10.5,27.7,10.4,38.2-0.1l74.6-75.2L352.3,385.3z"/>
<path class="st16" d="M345.1,392.5L265,473.3c-24.9,25.1-65.4,25.2-90.5,0.4l0,0l31.5-31.8l0,0c10.6,10.5,27.7,10.4,38.2-0.2
	c0,0,0,0,0,0l74.6-75.2L345.1,392.5z"/>
<path class="st16" d="M352.3,385.3l-80.2,80.8c-24.9,25.1-65.4,25.2-90.5,0.4c0,0,0,0,0,0l0,0l31.6-31.8l0,0
	c10.6,10.5,27.7,10.4,38.2-0.1l74.6-75.2L352.3,385.3z"/>
<path class="st19" d="M352.3,385.3l-80.2,80.8c-24.9,25.1-65.4,25.2-90.5,0.4c0,0,0,0,0,0l0,0l31.6-31.8l0,0
	c10.6,10.5,27.7,10.4,38.2-0.1l74.6-75.2L352.3,385.3z"/>
<path class="st16" d="M345.1,392.5L265,473.3c-24.9,25.1-65.4,25.2-90.5,0.4l0,0l31.5-31.8l0,0c10.6,10.5,27.7,10.4,38.2-0.2
	c0,0,0,0,0,0l74.6-75.2L345.1,392.5z"/>
<path class="st6" d="M166.5,459.2l15.2-12.2c0,0,0.1-13.4,6.1-15c0,0,0.8-1.2,1.2,2.2s0.6,7.9,3.3,6.4c2.7-1.5,15.1-12.5,17.1-11.1
	s3.3,9.4-0.2,15c-3.6,5.6-3.1,8.6-20.3,17.3s-18.4,14-18.4,14L166.5,459.2z"/>
<path class="st5" d="M179.7,474.1c0,0-49.4,17.4-80.5,14.7c-1.2,20.8-5.2,38.8-14.8,44.6l-20.6,12l6.4-95.3
	c1.4-15.7,9.3-32.5,21-43.1c0,0,3.6-2.9,3.6-2.8c-0.1,1.4-0.1,2.8,0,4.2c1,7.2,3.5,27.7,4.4,50.3c13.5,3.2,36.9,5.3,73-4.7
	L179.7,474.1z"/>
<path class="st20" d="M94.9,408.2c-0.2-1.5-0.3-2.4-0.4-2.6C94.7,406.4,94.8,407.3,94.9,408.2z"/>
<path class="st21" d="M210.7,756.2c-0.1,1.5-0.3,3-0.8,4.4h-63.2c-0.3-1.6-0.5-3.1-0.7-4.4c-0.2-1.5-0.3-3-0.3-4.5
	c0-1.7,0.6-4.2,1.9-7.5l0.1-0.1c0.4-0.8,1.2-1.3,2-1.3c0.3,0,0.6,0.1,0.9,0.2c2.9,1.3,5.2,2,6.9,2c2,0,4.7-0.8,8-2.3l1.9-4.6l0,0
	c0.2-0.4,0.5-0.6,0.9-0.6c0.2,0,0.4,0,0.6,0.1l29.4,13.1c2.3,0.4,5.3,0.7,8.8,1.2C209.5,752.1,210.7,753.6,210.7,756.2z"/>
<path class="st21" d="M28.4,744.3c-1.3,3.3-1.9,5.9-1.9,7.5c0.1,3,0.4,5.9,1,8.8h63.2c1.6-5.4,0.7-8.4-2.9-8.8
	c-3.5-0.4-6.5-0.8-8.8-1.2l-25.7-13.1c-0.6-0.2-1.2,0-1.5,0.6l0,0l-5.6,4.6c-3.3,1.5-5.9,2.3-8,2.3c-1.7,0-4-0.7-6.9-2l0,0
	c-1.1-0.5-2.5,0-3,1.1C28.4,744.2,28.4,744.2,28.4,744.3z"/>
<polygon class="st22" points="72,509.5 86.3,509.5 86.3,502.5 "/>
<path class="st23" d="M113.3,389.9c0,0-5.8-2.5-8.1-5.8c0,0,1.5,7.8,8.7,10.3L113.3,389.9z"/>
<path class="st24" d="M210.7,756.2c-0.1,1.5-0.3,3-0.8,4.4h-63.2c-0.3-1.6-0.5-3.1-0.7-4.4H210.7z"/>
<path class="st24" d="M91.5,756.2c0,1.5-0.3,3-0.8,4.4H27.5c-0.3-1.6-0.5-3.1-0.7-4.4H91.5z"/>
<path class="st25" d="M99.3,458.5c-5.8-1.5-11.2-4.2-15.8-7.9c0,0,9.3,4.9,15.6,3.2L99.3,458.5z"/>
<path class="st25" d="M99.2,488.7c-7.8-1.8-15-5.5-20.9-10.8c0,0,8,14.2,20.4,18.4L99.2,488.7z"/>
<circle class="st26" cx="123.2" cy="370.1" r="6.2"/>
<ellipse class="st26" cx="135.6" cy="370.1" rx="3.9" ry="6.2"/>
<circle class="st27" cx="122.1" cy="368.2" r="1.2"/>
<circle class="st27" cx="134.2" cy="368.2" r="1.2"/>
<path class="st27" d="M117.1,371.1c-0.5,0.1-1.1,0-1.6-0.1c-0.5-0.1-1-0.3-1.4-0.6c-0.9-0.4-1.9-0.8-2.8-1.3v-0.1c1,0.2,2,0.4,3,0.7
	c0.5,0.1,1,0.2,1.5,0.4C116.3,370.4,116.7,370.7,117.1,371.1L117.1,371.1z"/>
<line class="st26" x1="129.5" y1="370.1" x2="131.7" y2="370.1"/>
<path class="st28" d="M124.9,383.4c0.5,0.6,1.1,1,1.8,1.3c0.6,0.3,1.3,0.6,2,0.8c0.7,0.2,1.4,0.4,2.2,0.5c0.7,0.2,1.5,0.3,2.2,0.5
	c-0.8,0.2-1.5,0.2-2.3,0.2c-0.4,0-0.8-0.1-1.2-0.1c-0.4,0-0.8-0.1-1.2-0.3c-0.8-0.2-1.5-0.6-2.1-1.1
	C125.6,384.9,125.1,384.2,124.9,383.4z"/>
<path class="st29" d="M314.4,247l-7.6,8.4c0,0-5.1,2.7-5.6,3.6c-0.5,0.9-0.2,1.1,0.9,0.8c1.1-0.3,3.3-0.9,3.6-0.3
	c0.2,0.6-0.5,1.7,0.1,2s1.8-1.5,3.5-4.6l8.1-5.5L314.4,247z"/>
<path id="Sleeve-3" class="st30" d="M322.5,235.7c-2,5-5.4,9.3-9.7,12.5l3.9,3.9c5.1-2.3,10.1-6.3,11.8-10.9
	c0.8-2.3-0.3-4.8-2.6-5.6C324.7,235.2,323.5,235.2,322.5,235.7z"/>
<path id="Sleeve-3_1_" class="st31" d="M322.5,235.7c-2,5-5.4,9.3-9.7,12.5l3.9,3.9c5.1-2.3,10.1-6.3,11.8-10.9
	c0.8-2.3-0.3-4.8-2.6-5.6C324.7,235.2,323.5,235.2,322.5,235.7z"/>
<g id="Head-2">
	<path class="st6" d="M312.9,239.6c-2.3-0.8-4.7-0.6-6.9,0.4c-6.3,3.3-0.9,11.7,3.2,12s12.3-3.6,11.8-6.1c-0.2-1-1.6-2.7-3.6-4.1
		l9.3-2.6l-3.2-7.3L312.9,239.6z"/>
</g>
<path id="hair-2" class="st7" d="M301.1,244.3c-1-4.1,3.1-7.6,6.9-8.1c2.1-0.2,5.8,2.3,5.4,4c-0.2,1.1-1.3,1-2,0.9
	c-1.3-0.2-2.7,0.2-2.9,1.7c-0.2,1.3,1.8,1.7,1.8,1.7c-0.1,2-0.6,4-1.5,5.9c0.8,1.6-0.2,2.3-1.2,2.3c-1.1,0-3.3-2-4.1-3.2
	c-0.6-0.9-1.8-3.4-2-3.9c-0.1-0.2-0.1-0.3-0.2-0.5L301.1,244.3z"/>
<path id="hair-3" class="st7" d="M305.8,238.8c-0.2-0.2-0.5-0.4-0.6-0.6c-0.3-0.4-0.6-0.8-0.9-1.2c-0.8-1.1-1.5-2.3-2-3.6
	c-1-2.4-1.1-5.1-0.4-7.6c0.9-2.8,2.5-5.3,4.6-7.4c2.2-2.1,4.6-3.9,7.3-5.4c2.5-1.5,4.6-3.6,6.1-6.1c1.5-2.6,1.7-5.3,2.1-8.1
	c0.3-2.9,1.5-5.7,3.5-7.9c2-2,4.4-3.4,7.1-4.1c2.4-0.9,5-1,7.5-0.3c2.7,0.8,4.9,2.7,5.6,5.5c1,4.1-1.4,8.4-4,11.4
	c-1.5,1.7-3.3,3.2-5.2,4.4c-2.6,1.6-5.5,2.4-8.4,3.6c-1.3,0.6-2.6,1.3-3.7,2.1c-1.2,0.6-2,1.8-2.2,3.2c-0.1,1.5-0.3,3-0.7,4.4
	c-0.5,1.4-1.2,2.7-2.2,3.9c-1.9,2.2-4.4,3.9-6.7,5.7c-1.8,1.5-3.8,3.1-4.9,5.2c-0.4,0.6-0.6,1.4-0.7,2.1L305.8,238.8z"/>
<path class="st6" d="M320.5,259.4l-4.3,4.2c0,0-4.1-0.5-4.8,1.3c0,0-0.4,0.2,0.6,0.5s2.4,0.5,1.8,1.2c-0.6,0.8-4.4,4.1-4,4.8
	c0.3,0.7,2.7,1.4,4.6,0.5c1.8-0.9,2.7-0.6,6-5.5c3.3-4.9,4.9-5.1,4.9-5.1L320.5,259.4z"/>
<polygon id="Leg-4" class="st6" points="356.6,213.6 400.8,203.8 432.3,193.4 435.1,198.6 365.5,229.9 "/>
<path class="st6" d="M352.6,205.5c17.9-13.9,27.1-22.1,28.5-23.6c1.4-1.5,11.2-11.2,24.7-32.5l4,4.7c-11.2,22.6-19.4,34.1-20.9,37
	s-8.8,13.4-22.1,31.1L352.6,205.5z"/>
<path id="Pant" class="st32" d="M356.4,213.4c14.7-4.3,38.4-10.8,71-19.5l4.2,7.7c-29.2,16.7-50,25-66.1,28.4L356.4,213.4z"/>
<path id="Pant_1_" class="st32" d="M356.4,213.4c14.7-4.3,38.4-10.8,71-19.5l4.2,7.7c-29.2,16.7-50,25-66.1,28.4L356.4,213.4z"/>
<path id="Pant_2_" class="st32" d="M356.4,213.4c14.7-4.3,38.4-10.8,71-19.5l4.2,7.7c-29.2,16.7-50,25-66.1,28.4L356.4,213.4z"/>
<path id="Pant_3_" class="st33" d="M356.4,213.4c14.7-4.3,38.4-10.8,71-19.5l4.2,7.7c-29.2,16.7-50,25-66.1,28.4L356.4,213.4z"/>
<path class="st32" d="M352.5,205.5c17.8-13.9,33.4-29.9,49.7-52.7l6,7.1c-10.9,22.8-24.6,44.1-40.7,63.5L352.5,205.5z"/>
<path class="st34" d="M422.4,160.6l-7.9-9.4l-4.6-5.5l-1.2,0.1l-0.6,0.6l-3.4,3.3c0.2,0.2,0.4,0.3,0.7,0.5c1.7,1.5,2.9,3.5,3.6,5.7
	l0,0c4.3,1.2,8.2,3.4,11.5,6.4c0.2,0.2,0.5,0.2,0.7,0.1c0.1,0,0.2-0.1,0.2-0.2v-0.1l0.1-0.2L422.4,160.6z"/>
<path class="st34" d="M436.2,189.7l-4.7,2.9c1.5,1.5,2.5,3.8,3,6.9c3.9,2,7.4,4.9,10,8.5l0,0c0.2,0.3,0.7,0.4,1,0.1c0,0,0,0,0,0
	c0,0,0,0,0.1-0.1l1.2-1.2l-5.9-10.8l-3.5-6.3L436.2,189.7z"/>
<polygon class="st34" points="422.4,160.6 414.5,151.2 409.9,145.7 408.6,145.9 408.1,146.4 421.6,161.9 "/>
<polygon class="st34" points="446.8,206.9 440.9,196.1 437.4,189.8 436.2,189.7 435.5,190.2 445.7,207.9 "/>
<path id="Clothes" class="st35" d="M330.9,240.1c2.7,3.5-13.4,20.7-13.4,20.7c5.7,0.2,10.6,0.7,12.6-0.4c0,0,17.1-17.7,14.7-23.3
	c3.4-1.3,19.9-4.9,22.2-7.6c4.7-5.4-8-19.3-9.3-25.3c-12.7,1.5-14.3,10.1-21.4,13.3c-7.8,3.5-17.1,15-16.7,16l3.7,8.4
	C329.5,239.8,323.5,241.1,330.9,240.1z"/>
<path class="st23" d="M317.4,241.8c-0.6-0.6-1.5-1.1-2.4-1.2c1.2-0.5,2.6-0.1,3.5,0.9L317.4,241.8z"/>
<circle class="st27" cx="313.5" cy="247.6" r="0.4"/>
<circle class="st27" cx="314.1" cy="250.6" r="0.4"/>
<path class="st28" d="M317.6,246.2c0.3-0.1,0.6-0.1,0.8,0.1c0.2,0.1,0.5,0.3,0.6,0.5c0.3,0.4,0.5,1,0.4,1.5
	c-0.3-0.3-0.6-0.7-0.9-1.1c-0.1-0.2-0.3-0.3-0.4-0.5C318,246.5,317.8,246.3,317.6,246.2z"/>
<path class="st36" d="M315.3,249.1c0.3-0.1,0.5-0.1,0.8-0.2c0.3-0.1,0.5-0.1,0.8-0.2c0.2,0,0.4-0.1,0.6-0.2c0.2-0.2,0.3-0.4,0.2-0.6
	c0.1,0.1,0.2,0.3,0.2,0.4c0,0.2,0,0.4-0.1,0.5c-0.2,0.3-0.5,0.4-0.8,0.5c-0.3,0.1-0.6,0.1-0.9,0.1
	C315.9,249.3,315.6,249.2,315.3,249.1z"/>
<circle class="st37" cx="314" cy="250.9" r="0.1"/>
<circle class="st37" cx="313.4" cy="247.8" r="0.1"/>
<polygon id="Leg-5" class="st6" points="448.6,301.7 495.8,308.2 530.8,309.3 531.7,315.5 451.4,321.1 "/>
<path class="st6" d="M447.6,292.2c22.7-7.2,34.8-11.9,36.8-12.9s15.2-6.9,36.3-23.1l2.2,6.1c-19.3,18.2-31.6,26.7-34.2,28.9
	s-13.6,10-33.2,22.7L447.6,292.2z"/>
<path class="st29" d="M410,365.9l-4.9,10.9c0,0-0.5,6.1-1.2,7c-0.7,0.9-1,0.7-1.2-0.6c-0.2-1.3-0.5-3.6-1.2-3.6
	c-0.7,0-1.4,1.2-2,0.8s0.7-2.4,2.9-5.3l1.8-10.2L410,365.9z"/>
<path id="Pant-2" class="st5" d="M448.5,301.5c16.1,1.1,41.9,3.3,77.3,6.7l1.3,9.1c-35,5.9-58.5,6.4-75.7,3.9L448.5,301.5z"/>
<path class="st5" d="M447.6,292.2c22.7-7.2,43.9-17.4,68.4-33.9l3.3,9.2c-19.1,18.5-40.4,34.6-63.4,47.8L447.6,292.2z"/>
<path class="st7" d="M533,273.4l-4.4-12.2l-2.6-7.1l-1.3-0.3l-0.8,0.3l-4.6,2c0.2,0.2,0.3,0.5,0.5,0.7c1.1,2.1,1.6,4.5,1.5,6.9v0
	c3.8,2.8,6.8,6.3,9,10.4c0.1,0.2,0.4,0.4,0.7,0.4c0.1,0,0.2,0,0.3-0.1h0.1l0.2-0.2L533,273.4z"/>
<path class="st7" d="M535.9,307.1l-5.7,1.2c0.9,2,1.1,4.6,0.4,7.9c3.1,3.5,5.4,7.6,6.7,12l0,0c0.1,0.4,0.5,0.6,0.9,0.5c0,0,0,0,0,0
	h0.1l1.7-0.8l-1.9-12.8l-1.1-7.5L535.9,307.1z"/>
<path id="Clothes-Back" class="st32" d="M418,317.6l-3.1,0.9c3,17.9-14.8,39.5-13.4,46.1c0.5,2.4,2.6,2.7,2.1,3.8l5,0.9
	c0.3-1,2.2-0.3,4.6-2.6C415.5,364.5,426.9,336.3,418,317.6z"/>
<g id="Head-3">
	<path class="st6" d="M398.5,322c-2.4-1-5.1-1-7.5-0.1c-7.1,3.2-1.8,12.8,2.6,13.4c4.4,0.6,13.7-3,13.4-5.8
		c-0.1-1.1-1.5-3.1-3.6-4.8l10.3-2.2l-3-8.2L398.5,322z"/>
</g>
<path id="Combined-Shape" class="st7" d="M395.5,325.9c-0.3-0.2-0.5-0.5-0.6-0.8c-0.3-0.9,0.2-2,1.1-2.3c0.8-0.3,1.6-0.2,2.3,0.4
	c0.5-0.6,0.9-1,0.8-1.5c-0.7-1.4-5-2-8.1-1c-3.3,1.2-5.2,4.8-3.4,9.7c1.6,4.4,4,5.4,5.6,4.9c-0.2-2.1-1.2-5.5-2.9-10.1l0.3-0.1
	l1.8,4l2.3-0.1C394.2,327.9,394.7,326.9,395.5,325.9z"/>
<path class="st6" d="M378.1,277.6l-4.3-3.3c0,0-3.6,0.9-4.4-0.6c0,0-0.4-0.1,0.5-0.5c0.9-0.3,2.1-0.7,1.5-1.3
	c-0.6-0.6-4.4-3.2-4.1-3.8c0.2-0.6,2.3-1.5,4-0.9c1.7,0.6,2.5,0.3,6,4.3c3.5,4,5,4,5,4L378.1,277.6z"/>
<path id="Clothes-Front" class="st32" d="M414.8,323.5c21.6-8.2,31.7,2.4,39.4-3.6c6.4-4.9,6.1-29.9-2.3-31.1
	c-3.4-0.5-39.9,8.3-43.9,23.8l-1.8,0.8c-0.7,0.3-1.1,1.2-0.7,1.9l4,9c0.3,0.7,1.2,1.1,1.9,0.7L414.8,323.5z"/>
<path class="st23" d="M403.3,324.7c-0.6-0.7-1.5-1.2-2.4-1.2c0,0,1.7-0.7,3.6,1L403.3,324.7z"/>
<polygon class="st38" points="533,273.4 528.6,261.2 526,254.1 524.7,253.8 524,254.1 531.7,274.3 "/>
<polygon class="st38" points="540.2,328 538.2,315.2 537.1,307.7 535.9,307.1 535.1,307.3 538.8,328.6 "/>
<circle class="st27" cx="397.1" cy="330.3" r="0.5"/>
<circle class="st27" cx="397.5" cy="334.2" r="0.5"/>
<path class="st28" d="M402.5,329c0.4-0.1,0.7,0,1,0.2c0.3,0.2,0.5,0.4,0.7,0.7c0.4,0.6,0.5,1.3,0.3,1.9c-0.2-0.2-0.4-0.5-0.6-0.7
	c-0.2-0.2-0.3-0.5-0.5-0.7c-0.2-0.2-0.3-0.5-0.4-0.7C402.9,329.5,402.7,329.3,402.5,329z"/>
<path class="st36" d="M399.3,332.4c0.7-0.2,1.4-0.2,2-0.3c0.3,0,0.6-0.1,0.8-0.2c0.2-0.2,0.4-0.5,0.4-0.8c0.1,0.2,0.2,0.3,0.2,0.5
	c0,0.2-0.1,0.5-0.2,0.6c-0.3,0.3-0.7,0.5-1.1,0.5C400.7,333,399.9,332.8,399.3,332.4z"/>
<circle class="st37" cx="397.4" cy="334.5" r="0.1"/>
<circle class="st37" cx="397" cy="330.6" r="0.1"/>
<path id="Clothes-Back-2" class="st32" d="M415.2,313.2l-3.1,0.8c-6.7-16.9-33.2-26.2-35.4-32.5c-0.8-2.3,0.8-3.7-0.2-4.3l3.8-3.4
	c0.8,0.7,2.1-0.9,5.3-0.2C388.7,274.4,413.1,292.6,415.2,313.2z"/>
</svg>
