<?xml version="1.0" encoding="utf-8"?>
<!-- Generator: Adobe Illustrator 23.0.1, SVG Export Plug-In . SVG Version: 6.00 Build 0)  -->
<svg version="1.1" id="Layer_1" xmlns="http://www.w3.org/2000/svg" xmlns:xlink="http://www.w3.org/1999/xlink" x="0px" y="0px"
	 viewBox="0 0 583.8 841.9" style="enable-background:new 0 0 583.8 841.9;" xml:space="preserve">
<style type="text/css">
	.st0{opacity:0.48;}
	.st1{fill:#888E8E;}
	.st2{opacity:0.6;fill:#888E8E;}
	.st3{opacity:0.34;}
	.st4{opacity:0.94;}
	.st5{opacity:0.74;fill:#ADAEAD;enable-background:new    ;}
	.st6{opacity:0.74;fill:#010101;enable-background:new    ;}
	.st7{fill:#ADAEAD;fill-opacity:0;}
	.st8{opacity:0.68;fill:#F9DC4B;enable-background:new    ;}
	.st9{fill-rule:evenodd;clip-rule:evenodd;fill:#766AB0;}
	.st10{fill:#D7DAEE;}
	.st11{fill:#766AB0;}
	.st12{fill:#ADAEAD;}
	.st13{fill:none;}
	.st14{opacity:0.75;fill:#F5F5BF;enable-background:new    ;}
	.st15{fill:#F8AF84;}
	.st16{fill:#3F398F;}
	.st17{opacity:0.4;fill:#4375BA;enable-background:new    ;}
	.st18{fill:#212121;}
	.st19{fill:#BB8366;}
	.st20{fill:none;stroke:#212121;stroke-miterlimit:10;}
	.st21{fill:#212121;stroke:#212121;stroke-width:1.42;stroke-miterlimit:10;}
	.st22{fill:#1E2143;}
	.st23{fill:#2E3364;}
	.st24{fill:#EFF0F8;}
	.st25{fill:#EDF2FA;}
	.st26{fill:#737ABA;}
	.st27{fill:#3D4386;}
	.st28{fill:#E8A17C;}
	.st29{fill:#0DBCD4;}
	.st30{fill:#535AA8;}
	.st31{opacity:0.37;fill:#010101;enable-background:new    ;}
	.st32{fill:#A1D8CF;}
	.st33{opacity:0.4;fill:#6FC6A6;stroke:#6FC6A6;stroke-miterlimit:10;enable-background:new    ;}
	.st34{opacity:0.12;fill:#6FC6A6;stroke:#6FC6A6;stroke-miterlimit:10;enable-background:new    ;}
	.st35{opacity:0.27;fill:#6FC6A6;stroke:#6FC6A6;stroke-miterlimit:10;enable-background:new    ;}
	.st36{opacity:0.28;fill:#010101;enable-background:new    ;}
	.st37{fill:#6FC6A6;}
	.st38{opacity:0.29;fill:#010101;enable-background:new    ;}
	.st39{opacity:0.27;fill:#00AE81;enable-background:new    ;}
	.st40{fill-rule:evenodd;clip-rule:evenodd;fill:#ADAEAD;}
	.st41{fill-rule:evenodd;clip-rule:evenodd;fill:#989898;}
	.st42{fill:#2A2357;}
</style>
<g>
	<g class="st0">
		<path class="st1" d="M39.3,661c0,0,0.1,0,0.2,0.1l-0.4-0.5C39.2,660.7,39.2,660.8,39.3,661z"/>
		<path class="st1" d="M46.7,662.4c0,0,0.2-0.1,0.5-0.3l-1.2,0.3C46.3,662.4,46.5,662.4,46.7,662.4z"/>
		<path class="st1" d="M50.8,482.3l0.8-3.4c-0.8,0.2-1.6,0.4-2.4,0.5L50.8,482.3z"/>
		<path class="st1" d="M78.8,417.7c-1.1,0-2.1,0-3.2-0.1C76.8,417.7,77.8,417.7,78.8,417.7z"/>
		<path class="st1" d="M139.4,665.9c0-3-1.1-5.3-1.8-6.4c0,0,0.2-0.4-0.2-0.6l-30.3-80.3c-0.5-1.2-0.7-2.4-0.8-3.7l-4.7-62.2
			l7.6,4.1l-2-23.2c10.3-6,21.1-19.6,4.7-48.7c0,0-4.7-12.5-20.4-22.7c-3.7-4-6.7-5.5-6.7-5.5s-0.1,0-0.2,0.1l-3.5-14
			c0.6-0.9,1.1-1.8,1.7-2.7c1.6,0.1,3-0.5,3-0.5c6.1-1.1,7-6.2,7-6.2c2.9-8.2-3.4-19.2-3.4-19.2c7.1-1.2,7.9-11.3,7.9-11.3
			c1.9-8.2-5.3-9-5.3-9c-5.2-7-10.2-0.8-10.2-0.8c-1.2-1.7-3.3-1.4-4.9-0.9c-1.4,0.5-2.5,1.5-3.2,2.8c-4.5,9.1-0.8,13.5-0.8,13.5
			c-11.2-1.8-17.1,8.5-17.1,8.5c0.5,1.7,2.1,2.7,3.7,3.2c0,0.1-0.1,0.1-0.1,0.2c-0.2,0.2-0.6,0.5-1,0.9c-1.8,2.2-1.4,4.9-1.7,8.5
			c-0.3,4.4-0.2,8.6-0.2,8.6c0.2,11.2,4.6,13.4,4.6,13.4c2.7,0.9,6.4-0.4,9.9-2.1l-0.5,7.4l-0.4,0.1l-3.7,1l-9.9,40.5
			c-0.8,0.9-1.7,1.7-2.6,2.5c-6.1,5.1-14,7.7-22.8,10.6c-6.1,2-11.7,3.3-16.5,4.1l-3.6-6l0.1,0.1L9.6,468l0.2,6.4l-8.7-2.4
			c-2.2,0.2-0.6,1.4-0.6,1.4l3.4,1.4l-3.8-1.2c-2.1,0.3-0.7,1.6-0.7,1.6l3.6,1.4l-2-0.5c-1.5,0.5-0.4,1.4-0.4,1.4l2.1,0.8
			C0.5,478,1.6,479,1.6,479c1.8,1.3,7,2.6,10.2,3.4c0.1,0.1,0.1,0.1,0.2,0.2c0,0,0.3,0,0.8,0c1,0.2,1.6,0.4,1.6,0.4l0-0.3
			c5.4,0,18.8-0.2,32.3-2.7l0.2,5.1L35,481.6c-3,0.3-0.8,1.9-0.8,1.9l4.6,2l-5.1-1.7c-2.9,0.5-0.9,2.2-0.9,2.2l4.8,2l-2.8-0.8
			c-2,0.7-0.5,1.9-0.5,1.9l2.9,1.2c-3-0.1-1.6,1.3-1.6,1.3c2.1,1.5,7.6,3.2,11.9,4.3l0,0.2l2.8,0.6c0.2,1,0.7,1.7,1.8,2
			c0,0,0.1,0,0.1,0l0,0.2c0,0,0.6,0.2,1.8,0.6l-9.3,87.8L37,657.5l-21.1,9.6c-9.4,0.2-9,3.3-8.7,4.2l-0.4,0l1.1,3
			c0,0,43.7-0.9,44.7-0.9c1,0,1-3.1,1-3.1c2-3.1-2-9.6-2-9.6c0,0-0.1,0-0.1,0l24.3-94.5l8.5,19.1l36,70.4l-18.1,9.5
			c0,0-11.2,0.2-9.3,3.8c-0.1,0.4,0,1.2,0.4,2.9H139C139.5,670.5,139.4,667.1,139.4,665.9z M50.8,482.3l-1.6-2.8
			c0.8-0.2,1.6-0.3,2.4-0.5L50.8,482.3z M39.3,661c-0.1-0.2-0.1-0.3-0.2-0.5l0.4,0.5C39.4,661,39.3,661,39.3,661z M46.7,662.4
			c-0.2,0-0.5,0-0.7,0l1.2-0.3C46.9,662.3,46.7,662.4,46.7,662.4z M75.6,417.6c1,0,2.1,0.1,3.2,0.1
			C77.8,417.7,76.8,417.7,75.6,417.6z"/>
	</g>
	<g>
		<g class="st0">
			<path class="st1" d="M107,660.1c0,0,0.1,0,0.2,0.1l-0.4-0.5C106.9,659.8,107,659.9,107,660.1z"/>
			<path class="st1" d="M114.5,661.5c0,0,0.2-0.1,0.5-0.3l-1.2,0.3C114,661.5,114.3,661.5,114.5,661.5z"/>
			<path class="st1" d="M118.6,481.4l0.8-3.4c-0.8,0.2-1.6,0.4-2.4,0.5L118.6,481.4z"/>
			<path class="st1" d="M146.5,416.8c-1.1,0-2.1,0-3.2-0.1C144.5,416.8,145.6,416.8,146.5,416.8z"/>
			<path class="st1" d="M207.1,665c0-0.1,0.1-1.8-0.6-3.9c-0.4-1.1-0.8-2-1.2-2.5c0,0,0.2-0.4-0.2-0.6l-30.3-80.3
				c-0.5-1.2-0.7-2.4-0.8-3.7l-4.7-62.2l7.6,4.1l-2-23.2c10.3-6,21.1-19.6,4.7-48.7c0,0-4.7-12.5-20.4-22.7c-3.7-4-6.7-5.5-6.7-5.5
				s-0.1,0-0.2,0.1l-3.5-14c0.6-0.9,1.1-1.8,1.7-2.7c1.6,0.1,3-0.5,3-0.5c6.1-1.1,7-6.2,7-6.2c2.9-8.2-3.4-19.2-3.4-19.2
				c-6.8-5-16.4-5.8-16.4-5.8c-11.2-1.8-17.1,8.5-17.1,8.5c0.5,1.7,2.1,2.7,3.7,3.2c0,0.1-0.1,0.1-0.1,0.2c-0.2,0.2-0.6,0.5-1,0.9
				c-1.8,2.2-1.4,4.9-1.7,8.5c-0.3,4.4-0.2,8.6-0.2,8.6c0.2,11.2,4.6,13.4,4.6,13.4c2.7,0.9,6.4-0.4,9.9-2.1l-0.5,7.4l-0.4,0.1
				l-3.7,1l-9.9,40.5c-0.8,0.9-1.7,1.7-2.6,2.5c-6.1,5.1-14,7.7-22.8,10.6c-6.1,2-11.7,3.3-16.5,4.1l-3.6-6L79,469l-1.7-1.9l0.2,6.4
				l-8.7-2.4c-2.2,0.2-0.6,1.4-0.6,1.4l3.4,1.4l-3.8-1.2c-2.1,0.3-0.7,1.6-0.7,1.6l3.6,1.4l-2-0.5c-1.5,0.5-0.4,1.4-0.4,1.4l2.1,0.8
				c-2.2-0.1-1.2,0.9-1.2,0.9c1.8,1.3,7,2.6,10.2,3.4c0.1,0.1,0.1,0.1,0.2,0.2c0,0,0.3,0,0.8,0c1,0.2,1.6,0.4,1.6,0.4l0-0.3
				c5.4,0,18.8-0.2,32.3-2.7l0.2,5.1l-11.9-3.5c-3,0.3-0.8,1.9-0.8,1.9l4.6,2l-5.1-1.7c-2.9,0.5-0.9,2.2-0.9,2.2l4.8,2l-2.8-0.8
				c-2,0.7-0.5,1.9-0.5,1.9l2.9,1.2c-3-0.1-1.6,1.3-1.6,1.3c2.1,1.5,7.6,3.2,11.9,4.3l0,0.2l2.8,0.6c0.2,1,0.7,1.7,1.8,2
				c0,0,0.1,0,0.1,0l0,0.2c0,0,0.6,0.2,1.8,0.6l-9.3,87.8l-7.7,70.3l-21.1,9.6c-9.4,0.2-9,3.3-8.7,4.2l-0.4,0l1.1,3
				c0,0,43.7-0.9,44.7-0.9s1-3.1,1-3.1c2-3.1-2-9.6-2-9.6c0,0-0.1,0-0.1,0l24.3-94.5l8.5,19.1l36,70.4l-18.1,9.5
				c0,0-11.2,0.2-9.3,3.8c-0.1,0.4,0,1.2,0.4,2.9C171.5,670.5,206.9,668.5,207.1,665z M118.6,481.4l-1.6-2.8
				c0.8-0.2,1.6-0.3,2.4-0.5L118.6,481.4z M107,660.1c-0.1-0.2-0.1-0.3-0.2-0.5l0.4,0.5C107.1,660.1,107,660.1,107,660.1z
				 M114.5,661.5c-0.2,0-0.5,0-0.7,0l1.2-0.3C114.7,661.4,114.5,661.5,114.5,661.5z M143.3,416.7c1,0,2.1,0.1,3.2,0.1
				C145.6,416.8,144.5,416.8,143.3,416.7z"/>
			<path class="st1" d="M269.9,662.7c0-0.1,0.1-1.8-0.6-3.9c-0.4-1.1-0.8-2-1.2-2.5c0,0,0.2-0.4-0.2-0.6l-30.3-80.3
				c-0.5-1.2-0.7-2.4-0.8-3.7l-4.7-62.2l7.6,4.1l-2-23.2c10.3-6,21.1-19.6,4.7-48.7c0,0-4.7-12.5-20.4-22.7c-3.7-4-6.7-5.5-6.7-5.5
				s-0.1,0-0.2,0.1l-3.5-14c0.6-0.9,1.1-1.8,1.7-2.7c1.6,0.1,3-0.5,3-0.5c6.1-1.1,7-6.2,7-6.2c2.9-8.2-3.4-19.2-3.4-19.2
				c-6.8-5-16.4-5.8-16.4-5.8c-11.2-1.8-17.1,8.5-17.1,8.5c0.5,1.7,2.1,2.7,3.7,3.2c0,0.1-0.1,0.1-0.1,0.2c-0.2,0.2-0.6,0.5-1,0.9
				c-1.8,2.2-1.4,4.9-1.7,8.5c-0.3,4.4-0.2,8.6-0.2,8.6c0.2,11.2,4.6,13.4,4.6,13.4c2.7,0.9,6.4-0.4,9.9-2.1l-0.5,7.4l-0.4,0.1
				l-3.7,1l-9.9,40.5c-0.8,0.9-1.7,1.7-2.6,2.5c-6.1,5.1-14,7.7-22.8,10.6c-6.1,2-11.7,3.3-16.5,4.1l-3.6-6l0.1,0.1l-1.7-1.9
				l0.2,6.4l-8.7-2.4c-2.2,0.2-0.6,1.4-0.6,1.4l3.4,1.4l-3.8-1.2c-2.1,0.3-0.7,1.6-0.7,1.6l3.6,1.4l-2-0.5c-1.5,0.5-0.4,1.4-0.4,1.4
				l2.1,0.8c-2.2-0.1-1.2,0.9-1.2,0.9c1.8,1.3,7,2.6,10.2,3.4c0.1,0.1,0.1,0.1,0.2,0.2c0,0,0.3,0,0.8,0c1,0.2,1.6,0.4,1.6,0.4l0-0.3
				c5.4,0,18.8-0.2,32.3-2.7l0.2,5.1l-11.9-3.5c-3,0.3-0.8,1.9-0.8,1.9l4.6,2l-5.1-1.7c-2.9,0.5-0.9,2.2-0.9,2.2l4.8,2l-2.8-0.8
				c-2,0.7-0.5,1.9-0.5,1.9l2.9,1.2c-3-0.1-1.6,1.3-1.6,1.3c2.1,1.5,7.6,3.2,11.9,4.3l0,0.2l2.8,0.6c0.2,1,0.7,1.7,1.8,2
				c0,0,0.1,0,0.1,0l0,0.2c0,0,0.6,0.2,1.8,0.6l-9.3,87.8l-7.7,70.3l-21.1,9.6c-9.4,0.2-9,3.3-8.7,4.2l-0.4,0l1.1,3
				c0,0,43.7-0.9,44.7-0.9c1,0,1-3.1,1-3.1c2-3.1-2-9.6-2-9.6c0,0-0.1,0-0.1,0l24.3-94.5l8.5,19.1l36,70.4l-18.1,9.5
				c0,0-11.2,0.2-9.3,3.8c-0.1,0.4,0,1.2,0.4,2.9C234.3,668.2,269.7,666.2,269.9,662.7z M181.4,479.1l-1.6-2.8
				c0.8-0.2,1.6-0.3,2.4-0.5L181.4,479.1z M169.8,657.8c-0.1-0.2-0.1-0.3-0.2-0.5l0.4,0.5C169.9,657.8,169.8,657.8,169.8,657.8z
				 M177.3,659.2c-0.2,0-0.5,0-0.7,0l1.2-0.3C177.5,659.1,177.3,659.2,177.3,659.2z M206.1,414.4c1,0,2.1,0.1,3.2,0.1
				C208.4,414.5,207.3,414.5,206.1,414.4z"/>
		</g>
		<path class="st2" d="M216,372.8c0,0,3.5-7.9,11.6-5.5c8.1,2.4,10.1,25.3,16.9,27.3s6.8,1.9,6.8,1.9l0,0c0,0-8.2,13.2-16.4,3.1
			c-8.2-10.1-5.6-18.7-6.2-20.5s3.1-7.4-5.6-6.8C214.3,372.8,216,372.8,216,372.8z"/>
	</g>
</g>
<g class="st3">
	<g id="Path_484-2" class="st4">
		<path class="st5" d="M507.2,222.9c14.2,22.1,24.9,46.2,31.7,71.6c1.2,4.2,1.8,8.5,1.9,12.8c0.9,54-91.2,76.3-117.7,127.5
			c-31.1,60.1,8.5,150.9-62.9,170.1c-103.7,27.9-209.7-12.8-269.8-94.3c-18.7-25.4-32.5-54.1-40.7-84.5
			C13.3,291,93.3,152,228.5,115.6C337.5,86.3,449.1,132.8,507.2,222.9z"/>
		<path class="st6" d="M507.2,222.9c18.7,25.4,32.5,54.1,40.7,84.6c1.2,4.2,1.8,8.5,1.9,12.9c0.9,54-91.2,76.3-117.7,127.5
			c-31.1,60.1,8.5,150.9-62.9,170.1C260,647.3,148.4,600.7,90.3,510.6c60.1,81.5,166.1,122.2,269.8,94.3
			c71.5-19.2,31.8-110,62.9-170.1c26.5-51.2,118.6-73.5,117.8-127.5c-0.1-4.3-0.7-8.7-1.9-12.8C532.1,269.1,521.4,245,507.2,222.9z"
			/>
		<path class="st7" d="M300.3,221.5h1.4l0,0h0.1l0,0l0,0l0,0l0,0l0,0l0,0l0,0l0,0l0,0l0,0l0,0l0,0l0,0l0,0l0,0l0,0l0,0l0,0l0,0l0,0
			l0,0l0,0l0.1,0.1l0,0c1.3,1.2,2.5,2.6,3.5,4l-1.4,1c-1.5-2-3.2-3.8-5.2-5.3l1.1-1.4L300.3,221.5z M309.5,234.1
			c0.1,0.4,0.3,0.7,0.4,1.1l0,0l0,0l0,0l0,0l0,0l0,0l0,0l0,0l0,0l0,0l0,0l0,0l0,0l0,0l0,0l0,0l0,0l0,0l0,0l0,0l0,0l0,0l0,0l0,0l0,0
			l0,0l0,0l0,0l0,0l0,0l0,0l0,0l0,0l0,0l0,0l0,0l0,0l0,0l0,0l0,0h0.1l0,0l0,0l0,0h0l0,0l0,0l0,0l0,0l0,0l0,0l0,0l0,0l0,0l0,0l0,0
			l0,0l0,0l0,0l0,0l0,0l0,0l0,0l0,0l0,0l0,0l0,0l0,0l0,0l0,0l0,0l0,0l0,0l0,0l0,0l0,0l0,0l0,0l0,0l0,0l0,0l0,0l0,0l0,0l0,0l0,0l0,0
			l0,0l0,0l0,0l0,0l0,0l0,0l0,0l0,0l0,0l0,0l0,0l0,0l0,0l0,0l0,0l0,0l0,0l0,0l0,0l0,0l0,0l0,0v0l0,0l0,0l0,0v0.1l0,0l0,0l0,0l0,0
			l0,0c0.1,0.5,0.2,0.9,0.3,1.4l0,0l0,0l0,0l0,0l0,0v0.1l0,0v0.1l0,0l0,0l0,0l0,0l0,0l0,0l0,0v0l0,0l0,0l0,0l0,0l0,0l0,0l0,0l0,0
			l0,0l0,0l0,0l0,0l0,0l0,0l0,0l0,0l0,0l0,0l0,0l0,0l0,0l0,0l0,0l0,0l0,0l0,0l0,0l0,0l0,0l0,0l0,0l0,0l0,0l0,0l0,0l0,0l0,0l0,0l0,0
			l0,0l0,0l0,0l0,0l0,0l0,0l0,0l0,0l0,0l0,0l0,0l0,0l0,0l0,0l0,0l0,0l0,0l0,0l0,0l0,0l0,0l0,0l0,0l0,0l0,0l0,0l0,0l0,0l0,0l0,0l0,0
			l0,0l0,0l0,0l0,0l0,0l0,0l0,0l0,0l0,0v0l0,0c0,0.2,0.1,0.5,0.1,0.8l-1.8,0.1c-0.2-2.5-0.7-4.9-1.6-7.2L309.5,234.1z M310.8,249.7
			L310.8,249.7L310.8,249.7L310.8,249.7L310.8,249.7L310.8,249.7L310.8,249.7L310.8,249.7L310.8,249.7L310.8,249.7L310.8,249.7
			L310.8,249.7L310.8,249.7L310.8,249.7L310.8,249.7L310.8,249.7L310.8,249.7L310.8,249.7L310.8,249.7L310.8,249.7L310.8,249.7
			L310.8,249.7L310.8,249.7L310.8,249.7L310.8,249.7L310.8,249.7L310.8,249.7L310.8,249.7L310.8,249.7L310.8,249.7L310.8,249.7
			L310.8,249.7L310.8,249.7L310.8,249.7L310.8,249.7L310.8,249.7L310.8,249.7L310.8,249.7L310.8,249.7L310.8,249.7L310.8,249.7
			L310.8,249.7L310.8,249.7L310.8,249.7L310.8,249.7L310.8,249.7L310.8,249.7L310.8,249.7L310.8,249.7L310.8,249.7L310.8,249.7
			L310.8,249.7L310.8,249.7L310.8,249.7L310.8,249.7L310.8,249.7L310.8,249.7L310.8,249.7L310.8,249.7L310.8,249.7L310.8,249.7
			L310.8,249.7L310.8,249.7L310.8,249.7L310.8,249.7L310.8,249.7L310.8,249.7L310.8,249.7L310.8,249.7L310.8,249.7L310.8,249.7
			L310.8,249.7L310.8,249.7L310.8,249.7L310.8,249.7L310.8,249.7L310.8,249.7L310.8,249.7L310.8,249.7L310.8,249.7L310.8,249.7
			L310.8,249.7L310.8,249.7L310.8,249.7L310.8,249.7L310.8,249.7L310.8,249.7L310.8,249.7L310.8,249.7L310.8,249.7L310.8,249.7
			L310.8,249.7L310.8,249.7L310.8,249.7L310.8,249.7L310.8,249.7L310.8,249.7L310.8,249.7L310.8,249.7L310.8,249.7L310.8,249.7
			L310.8,249.7L310.8,249.7L310.8,249.7L310.8,249.7L310.8,249.7L310.8,249.7L310.8,249.7L310.8,249.7L310.8,249.7L310.8,249.7
			L310.8,249.7L310.8,249.7L310.8,249.7L310.8,249.7L310.8,249.7L310.8,249.7L310.8,249.7L310.8,249.7L310.8,249.7L310.8,249.7
			L310.8,249.7L310.8,249.7L310.8,249.7L310.8,249.7L310.8,249.7L310.8,249.7L310.8,249.7L310.8,249.7L310.8,249.7L310.8,249.7
			L310.8,249.7L310.8,249.7L310.8,249.7L310.8,249.7L310.8,249.7L310.8,249.7L310.8,249.7L310.8,249.7L310.8,249.7L310.8,249.7
			L310.8,249.7L310.8,249.7L310.8,249.7L310.8,249.7L310.8,249.7L310.8,249.7L310.8,249.7L310.8,249.7L310.8,249.7L310.8,249.7
			L310.8,249.7L310.8,249.7L310.8,249.7L310.8,249.7L310.8,249.7L310.8,249.7L310.8,249.7L310.8,249.7L310.8,249.7L310.8,249.7
			L310.8,249.7L310.8,249.7L310.8,249.7L310.8,249.7L310.8,249.7L310.8,249.7L310.8,249.7L310.8,249.7L310.8,249.7L310.8,249.7
			L310.8,249.7L310.8,249.7L310.8,249.7L310.8,249.7L310.8,249.7L310.8,249.7L310.8,249.7L310.8,249.7L310.8,249.7L310.8,249.7
			L310.8,249.7L310.8,249.7L310.8,249.7L310.8,249.7L310.8,249.7L310.8,249.7L310.8,249.7L310.8,249.7L310.8,249.7L310.8,249.7
			L310.8,249.7L310.8,249.7L310.8,249.7L310.8,249.7L310.8,249.7L310.8,249.7L310.8,249.7L310.8,249.7L310.8,249.7L310.8,249.7
			L310.8,249.7L310.8,249.7L310.8,249.7L310.8,249.7L310.8,249.7L310.8,249.7L310.8,249.7L310.8,249.7L310.8,249.7L310.8,249.7
			L310.8,249.7L310.8,249.7L310.8,249.7L310.8,249.7L310.8,249.7L310.8,249.7L310.8,249.7L310.8,249.7L310.8,249.7L310.8,249.7
			l-0.1,0.1l0,0l0,0l0,0h-0.1l0,0h-0.2l0,0l0,0l0,0l0,0l0,0l0,0l0,0l0,0l0,0l0,0l0,0l0,0l0,0l0,0l0,0l0,0l0,0l0,0l0,0l0,0l0,0l0,0
			l0,0l0,0l0,0l0,0l0,0l0,0l0,0l0,0l0,0l0,0l0,0l0,0l0,0l0,0l0,0l0,0l0,0l0,0l0,0l0,0l0,0l0,0l0,0l0,0v0l0,0l0,0l0,0
			c-0.2,0.5-0.4,0.9-0.7,1.4l-1.6-0.8c1.1-2.2,2-4.6,2.4-7L310.8,249.7z M302.6,261.8l0.8,1.6c-1.8,0.9-3.9,0.7-6.1,0.1h-0.4
			c-0.4-0.1-0.8-0.2-1.2-0.4l0.5-1.7C298.5,262,300.9,262.6,302.6,261.8L302.6,261.8z M288.3,259.1l-0.3,1.8l-0.4-0.1h-0.1
			c-0.9-0.1-1.8-0.1-2.6,0h-0.4c-1.4,0.3-2.8,0.8-4,1.5l-0.8-1.6c1.5-0.8,3.1-1.4,4.8-1.8C285.7,258.8,287,258.9,288.3,259.1
			L288.3,259.1z M272.8,265.1l0.9,1.5c-0.5,0.3-1.1,0.6-1.6,0.8l0,0l-0.1,0h-0.8l0,0h-0.2h0l0,0h-0.1l0,0h-0.1l0,0l-0.2,0.1l0,0
			c-1.4,0.4-2.9,0.2-4.2-0.5l0.8-1.6C268.6,266.8,270.3,266.5,272.8,265.1L272.8,265.1z M257.9,254.8c1,2.3,2.3,4.4,3.8,6.3
			l-1.4,1.1c-0.7-0.9-1.4-1.8-2-2.8l0,0c0-0.1-0.1-0.1-0.1-0.2l0,0v-0.1l0,0l0,0l0,0l0,0l0,0l0,0l0,0l0,0l0,0l0,0l0,0l0,0l0,0l0,0
			l0,0l0,0l0,0l0,0l0,0l0,0l0,0l0,0l0,0l0,0l0,0l0,0l0,0l0,0l0,0l0,0l0,0l0,0l0,0l0,0l0,0v0l0,0l0,0l0,0l0,0l0,0l0,0l0,0l0,0l0,0
			l0,0l0,0l0,0l0,0l0,0l0,0l0,0l0,0l0,0l0,0l0,0l0,0l0,0l0,0l0,0l0,0l0,0l0,0l0,0l0,0l0,0l0,0l0,0l0,0l0,0l0,0l0,0l0,0l0,0l0,0l0,0
			l0,0l0,0l0,0l0,0l0,0l0,0l0,0l0,0l0,0l0,0l0,0l0,0l0,0l0,0l0,0l0,0l0,0l0,0l0,0l0,0l0,0l0,0l0,0l0,0l0,0l0,0l0,0l0,0l0,0l0,0l0,0
			l0,0l0,0l0,0h-0.1l0,0h0l0,0h-0.2l0,0l0,0l0,0l0,0l0,0l0,0l0,0l0,0l0,0l0,0l0,0l0,0l0,0l0,0l0,0l0,0l0,0l0,0l0,0l0,0l0,0l0,0l0,0
			l0,0l0,0l0,0l0,0l0,0l0,0l0,0c-0.1-0.2-0.2-0.5-0.3-0.7L257.9,254.8z M256,240.2c-0.4,2.5-0.4,5-0.1,7.4l-1.8,0.2
			c-0.3-2.6-0.3-5.3,0.1-7.9L256,240.2z M260.7,225.7l1.3,1.1c-0.2,0.2-0.4,0.5-0.6,0.7c-1.3,1.7-2.4,3.5-3.3,5.5l-1.6-0.7
			c0.2-0.5,0.5-1.1,0.8-1.6l0,0v-0.1l0,0v-0.1l0,0v-0.1l0,0v-0.1l0,0v0l0,0l0,0l0,0l0,0l0,0l0,0l0,0l0,0l0,0l0,0l0,0l0,0h0.2l0,0
			l0,0l0,0h0.2l0,0l0,0l0,0h0.1l0,0l0,0l0,0l0,0l0,0l0,0l0,0l0,0l0,0l0,0l0,0l0,0l0,0l0,0l0,0l0,0l0,0h0.1l0,0l0,0l0,0l0,0l0,0l0,0
			l0,0l0,0l0,0l0,0l0,0l0,0l0,0l0,0l0,0l0,0l0,0l0,0l0,0l0,0l0,0l0,0l0,0h1.2l0,0l0,0l0,0l0,0l0,0l0,0l0,0h0.1l0,0l0,0l0,0l0,0l0,0
			h0.2l0,0l0,0l0,0h0.1l0,0h0.2l0,0h0.1l0,0h0.1l0,0l0,0l0,0h0.2l0,0h0.2l0,0l0,0l0,0l0,0L260.7,225.7z M273.6,216.9l0.6,1.7
			c-2.4,0.8-4.6,1.9-6.6,3.3l-1-1.5c0.5-0.4,1.1-0.7,1.6-1l0,0l0,0l0,0l0,0l0,0l0,0h1l0,0h0l0,0l0,0l0,0l0,0l0,0l0,0l0,0l0,0l0,0
			l0,0h0.1l0,0h0.1l0,0c0.6-0.3,1.2-0.6,1.9-0.9l0,0l0.2-0.1l0,0l0,0l0,0h0.1h0.1l0,0h0.1l0,0h1.4l0,0l0,0L273.6,216.9z
			 M289.3,216.2l-0.4,1.8c-2.4-0.6-4.9-0.8-7.4-0.7l-0.1-1.8c0.6,0,1.2,0,1.8,0h6.1L289.3,216.2z M300.3,221.5l-1.1,1.4
			c-1.1-0.9-2.3-1.6-3.5-2.3l0.9-1.5c1,0.6,1.9,1.2,2.9,1.8l0,0l0,0l0,0l0,0l0,0l0,0l0,0l0,0l0,0l0,0l0,0l0,0h0l0,0l0,0l0,0h0.6
			L300.3,221.5z"/>
	</g>
</g>
<polygon class="st8" points="-42.1,677.9 384.8,676.3 458.3,294.9 442.5,265.3 -109.1,493.7 "/>
<path class="st9" d="M318.1,420.4h4.5c0,0,2.5,39.6,4.6,41.3l-4.2-0.3C323,461.4,317.4,422.6,318.1,420.4z"/>
<path class="st10" d="M500.7,229.4c-3.9,7.7-7.2,15.6-9.9,23.8c-2,6.4,8,9.2,10.1,2.8c2.3-7.3,5.3-14.5,8.8-21.3
	C512.8,228.7,503.8,223.4,500.7,229.4L500.7,229.4z"/>
<path class="st11" d="M585.7,104.9l-63,77.3l30.4,25.3c0,0,10.5,8.1,18.8-3.4l19.7-18.3L585.7,104.9z"/>
<polygon class="st12" points="527,191.8 550.7,210.3 553.5,207.6 529.3,187.6 "/>
<path class="st13" d="M497,285.4l0.3,0.3c1.1-0.9,1.3-2.5,0.4-4.8c-0.2-0.5-0.5-0.9-0.8-1.3c-0.6-0.7-1.2-1.4-1.8-2
	C497.1,280,498.9,283.2,497,285.4z"/>
<path class="st14" d="M496.8,285.6c-0.8,0.7-1.8,1.1-2.9,0.9c0.3,0.1,0.6,0.2,0.9,0.2c0.6-0.2,1.3-0.4,1.8-0.7
	c0.2-0.1,0.5-0.3,0.7-0.4l-0.3-0.3C496.9,285.5,496.8,285.5,496.8,285.6z"/>
<path class="st13" d="M486,244.6c-1.4,0-2.7,0.8-3.3,2.1l-0.4,0.8c-0.3,0.6-0.4,1.3-0.3,2l6.4-4.1
	C487.8,244.9,486.9,244.6,486,244.6z"/>
<path class="st15" d="M495.1,277.5c-1-1.2-2-2.2-3.1-3.3c-0.4-0.4-0.8-0.9-1-1.4l-0.1-0.3l-5,3l-5,3l0.5,0.6c0.3,0.4,0.6,0.6,1,0.9
	l9.3,5.4c0.5,0.2,1,0.5,1.5,0.7c0.2,0.1,0.5,0.2,0.8,0.3c1,0.1,2.1-0.2,2.9-0.9c0.1-0.1,0.1-0.2,0.2-0.2
	C498.9,283.2,497.1,280,495.1,277.5z"/>
<path class="st15" d="M491.6,285.5l0.9,0.5c0.4,0.3,0.9,0.4,1.4,0.5c-0.3-0.1-0.6-0.3-0.8-0.3C492.6,286,492.1,285.8,491.6,285.5z"
	/>
<path class="st16" d="M489.9,270.2l-0.1-0.2c-1.4,1.2-2.6,2.3-3.8,3.3L489.9,270.2z"/>
<path class="st15" d="M481,275c-0.6,0.5-1.4,0.9-2.2,1.1l1.5,1.8l4.3-3.4l-1.7-1.4c-0.1,0.3-0.3,0.5-0.5,0.7L481,275z"/>
<path class="st15" d="M482.1,249.6l-14.2,9.1l14.2-9C482.1,249.7,482.1,249.6,482.1,249.6z"/>
<path class="st16" d="M478,261.5l6.2-6.2l-0.1-0.1C482.1,257.3,480,259.4,478,261.5z"/>
<path class="st16" d="M465.9,259.9L465.9,259.9l-3.3,2.1c0.2-0.1,0.4-0.2,0.6-0.3L465.9,259.9z"/>
<path class="st15" d="M472,267.6L472,267.6l-0.3,0.1l0.1,0.1L472,267.6z"/>
<path class="st15" d="M478,261.5l-6.1,6l0.1,0.1L478,261.5z"/>
<polygon class="st16" points="467.8,258.7 465.9,259.9 465.9,259.9 "/>
<path class="st16" d="M480.2,277.9L480.2,277.9L480.2,277.9L480.2,277.9z"/>
<path class="st15" d="M472.3,272.4c0.1,0.7,0.3,1.3,0.7,1.8l0,0c1.4,1.7,3.6,2.4,5.7,1.8l-3.7-4.7L472.3,272.4z"/>
<path class="st15" d="M479.3,269.9l3.6,3.2c0.3-0.7,0.2-1.5-0.3-2.1l-2.5-3.1c-1-1.2-2.9-1.4-4.1-0.4l-2.5,2.1l1.5,1.9L479.3,269.9z
	"/>
<path class="st17" d="M281.4,435.6c0,0,10.8-0.8,18.4-4.5C296,433.6,291.4,436.7,281.4,435.6z"/>
<path class="st15" d="M307.3,405.7l-3.6,15.7c0,0,12.3,0,14.3-1l-0.9-10.6l-6.8-6.7L307.3,405.7z"/>
<path class="st15" d="M310.9,406.1c0,0,12.3,9.2,18.4,7.2c0,0,4.1-2,4.1-12.3c0,0,0-15.3-3.1-16.4l-18.4-2l-9.2,11.2L310.9,406.1z"
	/>
<path class="st18" d="M310.4,402.5c0,0-0.7,0-2-2.2c-0.9-1.5-1.2-3.3-0.7-5c0.7-2.1,2.5-4,7.9-1c0,0,1-6.1,9.2-8.2
	c0,0,7.2,0,8.2-4.1c0,0-6.1-10.2-17.4-8.2c0,0,3.6-4.5-1.1-13.6c-0.7-1.3-1.8-2.3-3.2-2.8c-1.6-0.5-3.8-0.7-4.9,1
	c0,0-5.1-6.1-10.2,1c0,0-7.2,1-5.1,9.2c0,0,1,10.2,8.2,11.3c0,0-6.1,11.2-3.1,19.4c0,0,1,5.1,7.2,6.1
	C303.2,405.6,309.4,407.6,310.4,402.5z"/>
<path class="st19" d="M317.1,412.7c0,0-4.1-0.4-6.2-6.6c0,0,4.8,5.1,5.5,4.6C317,410.2,317.1,412.7,317.1,412.7z"/>
<path class="st19" d="M317.1,410.1c0,0-5.2-3-6.2-4.1c0,0,1.9,5.6,6.6,6.9L317.1,410.1z"/>
<polygon class="st18" points="315.5,394.7 318,395.8 319.1,395.8 318,394.8 "/>
<circle class="st20" cx="323.9" cy="395.1" r="4.9"/>
<ellipse class="st20" cx="332.6" cy="394.8" rx="2.8" ry="4.6"/>
<path class="st21" d="M328.8,395.3"/>
<path class="st21" d="M323.4,394c0,0.1,0,0.1,0.1,0.1c0,0,0.1-0.1,0.1-0.1c0-0.1,0-0.1-0.1-0.1C323.4,393.9,323.4,394,323.4,394z"/>
<circle class="st18" cx="332.1" cy="394" r="0.8"/>
<polygon class="st22" points="342.6,665.8 352.8,667.8 356.9,661.7 347.7,591.1 336.4,502.2 311.9,545.1 316,570.7 "/>
<path class="st23" d="M292.5,502.2c0,0,27.4,3.6,43.8,0.2L316,570.7l-8.2,19.4l-34.8,71.6l-5.1,5.1l-10.2,2l-2-3.1l29-82
	c0.4-1.2,0.7-2.5,0.8-3.8l4-73.7L292.5,502.2z"/>
<path class="st24" d="M325.2,405c0,0,5.1,2,6.1,2C331.3,407.1,326.2,409.1,325.2,405z"/>
<path class="st25" d="M303.7,420.4c0,0,4.1,2,14.3,0l1.4,3.4l4.7,17l14.3,52.1c0,0,4.1,8.2,0,9.2c0,0-30.7,3.1-35.8,1L303.7,420.4z"
	/>
<polygon class="st23" points="311.8,421.6 311.9,425.5 317,425.5 315,421.4 "/>
<path class="st23" d="M315.9,478l5.1,10.2l6.1-7.2c0,0,0.1-37.8-11.7-56.2l-2.6,0.2C312.9,425,322.1,465.7,315.9,478z"/>
<polygon class="st26" points="288.5,496.2 298.7,491.1 298.7,496.2 "/>
<polygon class="st27" points="285.3,462.9 295.3,447 285.3,454.6 "/>
<polygon class="st27" points="285.3,464.3 299.6,482.7 284.3,473.5 "/>
<polygon class="st27" points="293.5,508 302.7,488.6 295.6,499.1 "/>
<path class="st27" d="M283.9,488.7c0,0,13.3,6.3,12.3,10.4l-1.5,7.1C294.7,506.2,299.2,498.8,283.9,488.7z"/>
<path class="st28" d="M284.8,497.7c0,0,5.6,7.5,10.7,1.4l-5.1-4.1c0,0-1.1,3.1-5.2,1L284.8,497.7z"/>
<polygon class="st29" points="267.2,450.3 295.2,432.3 277.7,433.9 "/>
<path class="st29" d="M311.9,421.4c0,0-29.6,22.5-44,12.3C267.9,433.7,274.1,420.4,311.9,421.4z"/>
<path class="st30" d="M281.2,521.6l16.4-9.2c0,0,6.1-1,9.2-30.6c0,0,0-37.8-1-43.9l-2.1-17.3c0,0-6.1,3.1-11.2,12.2
	c0,0-7.2,12.2-7.2,24.5L281.2,521.6z"/>
<path class="st31" d="M311.9,421.4c0,0-29.6,22.5-44,12.3C267.9,433.7,274.1,420.4,311.9,421.4z"/>
<path class="st32" d="M291,420.7c-6-1.4-17.7,6.2-22.8,11.5c-9.4,9.7-44.3,25.7-59.6,52c-20.7,35.8-54.7,5.2-73.1,32.8
	c13.3,1.4,27.5,17.8,30.2,41.3c2.7,23.5,24.3,37.2,38.5,36.3c14.2-0.9,48,33.4,60,0.7c8.9-24.3,29.2-115,27.6-158.1
	c-0.7-19.1-5.8-3-1.2-14L291,420.7z"/>
<path class="st33" d="M290.6,423.3c-6-1.4-16.6,16.4-21.7,21.9c-10.4,11.3-40.1,57.2-55.3,83.5c-20.7,35.8-54.5-34.6-74.7-13.5
	c13.3,1.4,24.4,19.5,27.1,43.1s24.3,37.2,38.5,36.3c14.2-0.9,48,33.4,60,0.7c8.9-24.3,29.2-118.3,27.6-161.4
	C291.4,414.8,302.3,426,290.6,423.3L290.6,423.3z"/>
<path class="st34" d="M290.6,423.3c-6-1.4-16.6,16.4-21.7,21.9c-10.4,11.3-40.1,57.2-55.3,83.5c-20.7,35.8-54.5-34.6-74.7-13.5
	c13.3,1.4,24.4,19.5,27.1,43.1s24.3,37.2,38.5,36.3c14.2-0.9,48,33.4,60,0.7c8.9-24.3,29.2-118.3,27.6-161.4
	C291.4,414.8,302.3,426,290.6,423.3L290.6,423.3z"/>
<path class="st33" d="M290.6,423.3c-6-1.4-16.6,16.4-21.7,21.9c-10.4,11.3-40.1,57.2-55.3,83.5c-20.7,35.8-54.5-34.6-74.7-13.5
	c13.3,1.4,24.4,19.5,27.1,43.1s24.3,37.2,38.5,36.3c14.2-0.9,48,33.4,60,0.7c8.9-24.3,29.2-118.3,27.6-161.4
	C291.4,414.8,302.3,426,290.6,423.3L290.6,423.3z"/>
<path class="st35" d="M290.6,423.3c-6-1.4-16.6,16.4-21.7,21.9c-10.4,11.3-40.1,57.2-55.3,83.5c-20.7,35.8-54.5-34.6-74.7-13.5
	c13.3,1.4,24.4,19.5,27.1,43.1s24.3,37.2,38.5,36.3c14.2-0.9,48,33.4,60,0.7c8.9-24.3,29.2-118.3,27.6-161.4
	C291.4,414.8,302.3,426,290.6,423.3L290.6,423.3z"/>
<path class="st33" d="M166,558.2c0,0,19.3,26.1,56.5-19.4c0,0-30.9,49.9-53.2,32.1C169.3,570.9,167.6,567.5,166,558.2z"/>
<path class="st33" d="M204.7,594.5c0,0,29-23.6,48.3-76.7c0,0-25.4,79.3-44.4,77.6C189.6,593.6,204.7,594.5,204.7,594.5z"/>
<path class="st36" d="M166,558.2c0,0,19.3,26.1,56.5-19.4c0,0-30.9,49.9-53.2,32.1C169.3,570.9,167.6,567.5,166,558.2z"/>
<path class="st36" d="M204.7,594.5c0,0,29-23.6,48.3-76.7c0,0-25.4,79.3-44.4,77.6C189.6,593.6,204.7,594.5,204.7,594.5z"/>
<path class="st37" d="M311.9,421.4c0,0-19.3,12.6-43.9,10.4c-0.9-0.1-1.5-0.8-1.4-1.7c0-0.2,0.1-0.4,0.2-0.6
	c2.3-4.2,10.5-13,38-12.2c0,0-10.3,1.6-14.9,5.5c-0.3,0.2-0.3,0.7-0.1,0.9c0.2,0.2,0.4,0.3,0.6,0.2c3.3-0.9,9.7-2.5,11.2-2.5
	L311.9,421.4z"/>
<path class="st38" d="M311.9,421.4c0,0-19.3,12.6-43.9,10.4c-0.9-0.1-1.5-0.8-1.4-1.7c0-0.2,0.1-0.4,0.2-0.6
	c2.3-4.2,10.5-13,38-12.2c0,0-10.3,1.6-14.9,5.5c-0.3,0.2-0.3,0.7-0.1,0.9c0.2,0.2,0.4,0.3,0.6,0.2c3.3-0.9,9.7-2.5,11.2-2.5
	L311.9,421.4z"/>
<path class="st39" d="M290.6,423.3c-6-1.4-16.6,16.4-21.7,21.9c-10.4,11.3-40.1,57.2-55.3,83.5c-20.7,35.8-54.5-34.6-74.7-13.5
	c13.3,1.4,24.4,19.5,27.1,43.1s24.3,37.2,38.5,36.3c14.2-0.9,48,33.4,60,0.7c8.9-24.3,29.2-118.3,27.6-161.4
	C291.4,414.8,302.3,426,290.6,423.3L290.6,423.3z"/>
<path class="st37" d="M304.8,417.3c0,0-21.8-3.8-35.2,11.4c-0.4,0.5-0.4,1.3,0.1,1.7c0.2,0.2,0.5,0.3,0.8,0.3
	c13.3,0.2,26.4-2.6,38.4-8.3l1.4-0.7c0,0-14.4,2.4-21.4,1.9c-0.4,0-0.7-0.3-0.7-0.6c0-0.2,0.1-0.4,0.3-0.6
	C292.9,418.5,298.8,416.7,304.8,417.3z"/>
<path class="st30" d="M300.7,428.4c0,0-35.9,17.2-48.1,36.6c-12.3,19.4,53.2,18.4,42.9,40.9l8.6-16.3c0,0-20.8-21.5-29-20.5
	l8.8-10.2l10.6-12.3L300.7,428.4z"/>
<path class="st15" d="M291.9,493.5c0,0-0.1,2.2-4.2,1.2c-3.3-0.8,0,5,1.5,7.2c0.4,0.7,1,1.2,1.7,1.5c1.9,0.9,5.8,2.1,8-1.7
	c0,0,1.3-1.5,5.1-14.3c0,0-4.7,7.4-6.1,9.2C297.9,496.8,296,500.2,291.9,493.5z"/>
<path class="st40" d="M256.6,665.4c-0.9,2.4-1.4,4.2-1.4,5.4c0.1,2.1,0.3,4.3,0.7,6.4h45.7c1.2-3.9,0.5-6-2.1-6.4
	c-2.6-0.3-4.7-0.6-6.4-0.8l-18.6-9.5c-0.4-0.2-0.9,0-1.1,0.4l0,0l-4,3.3c-2.4,1.1-4.3,1.7-5.8,1.7c-1.2,0-2.9-0.5-5-1.5l0,0
	C258,664.1,257.1,664.5,256.6,665.4C256.7,665.3,256.7,665.3,256.6,665.4z"/>
<path class="st40" d="M339.4,664.5c-0.9,2.4-1.4,4.2-1.4,5.4c0.1,2.1,0.3,4.3,0.7,6.4h45.7c1.2-3.9,0.5-6-2.1-6.4
	c-2.6-0.3-4.7-0.6-6.4-0.8l-18.6-9.5c-0.4-0.2-0.9,0-1.1,0.4l0,0l-4,3.3c-2.4,1.1-4.3,1.7-5.8,1.7c-1.2,0-2.9-0.5-5-1.5l0,0
	C340.8,663.2,339.9,663.6,339.4,664.5C339.5,664.4,339.5,664.4,339.4,664.5z"/>
<path class="st41" d="M385.1,673.1c0,1.1-0.2,2.1-0.6,3.2h-45.7c-0.2-1.2-0.4-2.2-0.5-3.2H385.1z"/>
<polygon class="st27" points="292.3,454.1 298.1,444.9 292.3,449.3 "/>
<polygon class="st27" points="290.9,471.6 299.2,482.2 290.3,476.9 "/>
<path class="st27" d="M287.5,490.3c1.7,0.6,3.4,1.3,4.9,2.3c0.5,0.3,5.6,3.5,5,4.9c-0.2,0.4-0.8,0.8-3.3,0.7
	c-0.2-0.4-0.4-0.9-0.7-1.3C292,494.3,289.9,492,287.5,490.3z"/>
<path class="st13" d="M480.2,277.9L480.2,277.9L480.2,277.9L480.2,277.9z"/>
<path class="st13" d="M486,244.6c-1.4,0-2.7,0.8-3.3,2.1l-0.4,0.8c-0.3,0.6-0.4,1.3-0.3,2l6.4-4.1
	C487.8,244.9,486.9,244.6,486,244.6z"/>
<path class="st13" d="M471.7,267.7l0.1,0.1l0.2-0.2l6-6.1l-6.1,6L471.7,267.7z"/>
<path class="st13" d="M489.9,270c-1.4,1.2-2.6,2.3-3.8,3.3l3.9-3.1L489.9,270z"/>
<path class="st13" d="M478,261.5l6.2-6.2l-0.1-0.1C482.1,257.3,480,259.4,478,261.5z"/>
<path class="st13" d="M482.1,249.6l-14.2,9.1l14.2-9C482.1,249.7,482.1,249.6,482.1,249.6z"/>
<path class="st42" d="M507.8,256.8c-0.4,0.1-0.7,0.4-1,0.6c-1.7,1.1-4,2.6-6.8,4.5c-4.1,2.9-7.4,5.6-10.2,8l0.1,0.2l-3.9,3.1
	l-1.4,1.2c-1.4,1.2-2.8,2.4-4.4,3.4l-0.1,0.1c-1.8,1.1-3.4,1.6-5.1,1.1c-2.6-0.9-4.6-3-5.3-5.7c0-0.1,0-0.2-0.1-0.3
	c-0.3-1.7-0.1-3.3,0.7-4.2l1.2-1.2l0.2-0.2l6.1-6c2-2.1,4.1-4.2,6.2-6.3l0.1,0.1l4.5-4.4c1.4-1.4,1.5-3.7,0-5.2
	c-0.1-0.1-0.1-0.1-0.2-0.2l-6.4,4.1c0,0,0,0.1,0,0.1l-14.2,8.9l-2,1.3l-2.8,1.8c-0.2,0.1-0.4,0.2-0.6,0.3c-1.3,0.6-2.9,0.7-4.3,0.1
	c-3.1-1.2-6.3-2.2-9.5-2.9c-1.3-0.3-2.6-0.2-3.7,0.5l-14.9,7.9c-1.1,0.6-1.5,2-0.9,3c0,0.1,0.1,0.2,0.2,0.2l9.9,13.8l16,22.4
	l18.5-10.3c0.5-0.3,1-0.7,1.4-1.1c2.3-2.7,1.9-6.9,1.2-9.9c-0.6-2.2,0.4-4.6,2.4-5.8l2.1-1.3l5-3l5-3l51.6-31
	c0.1-0.1,0.2-0.1,0.3-0.2c9-6.2,4.6-13.1,1.1-16.7c-1-1-2.2-1.5-3.6-1.5c-2.7,4.4-4.7,9.1-5.9,14.2
	C534.4,237.3,534.1,246,507.8,256.8z"/>
<path class="st15" d="M550.7,210.3l-23.8-18.7l-9.1,7.1l-0.2,0.2c-13.8,10-29.1,17.2-40.6,24.3c-1.8,1.1-5.9,3.7-8.1,8.7
	c-0.3,0.6-0.4,1.1-0.5,1.4c-1.1,3.1-2,6.4-2.6,9.6c-0.8,4.6-1.2,9.2-1,13.9c-0.2,1,0.1,2,0.8,2.8l0.3,0.3l2-1.2l14.2-9.1
	c-0.1-0.7,0-1.4,0.3-2l0.4-0.8c0.6-1.3,1.9-2.1,3.3-2.1c0.9,0,1.7,0.3,2.4,0.9c1.5,1.3,1.7,3.6,0.4,5.2c-0.1,0.1-0.1,0.2-0.2,0.2
	l-4.5,4.4l-6.2,6.2l-6,6.1l-0.2,0.2l-0.1-0.1l-1.2,1.2c-0.8,0.8-1,2.5-0.7,4.2c0,0.1,0,0.2,0.1,0.3c0.7,2.7,2.7,4.8,5.3,5.7
	c1.7,0.5,3.3,0,5.1-1.1l0.1-0.1l0,0c1.5-1,3-2.2,4.4-3.4l1.4-1.2c1.1-1,2.4-2.1,3.8-3.3c2.8-2.4,6.1-5.1,10.2-8
	c2.7-2,5.1-3.5,6.8-4.5c0.3-0.3,0.6-0.5,1-0.6c26.3-10.8,26.6-19.5,26.6-19.5c1.2-5,3.2-9.8,5.9-14.2
	C543.2,218.4,546.7,214.1,550.7,210.3z"/>
<path class="st41" d="M302.1,674c0,1.1-0.2,2.1-0.6,3.2h-45.7c-0.2-1.2-0.4-2.2-0.5-3.2H302.1z"/>
</svg>
