<svg xmlns="http://www.w3.org/2000/svg" width="200.777" height="208.125" viewBox="0 0 200.777 208.125">
  <g id="Group_352" data-name="Group 352" transform="translate(0 0)">
    <g id="humaaans_sitting-4" data-name="humaaans/sitting-4" transform="translate(86.248 57.563)">
      <g id="A-Human_Sitting" data-name="A-Human/Sitting" transform="translate(114.529 150.256) rotate(180)">
        <g id="Head_Front_Curly" data-name="Head/Front/Curly" transform="matrix(0.966, 0.259, -0.259, 0.966, 26.501, 105.199)">
          <g id="Head" transform="translate(10.218 0)">
            <path id="Path_145" data-name="Path 145" d="M3.518,16.4A11.534,11.534,0,0,0,.45,24.683c.639,9.111,13.323,7.107,15.79,2.508s2.174-16.264-1.015-17.085c-1.272-.328-3.981.475-6.738,2.137L10.218,0H0Z" transform="translate(0)" fill="#b28b67" fill-rule="evenodd"/>
          </g>
          <path id="hair" d="M30.985,21.645a2.21,2.21,0,0,1-1.548,1.57,2.039,2.039,0,0,1-.569.057c-.069,0-.088-.023-.12.025a.63.63,0,0,0-.034.164,2.949,2.949,0,0,1-.871,1.506,3.8,3.8,0,0,1-2.284,1.08,3.329,3.329,0,0,1-1.373-.187,5.436,5.436,0,0,1-.666-.285c-.065-.033-.276-.192-.341-.182s-.217.191-.276.235a4.035,4.035,0,0,1-2.521.768,4.615,4.615,0,0,1-2.848-.679,5.7,5.7,0,0,1-.514-.427c-.086-.08-.169-.163-.248-.249q-.072-.078-.139-.16c-.076-.093-.064-.123-.17-.058a2.117,2.117,0,0,1-1.36.306,3.043,3.043,0,0,1-.821-.232c-.089-.038-.3-.19-.39-.192s-.3.139-.395.175a3.236,3.236,0,0,1-1.64.152,4.235,4.235,0,0,1-1.608-.632,2.162,2.162,0,0,1-.6-.542c-.07-.1-.133-.2-.213-.289-.047-.053-.139-.106-.164-.173a3.532,3.532,0,0,1-.682.3,1.679,1.679,0,0,1-.959-.036,3.814,3.814,0,0,1-1.512-1.075,4.294,4.294,0,0,1-.56-.752q-.114-.194-.209-.4a1.479,1.479,0,0,0-.092-.207c-.052-.076-.088-.078-.183-.111a2.95,2.95,0,0,1-1.257-.841,2.9,2.9,0,0,1-.65-1.379.7.7,0,0,0-.026-.17c-.024-.022-.121-.012-.158-.017a3.316,3.316,0,0,1-.378-.067,3.117,3.117,0,0,1-.664-.239,3.469,3.469,0,0,1-1.7-2.031,4.12,4.12,0,0,1,.064-2.82,2.755,2.755,0,0,1,.209-.413c.05-.081.066-.081.034-.165s-.1-.185-.146-.277a3.982,3.982,0,0,1-.3-.943,4.423,4.423,0,0,1-.052-1.63,2.353,2.353,0,0,1,.252-.715,2.052,2.052,0,0,1,.221-.32c.043-.052.089-.1.138-.148a.918.918,0,0,0,.087-.081c.057-.073.069-.013.04-.121A4.826,4.826,0,0,0,.6,8.3c-.059-.151-.112-.3-.161-.459A6.772,6.772,0,0,1,.2,6.88,3,3,0,0,1,.416,5.022,1.859,1.859,0,0,1,.942,4.4a1.952,1.952,0,0,1,.345-.21c.063-.03.143-.043.171-.1s-.015-.195-.025-.267A4.456,4.456,0,0,1,1.486,1.9,2.652,2.652,0,0,1,2.537.485,3.271,3.271,0,0,1,5.807.392a3.433,3.433,0,0,1,.73.5A2.409,2.409,0,0,1,9.067.378a3.635,3.635,0,0,1,2.309,1.908,1.538,1.538,0,0,1,2.444.321,2.037,2.037,0,0,1,.206.67c.017.122.006.245.019.367a1.894,1.894,0,0,0,.179.454,2.506,2.506,0,0,1,.19.9,4.593,4.593,0,0,1-.035.486,1.669,1.669,0,0,0,.05.427,1.952,1.952,0,0,0-.826.1,1.632,1.632,0,0,0-.639.449,3.728,3.728,0,0,0-.8,1.5,2.667,2.667,0,0,0,.983,3.271,6.168,6.168,0,0,0,2.892.153c.7-.158,1.49-1.7,1.529-1.844.024-.09.012-.2.094-.26.181-.131.479.1.613.209a2.418,2.418,0,0,1,.537.714,8.837,8.837,0,0,1,.737,1.807c.136.481.223.978.4,1.447a2.213,2.213,0,0,0,.89,1.149,7.838,7.838,0,0,0,1.531.62,3.8,3.8,0,0,1,1.417.778,1.958,1.958,0,0,1,.243.271c.056.078.111.226.2.276.132.077.324-.123.438-.2a5.063,5.063,0,0,0,1.409-1.4,8.705,8.705,0,0,0,.936-1.666,4.817,4.817,0,0,1,.629-1.389,2.655,2.655,0,0,1,1.584-.12,2,2,0,0,1,.864.748,1.162,1.162,0,0,1,.1.761c-.03.154-.092.3-.126.448a1.4,1.4,0,0,1-.116.363.894.894,0,0,1-.557.444,2.617,2.617,0,0,1,.6.816,3.5,3.5,0,0,1,.312,1.064,1.291,1.291,0,0,1-.173.829,2.181,2.181,0,0,1-.707.587,4.6,4.6,0,0,1,.985,1.072A3.348,3.348,0,0,1,30.985,21.645Z" transform="translate(0 11.921)" fill="#191847" fill-rule="evenodd"/>
        </g>
        <g id="Bottom_Sitting_Sweat-Pants" data-name="Bottom/Sitting/Sweat-Pants">
          <g id="Objects_Seat_Cube-2" data-name="Objects/Seat/Cube-2" transform="translate(0 2.555)">
            <path id="Seat" d="M6.812,52.794H55.774a6.812,6.812,0,0,0,6.812-6.812V6.812A6.812,6.812,0,0,0,55.774,0H6.812A6.812,6.812,0,0,0,0,6.812v39.17A6.812,6.812,0,0,0,6.812,52.794Zm6.812-11.921a1.7,1.7,0,0,1-1.7-1.7V13.624a1.7,1.7,0,0,1,1.7-1.7H48.962a1.7,1.7,0,0,1,1.7,1.7V39.17a1.7,1.7,0,0,1-1.7,1.7Z" fill="#c5cfd6" fill-rule="evenodd"/>
          </g>
          <path id="Skin" d="M64.873,0c-5.455,12.074-9.4,22.587-10.984,28.134-2.711,9.5-4.774,17.855-5.3,20.976-1.243,7.442,9.563,7.876,10.992,4.177,2.162-5.6,5.936-23.992,10.471-51.775ZM1.6,37.891c5.005,1.978,22.533,8.17,30.986,9.921,2.429.5,4.784.971,7,1.393,6.58,1.256,9.988-10.614,3.652-11.526C27.45,35.408,5.077,33.063,3.162,32.8.479,32.431-1.549,36.648,1.6,37.891Z" transform="translate(28.159 3.977)" fill="#b28b67" fill-rule="evenodd"/>
          <path id="Leg-Back" d="M27.073,42.246,0,56.028v3H3.22Q42.507,49.017,43.371,46.2q.009-.03.017-.061l.039-.052c5.191-7.139,8.3-41.99,9.32-44.6L42.8,0C39,14.109,26.823,23.938,27.146,40.835A5.536,5.536,0,0,0,27.073,42.246Z" transform="translate(44.705 14.203)" fill="#1f28cf" fill-rule="evenodd"/>
          <path id="Leg-Front" d="M21.408,10.76c-2.477.5-4.758.938-6.71,1.281C2.09,14.252-1.586,21,.587,35.726h23.23c3.795-1.09,23.516-9.36,33.748-13.759,6.772-2.911,4.637-13.406.8-16.138a.375.375,0,0,0-.213-.332C37.525-3.053,21.2,1.433,15.753,0L13.231,7.955Z" transform="translate(25.546 37.504)" fill="#2b44ff" fill-rule="evenodd"/>
          <g id="Accessories_Shoe_Flat-Sneaker" data-name="Accessories/Shoe/Flat-Sneaker" transform="matrix(0.438, -0.899, 0.899, 0.438, 25.567, 41.05)">
            <path id="shoe" d="M.714,6.215A9.142,9.142,0,0,1,0,3.361,21.363,21.363,0,0,1,.384,0H24.4q.936,3.095-1.081,3.341t-3.351.446L8.8,8.763a.426.426,0,0,1-.562-.216l0-.011L7.52,6.8a7.657,7.657,0,0,0-3.034-.871,6.871,6.871,0,0,0-2.619.766h0A.852.852,0,0,1,.738,6.271Q.725,6.244.714,6.215Z" transform="translate(0 0)" fill="#e4e4e4" fill-rule="evenodd"/>
          </g>
          <g id="Accessories_Shoe_Flat-Sneaker-2" data-name="Accessories/Shoe/Flat-Sneaker" transform="translate(89.835)">
            <path id="shoe-2" data-name="shoe" d="M.714,6.215A9.142,9.142,0,0,1,0,3.361,21.363,21.363,0,0,1,.384,0H24.4q.936,3.095-1.081,3.341t-3.351.446L8.8,8.763a.426.426,0,0,1-.562-.216l0-.011L7.52,6.8a7.657,7.657,0,0,0-3.034-.871,6.871,6.871,0,0,0-2.619.766h0A.852.852,0,0,1,.738,6.271Q.725,6.244.714,6.215Z" fill="#e4e4e4" fill-rule="evenodd"/>
          </g>
        </g>
        <g id="Body_Jacket" data-name="Body/Jacket" transform="translate(1.347 40.806)">
          <path id="Skin-2" data-name="Skin" d="M68.071,39.184,80.132,27.419a36.557,36.557,0,0,0,8.626-4.959c.5-.608,1.053-1.773-1.319-1.252s-4.89.963-5.335.192.868-1.953.044-2.962q-.824-1.009-5.541,6.421L64.065,32.253ZM14.538,37.525l8.9-.035q-8.24-26.6-8.9-28.229c-.985-2.442,1.1-6.16,1.991-8.158-2.9-1.3-2.594,3.513-6.257,1.808C6.928,1.356,4.385-1.463.522.921c-.475.293-1,1.4.262,2.259,3.133,2.148,7.647,5.907,8.257,7.145Q10.289,12.855,14.538,37.525Z" transform="translate(0 0)" fill="#b28b67" fill-rule="evenodd"/>
          <path id="Coat-Back" d="M0,54.639l3.613.95q11.542-22.832,36.834-40.1L29.821,0C12.483,16.979,1.129,35.068,0,54.639Z" transform="translate(35.06 20.428) rotate(-5)" fill="#191847" fill-rule="evenodd"/>
          <path id="Shirt" d="M0,0H32.783Q21.391,27.7,21.391,47.063L11.5,48.536C3.73,36.037,1.535,20.647,0,0Z" transform="translate(23.773 28.593)" fill="#dde3e9" fill-rule="evenodd"/>
          <path id="Coat-Front" d="M26.194,62.58l0,.007h.646q1.159-.04,3.53-.144l2.39-6.829q.379-12.489,4.428-50.337H15.7q.085-2.614.279-5.277H0Q3.585,40.449,26.186,62.586Z" transform="translate(8.872 14.543)" fill="#2f3676" fill-rule="evenodd"/>
          <path id="Shade" d="M1.485,22.466Q2.4,6.171,6.078,0H.071A112.332,112.332,0,0,0,1.485,22.466Z" transform="translate(24.507 19.652)" fill="rgba(0,0,0,0.1)" fill-rule="evenodd"/>
          <path id="Light" d="M0,0,10.6,4.926V0Z" transform="translate(29.355 32.85)" fill="rgba(255,255,255,0.2)" fill-rule="evenodd"/>
        </g>
      </g>
    </g>
    <g id="humaaans_standing-3" data-name="humaaans/standing-3" transform="translate(0 0)">
      <g id="humaaan-12">
        <g id="Head_Front_Pony" data-name="Head/Front/Pony" transform="matrix(0.966, 0.259, -0.259, 0.966, 24.692, 0)">
          <g id="Head-2" data-name="Head" transform="translate(23.251 5.442)">
            <path id="Path_146" data-name="Path 146" d="M4.087,17.063A13.4,13.4,0,0,1,.523,7.433C1.266-3.154,16-.825,18.87,4.519s2.526,18.9-1.179,19.852c-1.478.381-4.625-.552-7.829-2.483l2.011,14.226H0Z" transform="translate(0 0)" fill="#d4a181" fill-rule="evenodd"/>
          </g>
          <path id="hair-2" data-name="hair" d="M31.448,21.76c-1.472,2.826-3.509,4.954-5.543,4.954-3.864,0-6.611-5.166-6.611-10.721q0-.293.011-.581c-4.087,2.8-7.238,8.334-12.646,8.334C-.7,23.746-3.621,8.9,6.659,8.9c6.991,0,10.43,1.019,13.394,2.527a9.628,9.628,0,0,1,2.566-4A3.988,3.988,0,0,1,23.8,6.591a5.48,5.48,0,0,1,.982-.421,24.648,24.648,0,0,1,7.268-1.221c.54-.019,1.07-.024,1.588-.017a4.947,4.947,0,1,1,5.215,4.956,24.969,24.969,0,0,1-5.534.941,10.317,10.317,0,0,1,.319,2.654,15.005,15.005,0,0,1-.276,2.76,2.311,2.311,0,0,0-1.7-.905A2.967,2.967,0,0,0,28.693,18.3C28.693,20.244,29.813,21.648,31.448,21.76Z" transform="translate(0 0)" fill="#191847" fill-rule="evenodd"/>
        </g>
        <g id="Bottom_Standing_Sweatpants" data-name="Bottom/Standing/Sweatpants" transform="translate(0 89.89)">
          <path id="Leg" d="M133.491,0l18.122,62.445,8.523,46.885h8.555L160.151,0Z" transform="translate(-111.723 0)" fill="#ba8b72" fill-rule="evenodd"/>
          <path id="Leg-2" data-name="Leg" d="M102.632,0c1.264,32.44.766,50.134.483,53.081s-1.89,22.687-12.838,57.239h8.9c14.5-33.147,19.56-52.886,21.223-57.239S126.972,31.035,134.142,0Z" transform="translate(-89.009)" fill="#d4a181" fill-rule="evenodd"/>
          <path id="Pant" d="M132.671,0q7.071,32.231,24.458,102.9h12.513c.924-48.356-3.007-80.182-9.816-102.9Z" transform="translate(-111.292 0)" fill="#69a1ac" fill-rule="evenodd"/>
          <path id="Pant-2" data-name="Pant" d="M102.989,0c1.238,32.44-1.971,64.4-11.912,103.4h13.35A438.219,438.219,0,0,0,136.478,0Z" transform="translate(-89.429)" fill="#89c5cc" fill-rule="evenodd"/>
          <g id="Accessories_Shoe_Flat-Simple" data-name="Accessories/Shoe/Flat-Simple" transform="translate(0 107.846)">
            <path id="Shoe-3" data-name="Shoe" d="M0,28.72.491,20.8q4.312,1.261,10.8-.989,6.978,4.943,17.568,6.75h0a.989.989,0,0,1,.785,1.245L28.967,30.2H.982Z" transform="translate(0 -19.815)" fill="#191847" fill-rule="evenodd"/>
          </g>
          <g id="Accessories_Shoe_Flat-Simple-2" data-name="Accessories/Shoe/Flat-Simple" transform="translate(46.503 107.846)">
            <path id="Shoe-4" data-name="Shoe" d="M0,28.72.491,20.8q4.312,1.261,10.8-.989,6.978,4.943,17.568,6.75h0a.989.989,0,0,1,.785,1.245L28.967,30.2H.982Z" transform="translate(0 -19.815)" fill="#191847" fill-rule="evenodd"/>
          </g>
        </g>
        <g id="Body_Pointing-Forward" data-name="Body/Pointing-Forward" transform="translate(21.168 34.283) rotate(10)">
          <path id="Skin-3" data-name="Skin" d="M0,17.519l17.171-9.4a42.477,42.477,0,0,1,8.44-7.9c.847-.354,2.328-.568.943,1.891S23.823,7.21,24.529,7.967s2.465-.3,3.307.958q.842,1.258-9.017,3.975L6.341,24.325Zm26.893,7.935,7.543-4.143q1.587-6.041,3.8-6.078c1.131-.526-.838,4.562,1.305,4.121s7.375-4.332,8.276-3.542c1.334,1.169.144,4.758-1.257,6.543-2.619,3.337-4.787,4.478-10.145,5.972a29.459,29.459,0,0,0-9.088,4.7Z" transform="translate(40.276 3.606)" fill="#d4a181" fill-rule="evenodd"/>
          <path id="Sleeve" d="M2.723,3.148A42.192,42.192,0,0,0,26.1,0l2.147,7.928c-6.747,4.863-15.7,8.318-22.834,6.982A6.557,6.557,0,0,1,2.723,3.148Z" transform="translate(28.731 16.346) rotate(-9)" fill="#2026a2" fill-rule="evenodd"/>
          <path id="Clothes" d="M40.012,31.048q9.578,2.389,32.122-5.634,5.592,11.569,5.17,16.5c-12.893,6.735-23.944,9.738-33.048,9.936a31.331,31.331,0,0,1-2.577,15.239c-4.541,9.656-31.131.713-40.072,2.474-5.6-18.183,5.227-25.572,5.235-37.207C6.852,19.611,17.083,0,18.588,0H32.314C33.072,9.73,36.884,20.454,40.012,31.048Z" transform="translate(0 0)" fill="#1f28cf" fill-rule="evenodd"/>
        </g>
      </g>
    </g>
  </g>
</svg>
