<?xml version="1.0" encoding="utf-8"?>
<!-- Generator: Adobe Illustrator 23.0.1, SVG Export Plug-In . SVG Version: 6.00 Build 0)  -->
<svg version="1.1" id="Layer_1" xmlns="http://www.w3.org/2000/svg" xmlns:xlink="http://www.w3.org/1999/xlink" x="0px" y="0px"
	 viewBox="0 0 595.3 841.9" style="enable-background:new 0 0 595.3 841.9;" xml:space="preserve">
<style type="text/css">
	.st0{opacity:0.34;}
	.st1{opacity:0.94;}
	.st2{opacity:0.74;fill:#010101;enable-background:new    ;}
	.st3{opacity:0.74;fill:#ADAEAD;enable-background:new    ;}
	.st4{fill:#ADAEAD;fill-opacity:0;}
	.st5{fill-rule:evenodd;clip-rule:evenodd;fill:#F8AF84;}
	.st6{fill:#FFFFFF;stroke:#010101;stroke-miterlimit:10;}
	.st7{fill-rule:evenodd;clip-rule:evenodd;fill:#766AB0;}
	.st8{fill-rule:evenodd;clip-rule:evenodd;fill:#212121;}
	.st9{opacity:0.4;fill-rule:evenodd;clip-rule:evenodd;fill:#010101;enable-background:new    ;}
	.st10{fill-rule:evenodd;clip-rule:evenodd;fill:#2A2357;}
	.st11{opacity:0.36;fill-rule:evenodd;clip-rule:evenodd;fill:#010101;enable-background:new    ;}
	.st12{fill:none;}
	.st13{fill-rule:evenodd;clip-rule:evenodd;fill:#EDF2FA;}
	.st14{fill:#2A2357;}
	.st15{fill:#2E3364;}
	.st16{fill-rule:evenodd;clip-rule:evenodd;fill:#2F3776;}
	.st17{fill-rule:evenodd;clip-rule:evenodd;fill:#FFFFFF;fill-opacity:0.2;}
	.st18{fill-rule:evenodd;clip-rule:evenodd;fill:#BA8364;}
	.st19{fill-rule:evenodd;clip-rule:evenodd;fill:#ADAEAD;}
	.st20{fill-rule:evenodd;clip-rule:evenodd;fill:#989898;}
	.st21{fill-rule:evenodd;clip-rule:evenodd;fill:#3D4386;}
	.st22{fill:none;stroke:#212121;stroke-miterlimit:10;}
	.st23{fill:#212121;}
	.st24{fill:#EDF2FA;}
	.st25{fill:none;stroke:#00AE81;stroke-width:2;stroke-linecap:square;stroke-miterlimit:10;}
	.st26{fill:#00AE81;}
	.st27{fill:#08924F;}
	.st28{fill:#2E2723;}
	.st29{fill:#63210E;}
	.st30{fill:#E2D9EC;}
	.st31{fill:#975845;}
	.st32{fill:#FCC49D;}
	.st33{fill:#212121;stroke:#212121;stroke-width:0.5;stroke-miterlimit:10;}
	.st34{fill:#010101;}
	.st35{fill:#D4A280;}
	.st36{fill:#F4E470;stroke:#010101;stroke-miterlimit:10;}
	.st37{fill:#FFCF57;}
	.st38{fill:#E8A77C;}
	.st39{fill:#FFFFFF;}
	.st40{fill:#342821;}
	.st41{fill:#FFD774;}
	.st42{opacity:0.37;}
	.st43{fill:#F4E470;}
	.st44{fill:#EAA696;}
	.st45{fill:#51BD8D;}
	.st46{opacity:0.24;fill:#010101;enable-background:new    ;}
	.st47{fill:#CC8D81;}
	.st48{fill:#0DBCD4;}
	.st49{opacity:0.43;fill:#010101;enable-background:new    ;}
	.st50{fill:#AFADD6;}
	.st51{fill:#6059A6;}
	.st52{fill:#7971B4;}
	.st53{fill:#EDECF3;stroke:#766AB0;stroke-miterlimit:10;}
	.st54{fill:#273B8A;}
</style>
<g class="st0">
	<g id="Path_484-2" class="st1">
		<path class="st2" d="M495.9,298.7c18.7,25.4,32.5,54.1,40.7,84.6c1.2,4.2,1.8,8.5,1.9,12.9c0.9,54-91.2,76.3-117.7,127.5
			c-31.1,60.1,8.5,150.9-62.9,170.1C248.7,723,137,676.5,79,586.4c60.1,81.5,166.1,122.2,269.8,94.3c71.5-19.2,31.8-110,62.9-170.1
			c26.5-51.2,118.6-73.5,117.8-127.5c-0.1-4.3-0.7-8.7-1.9-12.8C520.8,344.9,510.1,320.8,495.9,298.7z"/>
		<path class="st3" d="M495.9,298.7c14.2,22.1,24.9,46.2,31.7,71.6c1.2,4.2,1.8,8.5,1.9,12.8c0.9,54-91.2,76.3-117.7,127.5
			c-31.1,60.1,8.5,150.9-62.9,170.1C245.1,708.6,139.1,667.9,79,586.4c-18.7-25.4-32.5-54.1-40.7-84.5C2,366.7,82,227.8,217.1,191.4
			C326.2,162.1,437.8,208.6,495.9,298.7z"/>
		<path class="st4" d="M289,297.2h1.4l0,0h0.1l0,0l0,0l0,0l0,0l0,0l0,0l0,0l0,0l0,0l0,0l0,0l0,0l0,0l0,0l0,0l0,0l0,0l0,0l0,0l0,0
			l0,0l0,0l0.1,0.1l0,0c1.3,1.2,2.5,2.6,3.5,4l-1.4,1c-1.5-2-3.2-3.8-5.2-5.3l1.1-1.4L289,297.2z M298.2,309.9
			c0.1,0.4,0.3,0.7,0.4,1.1l0,0l0,0l0,0l0,0l0,0l0,0l0,0l0,0l0,0l0,0l0,0l0,0l0,0l0,0l0,0l0,0l0,0l0,0l0,0l0,0l0,0l0,0l0,0l0,0l0,0
			l0,0l0,0l0,0l0,0l0,0l0,0l0,0l0,0l0,0l0,0l0,0l0,0l0,0l0,0l0,0h0.1l0,0l0,0l0,0h0l0,0l0,0l0,0l0,0l0,0l0,0l0,0l0,0l0,0l0,0l0,0
			l0,0l0,0l0,0l0,0l0,0l0,0l0,0l0,0l0,0l0,0l0,0l0,0l0,0l0,0l0,0l0,0l0,0l0,0l0,0l0,0l0,0l0,0l0,0l0,0l0,0l0,0l0,0l0,0l0,0l0,0l0,0
			l0,0l0,0l0,0l0,0l0,0l0,0l0,0l0,0l0,0l0,0l0,0l0,0l0,0l0,0l0,0l0,0l0,0l0,0l0,0l0,0l0,0l0,0v0l0,0l0,0l0,0v0.1l0,0l0,0l0,0l0,0
			l0,0c0.1,0.5,0.2,0.9,0.3,1.4l0,0l0,0l0,0l0,0l0,0v0.1l0,0v0.1l0,0l0,0l0,0l0,0l0,0l0,0l0,0v0l0,0l0,0l0,0l0,0l0,0l0,0l0,0l0,0
			l0,0l0,0l0,0l0,0l0,0l0,0l0,0l0,0l0,0l0,0l0,0l0,0l0,0l0,0l0,0l0,0l0,0l0,0l0,0l0,0l0,0l0,0l0,0l0,0l0,0l0,0l0,0l0,0l0,0l0,0l0,0
			l0,0l0,0l0,0l0,0l0,0l0,0l0,0l0,0l0,0l0,0l0,0l0,0l0,0l0,0l0,0l0,0l0,0l0,0l0,0l0,0l0,0l0,0l0,0l0,0l0,0l0,0l0,0l0,0l0,0l0,0l0,0
			l0,0l0,0l0,0l0,0l0,0l0,0l0,0l0,0l0,0v0l0,0c0,0.2,0.1,0.5,0.1,0.8l-1.8,0.1c-0.2-2.5-0.7-4.9-1.6-7.2L298.2,309.9z M299.4,325.5
			L299.4,325.5L299.4,325.5L299.4,325.5L299.4,325.5L299.4,325.5L299.4,325.5L299.4,325.5L299.4,325.5L299.4,325.5L299.4,325.5
			L299.4,325.5L299.4,325.5L299.4,325.5L299.4,325.5L299.4,325.5L299.4,325.5L299.4,325.5L299.4,325.5L299.4,325.5L299.4,325.5
			L299.4,325.5L299.4,325.5L299.4,325.5L299.4,325.5L299.4,325.5L299.4,325.5L299.4,325.5L299.4,325.5L299.4,325.5L299.4,325.5
			L299.4,325.5L299.4,325.5L299.4,325.5L299.4,325.5L299.4,325.5L299.4,325.5L299.4,325.5L299.4,325.5L299.4,325.5L299.4,325.5
			L299.4,325.5L299.4,325.5L299.4,325.5L299.4,325.5L299.4,325.5L299.4,325.5L299.4,325.5L299.4,325.5L299.4,325.5L299.4,325.5
			L299.4,325.5L299.4,325.5L299.4,325.5L299.4,325.5L299.4,325.5L299.4,325.5L299.4,325.5L299.4,325.5L299.4,325.5L299.4,325.5
			L299.4,325.5L299.4,325.5L299.4,325.5L299.4,325.5L299.4,325.5L299.4,325.5L299.4,325.5L299.4,325.5L299.4,325.5L299.4,325.5
			L299.4,325.5L299.4,325.5L299.4,325.5L299.4,325.5L299.4,325.5L299.4,325.5L299.4,325.5L299.4,325.5L299.4,325.5L299.4,325.5
			L299.4,325.5L299.4,325.5L299.4,325.5L299.4,325.5L299.4,325.5L299.4,325.5L299.4,325.5L299.4,325.5L299.4,325.5L299.4,325.5
			L299.4,325.5L299.4,325.5L299.4,325.5L299.4,325.5L299.4,325.5L299.4,325.5L299.4,325.5L299.4,325.5L299.4,325.5L299.4,325.5
			L299.4,325.5L299.4,325.5L299.4,325.5L299.4,325.5L299.4,325.5L299.4,325.5L299.4,325.5L299.4,325.5L299.4,325.5L299.4,325.5
			L299.4,325.5L299.4,325.5L299.4,325.5L299.4,325.5L299.4,325.5L299.4,325.5L299.4,325.5L299.4,325.5L299.4,325.5L299.4,325.5
			L299.4,325.5L299.4,325.5L299.4,325.5L299.4,325.5L299.4,325.5L299.4,325.5L299.4,325.5L299.4,325.5L299.4,325.5L299.4,325.5
			L299.4,325.5L299.4,325.5L299.4,325.5L299.4,325.5L299.4,325.5L299.4,325.5L299.4,325.5L299.4,325.5L299.4,325.5L299.4,325.5
			L299.4,325.5L299.4,325.5L299.4,325.5L299.4,325.5L299.4,325.5L299.4,325.5L299.4,325.5L299.4,325.5L299.4,325.5L299.4,325.5
			L299.4,325.5L299.4,325.5L299.4,325.5L299.4,325.5L299.4,325.5L299.4,325.5L299.4,325.5L299.4,325.5L299.4,325.5L299.4,325.5
			L299.4,325.5L299.4,325.5L299.4,325.5L299.4,325.5L299.4,325.5L299.4,325.5L299.4,325.5L299.4,325.5L299.4,325.5L299.4,325.5
			L299.4,325.5L299.4,325.5L299.4,325.5L299.4,325.5L299.4,325.5L299.4,325.5L299.4,325.5L299.4,325.5L299.4,325.5L299.4,325.5
			L299.4,325.5L299.4,325.5L299.4,325.5L299.4,325.5L299.4,325.5L299.4,325.5L299.4,325.5L299.4,325.5L299.4,325.5L299.4,325.5
			L299.4,325.5L299.4,325.5L299.4,325.5L299.4,325.5L299.4,325.5L299.4,325.5L299.4,325.5L299.4,325.5L299.4,325.5L299.4,325.5
			L299.4,325.5L299.4,325.5L299.4,325.5L299.4,325.5L299.4,325.5L299.4,325.5L299.4,325.5L299.4,325.5L299.4,325.5L299.4,325.5
			L299.4,325.5L299.4,325.5L299.4,325.5L299.4,325.5L299.4,325.5L299.4,325.5L299.4,325.5L299.4,325.5L299.4,325.5L299.4,325.5
			l-0.1,0.1l0,0l0,0l0,0h-0.1l0,0H299l0,0l0,0l0,0l0,0l0,0l0,0l0,0l0,0l0,0l0,0l0,0l0,0l0,0l0,0l0,0l0,0l0,0l0,0l0,0l0,0l0,0l0,0
			l0,0l0,0l0,0l0,0l0,0l0,0l0,0l0,0l0,0l0,0l0,0l0,0l0,0l0,0l0,0l0,0l0,0l0,0l0,0l0,0l0,0l0,0l0,0l0,0v0l0,0l0,0l0,0
			c-0.2,0.5-0.4,0.9-0.7,1.4l-1.6-0.8c1.1-2.2,2-4.6,2.4-7L299.4,325.5z M291.2,337.5l0.8,1.6c-1.8,0.9-3.9,0.7-6.1,0.1h-0.4
			c-0.4-0.1-0.8-0.2-1.2-0.4l0.5-1.7C287.1,337.8,289.6,338.4,291.2,337.5L291.2,337.5z M276.9,334.9l-0.3,1.8l-0.4-0.1h-0.1
			c-0.9-0.1-1.8-0.1-2.6,0h-0.4c-1.4,0.3-2.8,0.8-4,1.5l-0.8-1.6c1.5-0.8,3.1-1.4,4.8-1.8C274.4,334.6,275.7,334.6,276.9,334.9
			L276.9,334.9z M261.5,340.9l0.9,1.5c-0.5,0.3-1.1,0.6-1.6,0.8l0,0l-0.1,0h-0.8l0,0h-0.2h0l0,0h-0.1l0,0h-0.1l0,0l-0.2,0.1l0,0
			c-1.4,0.4-2.9,0.2-4.2-0.5l0.8-1.6C257.3,342.6,259,342.3,261.5,340.9L261.5,340.9z M246.6,330.5c1,2.3,2.3,4.4,3.8,6.3L249,338
			c-0.7-0.9-1.4-1.8-2-2.8l0,0c0-0.1-0.1-0.1-0.1-0.2l0,0v-0.1l0,0l0,0l0,0l0,0l0,0l0,0l0,0l0,0l0,0l0,0l0,0l0,0l0,0l0,0l0,0l0,0
			l0,0l0,0l0,0l0,0l0,0l0,0l0,0l0,0l0,0l0,0l0,0l0,0l0,0l0,0l0,0l0,0l0,0l0,0l0,0v0l0,0l0,0l0,0l0,0l0,0l0,0l0,0l0,0l0,0l0,0l0,0
			l0,0l0,0l0,0l0,0l0,0l0,0l0,0l0,0l0,0l0,0l0,0l0,0l0,0l0,0l0,0l0,0l0,0l0,0l0,0l0,0l0,0l0,0l0,0l0,0l0,0l0,0l0,0l0,0l0,0l0,0l0,0
			l0,0l0,0l0,0l0,0l0,0l0,0l0,0l0,0l0,0l0,0l0,0l0,0l0,0l0,0l0,0l0,0l0,0l0,0l0,0l0,0l0,0l0,0l0,0l0,0l0,0l0,0l0,0l0,0l0,0l0,0l0,0
			l0,0h-0.1l0,0h0l0,0h-0.2l0,0l0,0l0,0l0,0l0,0l0,0l0,0l0,0l0,0l0,0l0,0l0,0l0,0l0,0l0,0l0,0l0,0l0,0l0,0l0,0l0,0l0,0l0,0l0,0l0,0
			l0,0l0,0l0,0l0,0l0,0c-0.1-0.2-0.2-0.5-0.3-0.7L246.6,330.5z M244.7,316c-0.4,2.5-0.4,5-0.1,7.4l-1.8,0.2
			c-0.3-2.6-0.3-5.3,0.1-7.9L244.7,316z M249.3,301.4l1.3,1.1c-0.2,0.2-0.4,0.5-0.6,0.7c-1.3,1.7-2.4,3.5-3.3,5.5l-1.6-0.7
			c0.2-0.5,0.5-1.1,0.8-1.6l0,0v-0.1l0,0v-0.1l0,0v-0.1l0,0v-0.1l0,0v0l0,0l0,0l0,0l0,0l0,0l0,0l0,0l0,0l0,0l0,0l0,0l0,0h0.2l0,0
			l0,0l0,0h0.2l0,0l0,0l0,0h0.1l0,0l0,0l0,0l0,0l0,0l0,0l0,0l0,0l0,0l0,0l0,0l0,0l0,0l0,0l0,0l0,0l0,0h0.1l0,0l0,0l0,0l0,0l0,0l0,0
			l0,0l0,0l0,0l0,0l0,0l0,0l0,0l0,0l0,0l0,0l0,0l0,0l0,0l0,0l0,0l0,0l0,0h1.2l0,0l0,0l0,0l0,0l0,0l0,0l0,0h0.1l0,0l0,0l0,0l0,0l0,0
			h0.2l0,0l0,0l0,0h0.1l0,0h0.2l0,0h0.1l0,0h0.1l0,0l0,0l0,0h0.2l0,0h0.2l0,0l0,0l0,0l0,0L249.3,301.4z M262.3,292.7l0.6,1.7
			c-2.4,0.8-4.6,1.9-6.6,3.3l-1-1.5c0.5-0.4,1.1-0.7,1.6-1l0,0l0,0l0,0l0,0l0,0l0,0h1l0,0h0l0,0l0,0l0,0l0,0l0,0l0,0l0,0l0,0l0,0
			l0,0h0.1l0,0h0.1l0,0c0.6-0.3,1.2-0.6,1.9-0.9l0,0l0.2-0.1l0,0l0,0l0,0h0.1h0.1l0,0h0.1l0,0h1.4l0,0l0,0L262.3,292.7z M277.9,292
			l-0.4,1.8c-2.4-0.6-4.9-0.8-7.4-0.7l-0.1-1.8c0.6,0,1.2,0,1.8,0h6.1L277.9,292z M289,297.3l-1.1,1.4c-1.1-0.9-2.3-1.6-3.5-2.3
			l0.9-1.5c1,0.6,1.9,1.2,2.9,1.8l0,0l0,0l0,0l0,0l0,0l0,0l0,0l0,0l0,0l0,0l0,0l0,0h0l0,0l0,0l0,0h0.6L289,297.3z"/>
	</g>
</g>
<path class="st5" d="M139,461l37.2-19.7c0,0,15.6-15.1,19.7-15.8s4.2,0.4,1.8,4.2c-2.4,3.8-7.2,10.9-5.4,12.4s6.5,0.2,7,2.6
	c0.5,2.4-7.5,4.8-20.3,7.2l-29,22.7L139,461z"/>
<path class="st6" d="M274.9,451l-99.2,9.7v-91.3l99.2,5.3V451z"/>
<path class="st7" d="M119.6,423.6h4.5c0,0,2.5,39.6,4.6,41.3l-4.2-0.3C124.6,464.6,118.9,425.8,119.6,423.6z"/>
<g id="Head">
	<path class="st5" d="M105.3,398.9c-4.6-5.4-7.7-12-7.2-19.4c1.5-21.3,31.2-16.7,37-5.9c5.8,10.8,5.1,38.1-2.4,40
		c-3,0.8-9.3-1.1-15.8-5l4.1,28.7H97.1L105.3,398.9z"/>
</g>
<path id="hair" class="st8" d="M125.7,361.8c-3.3-0.9-6.6-1.3-10-1.1c1.2-2.7,1.6-5.7,1.2-8.7c-0.4-2.9-1.6-5.3-2.8-7.9
	c-0.5-1.2-1.2-2.3-2.1-3.3c-0.9-0.9-2.1-1.5-3.4-1.8c-1.3-0.3-2.6-0.3-3.9,0c-0.6,0.1-1.1,0.4-1.6,0.5c-0.6,0.1-0.9-0.2-1.3-0.6
	c-1.1-0.8-2.4-1.3-3.7-1.4c-1.4-0.1-2.9,0-4.2,0.5c-1.3,0.4-2.6,1.2-3.5,2.3c-0.4,0.5-0.8,1-1.1,1.6c-0.1,0.2-0.1,0.4-0.4,0.5
	c-0.2,0.1-0.5,0.1-0.7,0.2c-2.3,0.8-4.2,2.5-5.3,4.8c-0.7,2-1,4.1-0.8,6.2c0.1,2.6,2.4,9.3,4.6,11.8c2,2.2,4.7,3.6,7.6,4.3
	c-1.8,2.2-3.1,4.7-4,7.4c-1,2.9-1.6,5.9-1.8,9c-0.3,2.9-0.1,5.9,0.4,8.8c0.5,2.6,2.1,4.8,4.3,6.2c1,0.6,2.2,1.1,3.3,1.6
	c1.1,0.5,2.2,0.8,3.4,1.1c2.2,0.5,4.7,0.4,6.4-1.4c0.7-0.7,1.3-1.4,1.8-2.2c0.2-0.3,0.3-0.5,0.1-0.7c-0.3-0.3-0.6-0.6-0.9-0.8
	c-1.7-1.4-2.8-3.5-3-5.7c-0.3-2.3,0.4-5.4,2.6-6.4c2.8-1.3,5.9,0.2,8.4,1.5c1.1-3.7,3.2-7.1,6.6-8.8c3.8-1.9,8.1-2.1,12-3.7
	c1-0.4,2-1,2.8-1.8c0.4-0.4,0.6-0.8,0.8-1.3c0.1-0.6-0.1-1.2-0.6-1.6C135.3,368.1,129,362.8,125.7,361.8z"/>
<path id="Sleeve" class="st7" d="M117.8,467.3c17.2-3.2,33.2-11.2,46-23l10.1,14.8c-10.5,14.8-26.5,28.2-42.2,30.5
	C119.3,491.4,110.4,477.7,117.8,467.3z"/>
<path id="Sleeve-2" class="st9" d="M117.8,467.3c17.2-3.2,33.2-11.2,46-23l10.1,14.8c-10.5,14.8-26.5,28.2-42.2,30.5
	C119.3,491.4,110.4,477.7,117.8,467.3z"/>
<polygon id="Leg" class="st10" points="89.2,530.8 125.3,657.7 151.7,751.2 170.9,751.2 142.9,530.8 "/>
<polygon id="Leg-2" class="st11" points="89.2,530.8 125.3,657.7 151.7,751.2 170.9,751.2 142.9,530.8 "/>
<line id="Leg-3" class="st12" x1="170.9" y1="751.2" x2="142.9" y2="530.8"/>
<path class="st10" d="M79.5,530.8c-0.9,65.4-3.7,101.1-4.6,107c-0.9,5.9-14.2,43.7-39.8,113.4H55c32.7-66.8,51-104.6,54.8-113.4
	c3.8-8.8,15.6-44.4,33.2-107H79.5z"/>
<path id="Shirt" class="st13" d="M72.9,531.1c31.4,3.3,56,3.3,74,0c2.2-0.4,2.6-4.1,1.6-6.7c-16.1-39.5-23.3-80.1-27.9-101.6
	c-3,1.5-14.2,1.8-21.6,0.8C79.1,451.8,76.8,484.4,72.9,531.1z"/>
<path class="st14" d="M112.2,429.3l2.3-1c7,13.6,16.2,32.3,15.8,76.8c-2.5,1.2-7.6,8.9-7.6,8.9l-6.5-11.3
	C120.7,464.7,114.2,440.5,112.2,429.3z"/>
<polygon class="st15" points="110.4,424.5 115.1,424.2 116.7,429.7 110.4,429.8 "/>
<path class="st5" d="M168.3,475.3l14.7-11.7c0,0,0.1-12.9,5.9-14.4c0,0,0.8-1.2,1.2,2.2c0.4,3.4,0.6,7.6,3.2,6.1
	s14.6-12.1,16.5-10.7c1.9,1.4,3.2,9.1-0.2,14.5c-3.4,5.4-3,8.3-19.6,16.6c-16.6,8.4-17.7,13.5-17.7,13.5L168.3,475.3z"/>
<path class="st7" d="M181,489.6c0,0-47.6,16.7-77.6,14.2c-1.2,20-5,37.4-14.3,42.9l-19.9,11.5l6.2-91.8c1.3-15.2,8.9-31.3,20.3-41.6
	c0,0,3.5-2.8,3.5-2.7c-0.1,1.3-0.1,2.7,0,4c0.9,6.9,3.4,26.7,4.2,48.4c13,3.1,35.6,5.1,70.4-4.5L181,489.6z"/>
<path class="st16" d="M99.3,426.2c-0.2-1.4-0.3-2.3-0.4-2.5C99.1,424.5,99.2,425.3,99.3,426.2z"/>
<polygon class="st17" points="77.2,523.8 91,523.8 91,517.1 "/>
<path class="st18" d="M117,408.6c0,0-5.6-2.4-7.8-5.6c0,0,1.5,7.5,8.4,9.9L117,408.6z"/>
<path class="st19" d="M210.9,761.6c-0.1,1.4-0.3,2.9-0.8,4.2h-60.9c-0.3-1.6-0.5-3-0.6-4.2c-0.2-1.4-0.3-2.9-0.3-4.3
	c0-1.6,0.6-4,1.8-7.3l0.1-0.1c0.4-0.8,1.1-1.2,2-1.3c0.3,0,0.6,0.1,0.9,0.2c2.8,1.3,5,1.9,6.6,1.9c2,0,4.5-0.7,7.7-2.2l1.8-4.4l0,0
	c0.2-0.3,0.5-0.6,0.9-0.6c0.2,0,0.4,0,0.6,0.1l28.3,12.6c2.3,0.3,5.1,0.7,8.5,1.1C209.7,757.7,210.9,759.1,210.9,761.6z"/>
<path class="st19" d="M35.1,750.1c-1.2,3.2-1.8,5.6-1.8,7.2c0.1,2.9,0.4,5.7,1,8.5h60.9c1.6-5.2,0.7-8.1-2.7-8.5
	c-3.4-0.4-6.2-0.8-8.5-1.1l-24.8-12.6c-0.5-0.2-1.2,0-1.4,0.6l0,0l-5.4,4.5c-3.2,1.5-5.7,2.2-7.7,2.2c-1.6,0-3.8-0.6-6.7-1.9l0,0
	c-1.1-0.5-2.4,0-2.9,1C35.2,750,35.2,750,35.1,750.1z"/>
<path class="st20" d="M210.9,761.6c-0.1,1.4-0.3,2.9-0.8,4.2h-60.9c-0.3-1.6-0.5-3-0.6-4.2H210.9z"/>
<path class="st20" d="M96,761.6c0,1.4-0.3,2.9-0.8,4.2H34.3c-0.3-1.6-0.5-3-0.6-4.2H96z"/>
<path class="st21" d="M103.5,474.6c-5.6-1.5-10.8-4.1-15.3-7.6c0,0,9,4.7,15.1,3.1L103.5,474.6z"/>
<path class="st21" d="M103.4,503.8c-7.5-1.7-14.5-5.3-20.2-10.4c0,0,7.8,13.6,19.6,17.8L103.4,503.8z"/>
<circle class="st22" cx="126.6" cy="389.4" r="6"/>
<ellipse class="st22" cx="138.5" cy="389.4" rx="3.7" ry="6"/>
<circle class="st23" cx="125.4" cy="387.6" r="1.1"/>
<circle class="st23" cx="137.2" cy="387.6" r="1.1"/>
<path class="st23" d="M120.7,390.4c-0.5,0.1-1,0-1.5-0.1c-0.5-0.1-0.9-0.3-1.4-0.6c-0.9-0.4-1.8-0.8-2.7-1.3v-0.1
	c1,0.2,1.9,0.4,2.9,0.7c0.5,0.1,1,0.2,1.4,0.4C119.9,389.7,120.3,390,120.7,390.4L120.7,390.4z"/>
<line class="st22" x1="132.6" y1="389.4" x2="134.8" y2="389.4"/>
<path class="st24" d="M128.2,402.3c0.5,0.5,1.1,1,1.8,1.3c0.6,0.3,1.3,0.6,2,0.8c0.7,0.2,1.4,0.4,2.1,0.5s1.4,0.3,2.2,0.5
	c-0.7,0.2-1.5,0.2-2.2,0.2c-0.4,0-0.8-0.1-1.1-0.1s-0.8-0.1-1.1-0.3c-0.7-0.2-1.4-0.6-2.1-1C128.9,403.7,128.4,403.1,128.2,402.3z"
	/>
<path class="st25" d="M194.1,383.4v58.8l17.1-19.8l6.1,7l9.7-14l2.6,9.7l13.2-22.8l4.4,13.2l13.2-27.2"/>
<path class="st25" d="M194.1,444l72.4-6.6"/>
<path class="st26" d="M562.1,534.7c3.5,4.7,6.6,10.1,7.9,15.8c0.1,0.4,0.2,0.9,0.2,1.3c0.7,4.9,3.7,32.3-11.8,34.2l0,0l-15.9-6.1
	c-3.3-1.3-6.1-3.8-7.7-6.9l-4.4-8.3c-2.8-5.2-2.6-11.5,0.5-16.5l7.9-12.5C544.3,527,556,526.5,562.1,534.7z"/>
<polygon class="st27" points="530.6,522.3 507,517.1 507.8,539.3 509.8,539 534.9,540.8 "/>
<path d="M523,446.5c0,0-24.9,8.6-21.4-6.7c2.8-12.4,14.1-10.1,18.3-8.8c1,0.3,2.1,0.5,3.2,0.4c4.6-0.2,17.7,0.9,22.4,17.1
	c1.1,3.7,4.1,6.6,8,7.3c9.9,1.9,26.4,8.5,19.6,32.2c-1.3,4.5,0.7,9.3,4.8,11.6c6.6,3.8,12.5,11.2-3.5,23.7c-1.7,1.4-3.8,2.1-6,2.2
	l-3.4,0.1c-5,0.1-9.3-3.4-10.2-8.3l-5-25.9c-1-5.5-6.2-9.1-11.7-8.2l0,0c-5.6,0.9-10.8-2.8-11.7-8.4c0-0.2-0.1-0.5-0.1-0.7
	l-2.9-28.2L523,446.5z"/>
<path class="st28" d="M443.3,471c-0.8-0.3-1.7-0.2-2.5,0.3c-3.1,2-6.3,3.6-9.7,4.9c-4.1,1.5-7.1,5.3-8.7,7.8c-1,1.5-1.6,3.2-1.8,5
	c-0.4,4.4-0.4,12.9,5.3,16.5c0.5,0.3,1,0.5,1.6,0.5h0.4c1,0,1.9-0.5,2.4-1.3l7.7-11.4c0.4-0.5,0.9-0.9,1.5-1.1l10.9-3.7
	c0.2-0.1,0.4-0.1,0.6-0.3l0,0c0.9-0.5,1.4-1.5,1.4-2.5V476c0-1.3-0.8-2.4-2-2.8L443.3,471z"/>
<polygon class="st29" points="450.9,485.4 450.7,481.2 455.6,479 455.3,480.3 "/>
<ellipse class="st30" cx="446.4" cy="482.2" rx="3.2" ry="4.6"/>
<path class="st31" d="M441.5,467.1c0,0-2,20.3,13.8,12.5l-4.4,5.4l-0.3,3.4l-9.7,2.7l14.1,15.6l18.8-15.9c0,0-11.8-3-9.8-5.8
	l-3.4-12.2l2.4-1.4c0,0,4.7-6.8-1.3-7.1c0,0-4.7,9.8-6,2c0,0,0.3-5.1-2.4-3C453.3,463.4,451.9,465.8,441.5,467.1z"/>
<path class="st28" d="M441.4,455.3c-0.2,0-0.3,0.1-0.5,0.1c-0.9,0.4-4.2,2.1-4.5,5c0,0-1.9,9.3,10.3,6.6l0.2-0.1l5.5-2
	c0.8-0.3,1.7,0.1,2.1,0.8l1.6,2.9c0.5,0.8,1.6,1.1,2.4,0.6c0.2-0.1,0.4-0.3,0.6-0.5l1.3-2.1c0.5-0.8,1.6-1,2.4-0.5
	c0.1,0,0.1,0.1,0.2,0.2l0,0c0.5,0.5,0.6,1.3,0.4,1.9l-1.6,3.7c-0.1,0.1-0.1,0.3-0.1,0.4l-1.1,7.8c0,0.3,0,0.6,0.1,0.9l3.2,7.7
	c0.2,0.4,0.6,0.8,1,1l6.8,2.5c0.4,0.2,0.8,0.5,1,0.9l7.9,17.3c0.3,0.7,1,1.1,1.7,1c6.6-0.5,38.3-4.6,32.1-39.1c0-0.1,0-0.2,0-0.2
	c-0.1-1.7-1.4-21.8-33.6-22.5c-0.6,0-1.2-0.3-1.5-0.9c-2.2-3.9-12.3-19.6-26.9-9.4c-0.1,0.1-0.2,0.2-0.3,0.3
	c-0.7,0.8-3.7,4.5-2.5,9.3C450.8,453.8,442.8,455.1,441.4,455.3z"/>
<path class="st31" d="M441.5,467.1c0,0,0.1,14.8,5,16.5c0,0,1.5,0.4,8.8-2.5l2.1-7.2L441.5,467.1z"/>
<path class="st29" d="M461,469.5c0,0,1-2.6,1.7-2.6C462.7,466.8,462.4,469.5,461,469.5z"/>
<path class="st32" d="M358.6,453c-1.2,1.6-1.7,3.6-1.4,5.6c0.6,5,2.3,14.2,6.1,15.5c0,0,2.5,2.5,8.9-5l4.9-5.2
	c0.8-0.9,1.5-1.9,1.8-3.1l0.8-2.6c1.1-3.6-0.5-7.4-3.7-9.2l-2-1.1c-1.3-0.7-2.8-1-4.3-0.9l-3.5,0.3c-2.3,0.2-4.3,1.3-5.7,3.2
	L358.6,453z"/>
<circle class="st33" cx="368.4" cy="458.5" r="0.4"/>
<circle class="st33" cx="360.2" cy="458.5" r="0.4"/>
<circle class="st33" cx="512" cy="454.4" r="0.4"/>
<circle class="st33" cx="511.8" cy="453.1" r="0.4"/>
<circle class="st33" cx="519.2" cy="453.9" r="0.4"/>
<circle class="st33" cx="475" cy="468.9" r="0.4"/>
<circle class="st33" cx="482.3" cy="469.7" r="0.4"/>
<circle class="st33" cx="512" cy="453.6" r="0.4"/>
<circle class="st33" cx="512" cy="454.4" r="0.4"/>
<circle class="st33" cx="519.3" cy="455.2" r="0.4"/>
<circle class="st33" cx="512" cy="453.6" r="0.4"/>
<path class="st33" d="M519.3,454c0.2,0,0.4,0.2,0.4,0.4c0,0.2-0.2,0.4-0.4,0.4c0,0,0,0,0,0"/>
<path class="st14" d="M356.4,483.8c0,0,3.8-6.3,10.7-6.5l13.1-4c0,0,14.2-9.8,21.3,8.5l19.9,59.2l-40.1-0.1l-51.3,0.1l2.1-17.8
	l4.7-1.3L356.4,483.8z"/>
<path d="M353.9,456.9c-3.5-0.7-8.5-2.6-5.2-7.2c0.1-0.2,0.2-0.4,0.2-0.6c0.1-1.9,0.9-11.1,11.2-6.8c0.7,0.3,1.4,0,1.7-0.7
	c0,0,0-0.1,0-0.1c0.8-2.3,3.6-5.9,13.4,1.2c0.4,0.3,0.9,0.3,1.3,0.1c2.4-1.2,10.1-4.2,10.5,7.7v0.1c0,0.9-0.7,10.2-7.1,16.9
	c-0.5,0.5-1.3,0.5-1.8,0c-0.2-0.2-0.4-0.5-0.4-0.8l-0.6-6.2c0-0.3,0.1-0.7,0.3-0.9l2.1-2.4c0.5-0.5,0.4-1.4-0.1-1.8
	c-0.3-0.2-0.7-0.4-1-0.3l-5.2,0.7c-0.6,0.1-1.2-0.3-1.4-0.9l-1-3.6c-0.2-0.7-0.9-1.1-1.6-0.9c-0.2,0-0.3,0.1-0.4,0.2l-4.6,3.7
	c-0.1,0.1-0.2,0.1-0.3,0.2l-4.8,1.9C357.3,457,355.6,457.2,353.9,456.9z"/>
<path class="st34" d="M360.1,502.8l-4.2,13.6l28.2,3.8l2-33.8c0,0-23.7,18.9-25,9.5L360.1,502.8z"/>
<ellipse class="st34" cx="355.9" cy="528.2" rx="7.6" ry="12.4"/>
<polygon class="st34" points="338.2,519.7 327.6,514.8 329.1,522 337.4,526.7 "/>
<path class="st34" d="M335.7,529.5c0.8,5.7-2.5,11.3-6.6,11.3s-7.9-6-7.9-12.9c0-6.9,3.5-13.3,7.6-12.4
	C333.3,516.4,334.9,523.8,335.7,529.5z"/>
<path class="st32" d="M361.8,521.5l-18.6,6.5c0,0-10.3,6.6-10.7,11.8c3.4,1.7,7.3,1.8,10.8,0.3c0,0,5.9-9,8.4-7.2l10.5,2.1
	L361.8,521.5z"/>
<path class="st35" d="M361.8,520.5c0,0,4.3,6,0.3,14.5l-6.8-11.2L361.8,520.5z"/>
<rect x="307" y="494.9" class="st36" width="0.9" height="25.1"/>
<path class="st32" d="M329.2,515.6l-14.4-7.2c0,0-0.1-0.1-0.1-0.1l-5.6-6.9c-0.1-0.1-0.2-0.2-0.4-0.1l-2.9,0.4
	c-0.1,0-0.2,0.1-0.3,0.1c-0.6,0.8-3.9,5.1-2.4,9.2c0,0.1,0,0.1,0,0.2c0.1,0.4,0.6,2.8,4.5,4.8c0.1,0,0.2,0,0.3,0l2.8-0.6
	c0.1,0,0.2,0,0.3,0.1l18.1,12.9h0l6.5,3.7l-5.7-14.7C330,517.2,329.3,515.7,329.2,515.6z"/>
<path class="st35" d="M329.2,515.6c0,0,7.6,1.6,6.5,16.3L329.2,515.6z"/>
<path class="st37" d="M314.2,499.5l-6.2-3.2c-0.4-0.2-0.9-0.2-1.3,0.1l-6,3.7c-0.6,0.4-1.4,0.2-1.8-0.4c-0.2-0.3-0.2-0.6-0.2-0.9
	l0.9-7.6c0-0.4-0.1-0.8-0.4-1.1l-5.4-5.3c-0.5-0.5-0.5-1.3,0-1.9c0.2-0.2,0.4-0.3,0.7-0.4l7-1.4c0.4-0.1,0.8-0.4,1-0.8l2.8-6.8
	c0.3-0.7,1-1,1.7-0.7c0.3,0.1,0.5,0.3,0.7,0.6l3.3,6.6c0.2,0.4,0.6,0.7,1,0.7l7,0.8c0.7,0.1,1.2,0.8,1.1,1.5c0,0.3-0.1,0.5-0.3,0.7
	l-5,5.7c-0.3,0.3-0.4,0.7-0.3,1.1l1.5,7.5c0.2,0.7-0.3,1.4-1,1.6C314.8,499.7,314.5,499.7,314.2,499.5z"/>
<path class="st32" d="M368.5,472.1l0.7,8c0,0,2,5,7.2-1.5l0.5-13.7l-0.4-1.6L368.5,472.1z"/>
<path class="st38" d="M368.5,472.8c2-1.3,3.8-2.7,5.4-4.4l-5,7.5L368.5,472.8z"/>
<path d="M358.2,464.7c0,0,3.1,6.4,13.5-3.5l1.2-1.5l-0.2-5.3l1.7-0.1l0.3,4.9l0,0c1.1,1,1.5,2.5,1,3.9l-2.3,6.1l-6.6,4.7
	C366.8,474,361.3,478.5,358.2,464.7z"/>
<path class="st39" d="M361,469.1c0,0,2.7,2.5,5.5-1.2C366.5,467.9,362,468.9,361,469.1z"/>
<path class="st29" d="M459.8,484.2l4.2,4.9c0,0,0.1,0.1,0.1,0c0,0,0.1-0.1,0-0.1l-1.8-4.9L459.8,484.2z"/>
<path class="st39" d="M444.2,477.6c0,0,4.7,1,7.4-0.3C451.6,477.2,446.6,484.7,444.2,477.6z"/>
<ellipse class="st30" cx="461.7" cy="478.5" rx="3.7" ry="6.9"/>
<ellipse class="st40" cx="461.9" cy="475.8" rx="1.2" ry="3.6"/>
<path class="st37" d="M450.6,487.8c0,0,1.3,1.4-6.4,4.1c0,0-2.4,4.7,9.4,5.1c0,0,9.8,0.7,15.8-5.7c-0.6,0.1-1.2-0.1-1.6-0.5
	c0,0,10.7,0.9,12.4,5.9c1.7,5.1,5.4,40.3,5.4,40.3s0.3,6.4-19.5,7.4l-13.1,2c0,0-3.4-21-3-19.6c0.3,1.4-2.4,14.3-2.4,14.3l-11.4,0.2
	l-0.9-13.4c0,0-12.4,1,1.3-23.4l-9.4,15.6l-5.5,20.7l-20.7-7.2l2-24l16.9,9.1l15.1-25c0,0,0.7-1.7,6.7-3.4
	C444.7,489.7,447.7,488.9,450.6,487.8z"/>
<ellipse class="st41" cx="452.8" cy="533.6" rx="6.6" ry="12.7"/>
<polygon class="st41" points="469.4,507.1 462.7,522.6 468.1,524 "/>
<path class="st41" d="M421.1,541.1l15.1-0.1l-1-13.3c0,0-9.1-0.3,0-21l-8.1,13.2L421.1,541.1z"/>
<ellipse class="st41" cx="401.2" cy="521.3" rx="5.4" ry="12.2"/>
<ellipse class="st42" cx="452.8" cy="533.6" rx="6.6" ry="12.7"/>
<polygon class="st42" points="469.4,507.1 462.7,522.6 468.1,524 "/>
<path class="st42" d="M421.1,541.1l15.1-0.1l-1-13.3c0,0-9.1-0.3,0-21l-8.1,13.2L421.1,541.1z"/>
<ellipse class="st42" cx="401.2" cy="521.3" rx="5.4" ry="12.2"/>
<polygon class="st43" points="394.8,515.4 393.7,516.2 393.7,488.3 394.8,487.5 "/>
<path class="st31" d="M450.9,521.6l-7.5,4.4c-0.8,0.5-1.3,1.4-1.3,2.3c0.1,2,0.5,5.4,2.4,5.9c2.2,0.4,4.5,0.5,6.7,0.3
	c0,0,1.3,0.3,3.7-4.7l3.5-2.9C458.5,526.8,458.3,522.6,450.9,521.6z"/>
<path class="st29" d="M452.6,520.9c0,0,2.4-0.9,5.4,4.5l-8-3.4C450,522,451.6,520.6,452.6,520.9z"/>
<path class="st31" d="M402.8,509.4l-8.7-8.8l-4.4,2l-2,7.8l1.7,3.7l7,0.3l9.4,8.5C405.8,523,405.5,513.8,402.8,509.4z"/>
<path class="st29" d="M405.9,523l0.4,0.9c0,0,1.3-9.7-3.4-14.5C402.8,509.4,405.9,516.9,405.9,523z"/>
<path class="st37" d="M402.8,493.5l-6.8-3.5c-0.4-0.2-1-0.2-1.4,0.1l-6.5,4c-0.7,0.4-1.6,0.2-2-0.5c-0.2-0.3-0.2-0.6-0.2-0.9l1-8.3
	c0.1-0.4-0.1-0.9-0.4-1.2l-5.9-5.7c-0.6-0.6-0.6-1.5,0-2c0.2-0.2,0.5-0.4,0.8-0.4l7.5-1.5c0.5-0.1,0.9-0.4,1-0.9l3-7.4
	c0.3-0.7,1.1-1.1,1.9-0.8c0.3,0.1,0.6,0.4,0.7,0.7l3.6,7.1c0.2,0.4,0.6,0.7,1.1,0.8l7.6,0.9c0.8,0.1,1.3,0.8,1.2,1.6
	c0,0.3-0.2,0.5-0.3,0.8l-5.4,6.1c-0.3,0.3-0.4,0.8-0.3,1.2l1.6,8.2c0.2,0.8-0.3,1.5-1.1,1.7C403.4,493.7,403.1,493.6,402.8,493.5z"
	/>
<path d="M510.1,453.5c0,0-21,7.5-13.3,32.5c7.6,25,24.4,1.2,24.4,1.2l3.6-19L510.1,453.5z"/>
<path class="st44" d="M507.9,448.4c0,0-2.8,25.2,17.7,15.9l0,0l-5.7,7l-0.3,3.2c0,0-8.2,3.2-8.2,5.4c0,2.2-1.6,9.2,11.7,8.3
	c13.3-1,0.3-1.6,0.3-1.6s12.3,3.6,21.2-5.4c0.6-0.6-1.9-2.9-1.9-2.9s-8.8,5-12-9.7l0,0c0,0,0-16,3.9-16.7l0,0c0,0,2.6-5.1-5.9-1.2
	l0,0l-5-4.7l-0.6-0.2L507.9,448.4z"/>
<path class="st26" d="M489.1,516.6l13.6-37.5c0.1-0.1,0.2-0.2,0.3-0.2l13.2-3.3c0.3-0.1,0.6,0.1,0.6,0.4c0,0.2,0,0.4-0.2,0.6l-4.8,3
	c-0.3,0.2-0.3,0.5-0.2,0.7c0,0,0,0,0,0.1l5.4,6.7c0.1,0.1,0.3,0.2,0.5,0.2l7.2-0.8c0,0,0.1,0,0.1,0l16.7-5.8
	c0.2-0.1,0.3-0.2,0.3-0.4l0.4-1.4c0.1-0.3,0.4-0.4,0.6-0.4c0,0,0,0,0,0l7.9,2.6c0.3,0.1,0.4,0.4,0.4,0.6L539.8,541
	c-0.1,0.3,0.3,0.1,0,0l-47.3-0.9c0,0,0,1.6-0.1,1.6l-2.9-1.3c8.7-0.1,4.2-12.8,2.7-13c-3.2-0.5-2.8-0.8-2.5-6l-1.2,1l0.3-1
	C489.1,521.4,489,516.9,489.1,516.6z"/>
<path class="st45" d="M492.4,540.9c0,0-0.3-35.6,12.7-48c0,0,11.1,1,10.1,12.7c0,0,8.2-10.8,18.3-8.9c0,0,3.5,31.1-20.8,44.4
	L492.4,540.9z"/>
<path class="st46" d="M492.4,540.9c0,0-0.3-35.6,12.7-48c0,0,11.1,1,10.1,12.7c0,0,8.2-10.8,18.3-8.9c0,0,3.5,31.1-20.8,44.4
	L492.4,540.9z"/>
<path class="st47" d="M519.1,467.4l0.5,7.1l6-10.2C525.6,464.3,521.3,466.2,519.1,467.4z"/>
<polygon class="st26" points="507.2,509.5 532.4,520 536.4,540.9 507.2,541.4 "/>
<ellipse class="st48" cx="507.2" cy="525" rx="6" ry="15.6"/>
<ellipse class="st49" cx="507.2" cy="525" rx="6" ry="15.6"/>
<path class="st26" d="M544.6,479.9l6,0.6c0,0,21.9,22.3-12.5,64.1l-10.7-19.9L544.6,479.9z"/>
<path class="st43" d="M488.2,516.6L488.2,516.6c-0.4,0-0.6-0.3-0.6-0.6v-28.2c0-0.2,0.1-0.4,0.3-0.6l1-0.6V516
	C488.8,516.3,488.5,516.6,488.2,516.6z"/>
<path class="st44" d="M507.1,509.9l-14.4-8.8l0,0l-2.5-5.3l-5.1-1.3c0,0-0.9-1.9-2.2,4.8l-1.3,6.7l0,0l-0.3,4.5l0,0l4.4,1.9l6.3-1.9
	l20.7,18.3l-5.3-18.3L507.1,509.9z"/>
<path class="st44" d="M507.9,448.4c0,0,0,15.1,4.7,19.8c0,0-0.1,3.5,13-3.9L507.9,448.4z"/>
<path class="st44" d="M513.1,447.5c0,0,0,15.1,4.7,19.8c0,0-0.1,3.5,13-3.9L513.1,447.5z"/>
<path class="st47" d="M507.1,509.9c0,0,5.6-1.1,5.7,18.7l-1.8-1.5L507.1,509.9z"/>
<path class="st39" d="M511.9,461.8c0,0,3,1.5,7.4-2C519.3,459.8,513.1,469.5,511.9,461.8z"/>
<path class="st26" d="M530.8,455.8l-2.8,6.6c-0.2,0.5-0.1,1,0.2,1.4l3.4,4.5c0.5,0.6,1.4,0.8,2,0.3c0.2-0.2,0.4-0.4,0.5-0.7l1.8-5.5
	c0.1-0.3,0.1-0.7,0-1l-2.4-5.6c-0.3-0.7-1.1-1.1-1.8-0.9C531.3,455.1,530.9,455.4,530.8,455.8z"/>
<path class="st37" d="M493.9,491l-6.1-3.2c-0.4-0.2-0.9-0.2-1.3,0.1l-5.9,3.7c-0.6,0.4-1.4,0.2-1.8-0.4c-0.2-0.3-0.2-0.6-0.2-0.9
	l0.9-7.5c0-0.4-0.1-0.8-0.4-1.1l-5.3-5.2c-0.5-0.5-0.5-1.3,0-1.8c0.2-0.2,0.4-0.3,0.7-0.4l6.9-1.4c0.4-0.1,0.8-0.4,0.9-0.8l2.8-6.7
	c0.3-0.7,1-1,1.7-0.7c0.3,0.1,0.5,0.3,0.7,0.6l3.3,6.5c0.2,0.4,0.6,0.7,1,0.7l7,0.8c0.7,0.1,1.2,0.7,1.1,1.5c0,0.3-0.1,0.5-0.3,0.7
	l-4.9,5.6c-0.3,0.3-0.4,0.7-0.3,1.1l1.5,7.5c0.2,0.7-0.3,1.4-1,1.5C494.5,491.2,494.2,491.2,493.9,491z"/>
<path class="st26" d="M488.9,516c0,0-5.8,24.1-6.2,24.9s9.8,0,9.8,0l2-14.8L488.9,516z"/>
<ellipse class="st50" cx="433.9" cy="648.5" rx="124.2" ry="7.9"/>
<polygon class="st51" points="300.9,540.1 318.5,647 522.8,647.3 537.1,540.1 "/>
<ellipse class="st52" cx="343" cy="593.5" rx="20.9" ry="21"/>
<polygon class="st53" points="325.8,593.9 331.7,588.4 337.9,593.9 352.8,581.2 358.8,585.6 343.7,600.2 337.9,606.1 "/>
<ellipse class="st52" cx="414.4" cy="596.5" rx="20.9" ry="21"/>
<polygon class="st53" points="397.2,596.8 403.1,591.3 409.3,596.8 424.2,584.2 430.2,588.5 415.1,603.1 409.3,609 "/>
<ellipse class="st52" cx="486.9" cy="596.5" rx="20.9" ry="21"/>
<polygon class="st53" points="469.7,596.8 475.5,591.3 481.8,596.8 496.7,584.2 502.6,588.5 487.6,603.1 481.8,609 "/>
<polygon class="st54" points="566.3,540.1 537.1,540.1 517.7,647.3 549.1,647 "/>
<circle class="st33" cx="511.8" cy="453.1" r="0.4"/>
<circle class="st33" cx="519.2" cy="453.9" r="0.4"/>
<circle class="st33" cx="444.2" cy="471.6" r="0.4"/>
<circle class="st33" cx="451.6" cy="472.4" r="0.4"/>
</svg>
