<svg id="Layer_1" data-name="Layer 1" xmlns="http://www.w3.org/2000/svg" viewBox="0 0 507.99 563.56"><defs><style>.cls-1{opacity:0.34;}.cls-2{opacity:0.94;}.cls-3,.cls-4{opacity:0.74;}.cls-22,.cls-24,.cls-27,.cls-3,.cls-32,.cls-4{isolation:isolate;}.cls-19,.cls-4,.cls-5{fill:#acadad;}.cls-5{fill-opacity:0;}.cls-27,.cls-6{fill:#c2c4bf;}.cls-7{fill:#1e2143;}.cls-8{fill:#5058b1;}.cls-9{fill:#f8ae84;}.cls-10,.cls-13,.cls-14{fill:#212121;}.cls-11{fill:#bb8365;}.cls-12{fill:none;}.cls-12,.cls-13,.cls-14{stroke:#212121;stroke-miterlimit:10;}.cls-13{stroke-width:3.7px;}.cls-15{fill:#eef0f9;}.cls-16{fill:#2d3264;}.cls-17{fill:#ecf2fb;}.cls-18{fill:#7279c0;}.cls-20{fill:#999;}.cls-21{fill:#3c4285;}.cls-22,.cls-24,.cls-32{fill:#777470;}.cls-22{opacity:0.2;}.cls-23{fill:#d3eaf5;}.cls-24{opacity:0.15;}.cls-25{fill:#454d89;}.cls-26{fill:#d68c67;}.cls-27{opacity:0.47;}.cls-28{fill:#ffd773;}.cls-29{fill:#edb2c2;}.cls-30{fill:#fff4dd;}.cls-31{fill:#2a294f;}.cls-32{opacity:0.05;}</style></defs><title>Analyst_Onboarding_001_Illustration</title><g class="cls-1"><g id="Path_484-2" data-name="Path 484-2" class="cls-2"><path class="cls-3" d="M508.56,180.34a252.19,252.19,0,0,1,40.6,84.3,50.82,50.82,0,0,1,1.9,12.8c.9,53.8-91,76.1-117.4,127.1-31.1,59.9,8.5,150.4-62.7,169.6-108.7,29.3-220-17.1-277.9-107a252.62,252.62,0,0,0,269,94c71.2-19.2,31.7-109.7,62.7-169.6,26.4-51,118.3-73.3,117.4-127.1a50.82,50.82,0,0,0-1.9-12.8A256.13,256.13,0,0,0,508.56,180.34Z" transform="translate(-43.07 -64.69)"/><path class="cls-4" d="M508.56,180.34a252.33,252.33,0,0,1,31.6,71.4,50.82,50.82,0,0,1,1.9,12.8c.9,53.8-91,76.1-117.4,127.1-31.1,59.9,8.5,150.4-62.7,169.6-103.4,27.8-209-12.7-269-94a250.06,250.06,0,0,1-40.5-84.3c-36.2-134.7,43.6-273.3,178.3-309.5C339.36,44.14,450.66,90.54,508.56,180.34Z" transform="translate(-43.07 -64.69)"/><path class="cls-5" d="M302.26,178.94h1.5l.1.1h0a26.41,26.41,0,0,1,3.5,4l-1.4,1a28.52,28.52,0,0,0-5.1-5.3l1.1-1.4Zm9.2,12.6c.1.4.3.7.4,1.1h.1v.1h0c.1.5.2.9.3,1.4h0v.1h0v.1h0c0,.2.1.5.1.8l-1.8.1A25.09,25.09,0,0,0,309,188Zm1.3,15.5h0l-.1.1h-.3a9.14,9.14,0,0,1-.7,1.4l-1.6-.8a25.24,25.24,0,0,0,2.4-7Zm-8.2,12,.8,1.6c-1.8.9-3.9.7-6.1.1h-.4a5.64,5.64,0,0,1-1.2-.4l.5-1.7c2.3.7,4.8,1.3,6.4.4Zm-14.3-2.6-.3,1.8-.4-.1h-.1a11.29,11.29,0,0,0-2.6,0h-.4a14.93,14.93,0,0,0-4,1.5l-.8-1.5a19.78,19.78,0,0,1,4.8-1.8,12,12,0,0,1,3.8.1Zm-15.4,6,.9,1.5a11.94,11.94,0,0,1-1.6.8h-1.3l-.2.1h0a5.61,5.61,0,0,1-4.2-.5l.8-1.6c1.5,1.4,3.1,1.1,5.6-.3Zm-14.8-10.3a28.54,28.54,0,0,0,3.8,6.3l-1.4,1.1a28.32,28.32,0,0,1-2-2.8h0c0-.1-.1-.1-.1-.2h0v-.1h-.3c-.1-.2-.2-.5-.3-.7Zm-1.9-14.6a26.21,26.21,0,0,0-.1,7.4l-1.8.2a29.86,29.86,0,0,1,.1-7.9Zm4.6-14.4,1.3,1.1c-.2.2-.4.5-.6.7a27.67,27.67,0,0,0-3.3,5.5l-1.6-.7a11.94,11.94,0,0,1,.8-1.6h0V188h0v-.1h0v-.1h0v-.1h3Zm12.9-8.8.6,1.7a27.18,27.18,0,0,0-6.6,3.3l-1-1.5a14,14,0,0,1,1.6-1h1.2c.6-.3,1.2-.6,1.9-.9h0l.2-.1h1.7Zm15.6-.7-.4,1.8a26.21,26.21,0,0,0-7.4-.7l-.1-1.8h7.9Zm11,5.3-1.1,1.4a26.37,26.37,0,0,0-3.5-2.3l.9-1.5c1,.5,1.9,1.2,2.9,1.8h.6Z" transform="translate(-43.07 -64.69)"/></g></g><path class="cls-6" d="M51.43,424Q101,319.65,150.56,215.34l36.8,59.3,66.3-119.9,46.9,136.5,98,77.1,72.4-79.8,42.83,69.74,8.91-11.86L473,265.54l-75.9,83.6-85.2-67L256.56,121l-69.9,126.3-37.8-60.8Q96,297.06,43.07,407.57Z" transform="translate(-43.07 -64.69)"/><path class="cls-7" d="M367.86,368.64a18.7,18.7,0,1,0,18.7-18.7A18.74,18.74,0,0,0,367.86,368.64Z" transform="translate(-43.07 -64.69)"/><path class="cls-8" d="M412.06,291.24s-17.8,50.7-47.4,37.1l-69.3-37.2,10.7,15.2s47.8,56.1,79.9,49.7,30.6-25,30.6-25Z" transform="translate(-43.07 -64.69)"/><path class="cls-9" d="M420.46,270.24l4.7,20.6s-16.1,0-18.8-1.3l1.3-13.9,8.9-8.9Z" transform="translate(-43.07 -64.69)"/><path class="cls-9" d="M415.76,270.64s-16.1,12.1-24.2,9.4c0,0-5.4-2.7-5.4-16.1,0,0,0-20.2,4-21.5l24.2-2.7,12.1,14.8Z" transform="translate(-43.07 -64.69)"/><path class="cls-10" d="M416.46,265.94s.9,0,2.7-2.9a8.24,8.24,0,0,0,1-6.5c-.8-2.7-3.3-5.2-10.4-1.3,0,0-1.3-8.1-12.1-10.8,0,0-9.4,0-10.8-5.4,0,0,8.1-13.4,22.9-10.8,0,0-4.8-5.9,1.4-17.8a7,7,0,0,1,4.3-3.6c2.2-.7,4.9-1,6.5,1.3,0,0,6.7-8.1,13.4,1.3,0,0,9.4,1.3,6.7,12.1,0,0-1.3,13.4-10.8,14.8,0,0,8.1,14.8,4,25.5,0,0-1.3,6.7-9.4,8.1C425.86,269.94,417.76,272.64,416.46,265.94Z" transform="translate(-43.07 -64.69)"/><path class="cls-11" d="M407.66,279.34s5.5-.6,8.1-8.6c0,0-6.3,6.7-7.2,6S407.66,279.34,407.66,279.34Z" transform="translate(-43.07 -64.69)"/><path class="cls-11" d="M407.66,275.94s6.8-4,8.2-5.3c0,0-2.5,7.4-8.6,9.1Z" transform="translate(-43.07 -64.69)"/><polygon class="cls-10" points="366.69 191.06 363.29 192.56 361.99 192.56 363.29 191.16 366.69 191.06"/><circle class="cls-12" cx="355.59" cy="191.56" r="6.4"/><ellipse class="cls-12" cx="344.19" cy="191.16" rx="3.6" ry="6"/><path class="cls-13" d="M392.26,256.54h0Z" transform="translate(-43.07 -64.69)"/><circle class="cls-14" cx="356.59" cy="189.86" r="0.7"/><circle class="cls-10" cx="344.79" cy="190.16" r="1"/><polygon class="cls-7" points="330.99 547.36 317.59 550.05 312.19 541.96 324.29 449.25 339.09 332.36 371.39 388.75 365.99 422.36 330.99 547.36"/><path class="cls-15" d="M397,269.34s-6.7,2.7-8.1,2.7c0-.1,6.8,2.6,8.1-2.7Z" transform="translate(-43.07 -64.69)"/><path class="cls-16" d="M440,397s-36,4.7-57.6.3l26.7,89.7,10.8,25.5,45.7,94.1,6.7,6.7,13.4,2.7,2.7-4-38.1-107.8a17.11,17.11,0,0,1-1-4.9l-5.2-96.9Z" transform="translate(-43.07 -64.69)"/><path class="cls-17" d="M425.16,289.44s-5.4,2.7-18.8,0l-5.4,1.3-2.7,25.5-18.8,68.6s-5.4,10.8,0,12.1c0,0,40.3,4,47,1.3Z" transform="translate(-43.07 -64.69)"/><path class="cls-8" d="M454.76,422.54l-21.5-12.1s-8.1-1.3-12.1-40.3c0,0,0-49.7,1.3-57.8l2.7-22.9s8.1,4,14.8,16.1c0,0,9.4,16.1,9.4,32.3Z" transform="translate(-43.07 -64.69)"/><polygon class="cls-16" points="371.49 226.46 371.39 231.46 364.69 231.46 367.29 226.16 371.49 226.46"/><path class="cls-16" d="M409.06,366l-6.7,13.4-8.1-9.4s-.1-49.7,15.4-73.9l3.4.2C413.06,296.44,401,349.94,409.06,366Z" transform="translate(-43.07 -64.69)"/><polygon class="cls-18" points="403.59 324.25 390.19 317.56 390.19 324.25 403.59 324.25"/><path class="cls-19" d="M488.36,612s1.3-2.7-8.1,1.3c0,0-5.4,0-9.4-2.7l-5.4-4-24.2,12.1s-16.1,0-12.1,5.4h60.5S492.36,618.74,488.36,612Z" transform="translate(-43.07 -64.69)"/><path class="cls-19" d="M489.66,628.24s1.3-4,0-4h-60.5s-1.3-1.3,0,4Z" transform="translate(-43.07 -64.69)"/><path class="cls-20" d="M376.76,624.14s0,4-1.3,4h-59.1l-1.3-4Z" transform="translate(-43.07 -64.69)"/><path class="cls-19" d="M374.46,611.44s5.1,8.7,2.4,12.7l-61.2.4s-3.4-5.7,11.4-5.7l28.2-12.1s.5-2.6,2.9,4.7a28.58,28.58,0,0,0,9.8,2C368.06,613.44,373.36,610.74,374.46,611.44Z" transform="translate(-43.07 -64.69)"/><polygon class="cls-21" points="395.59 339.95 383.49 314.45 392.89 328.25 395.59 339.95"/><polygon class="cls-8" points="363.29 224.75 337.89 330.56 330.49 328.86 357.89 226.06 363.29 224.75"/><path class="cls-22" d="M380,418.14l-9-13.4-5.5,3.7,9,13.4a14.76,14.76,0,0,0,20.4,4,13.77,13.77,0,0,0,2.6-2.2A14.86,14.86,0,0,1,380,418.14Z" transform="translate(-43.07 -64.69)"/><rect class="cls-23" x="365.7" y="397.43" width="29.4" height="14.2" transform="translate(-204.23 217.13) rotate(-33.99)"/><rect class="cls-24" x="369.05" y="412.09" width="9.7" height="4.8" transform="translate(-210.92 215.2) rotate(-33.99)"/><path class="cls-8" d="M427.46,330.54s51.1,50.6-45.5,51.3l-.9,13.4s23.6,9.2,57.3.2c0,0,56.6-8,23.4-70,0,0-7.2-20.4-33.3-34.7Z" transform="translate(-43.07 -64.69)"/><path class="cls-25" d="M426.66,331.84c5.2,6.4,10.6,14.4,11.8,22.8,1.5,10.4-7.6,17.1-16.5,20.1-1.8.6-1,3.5.8,2.9,8.6-2.9,18.3-9.3,18.9-19.3.6-10.5-6.5-21-12.8-28.7-1.3-1.4-3.5.7-2.2,2.2Z" transform="translate(-43.07 -64.69)"/><path class="cls-25" d="M451.86,389c-7.4,4.7-17.7,5.9-26.2,7.3-1.9.3-1.1,3.2.8,2.9,8.9-1.4,19.2-2.7,26.9-7.6,1.6-1,.1-3.6-1.5-2.6Z" transform="translate(-43.07 -64.69)"/><path class="cls-25" d="M382.66,395c.3-4.4.6-8.8,1-13.1.1-1.9-2.9-1.9-3,0-.3,4.4-.6,8.8-1,13.1-.2,2,2.8,2,3,0Z" transform="translate(-43.07 -64.69)"/><path class="cls-9" d="M375.66,370.34l6.4,11.6-1.1,13.3s-18.2-4.4-22.9-8c0,0-1.8-1.8,2.2-1.6l-3.8-1.6s-2-1.6.7-2.5l3.6,1.1-6.4-2.7s-2.5-2.4,1.3-2.9l6.7,2.4-6-2.7s-2.9-2.2,1.1-2.5l15.6,4.9-.2-12,2.9,3.6" transform="translate(-43.07 -64.69)"/><path class="cls-26" d="M360.86,379.14l7.8,1.8c.5.1.7-.6.2-.7l-7.8-1.8c-.5-.1-.7.6-.2.7Z" transform="translate(-43.07 -64.69)"/><path class="cls-26" d="M359.66,382.64c2,.7,4,1.3,6,1.9.5.1.7-.6.2-.7-2-.5-4-1.2-6-1.9-.5-.2-.7.6-.2.7Z" transform="translate(-43.07 -64.69)"/><path class="cls-26" d="M360,386.14a39.47,39.47,0,0,0,5.7,1.4c.5.1.7-.6.2-.7a39.47,39.47,0,0,1-5.7-1.4c-.5-.1-.7.6-.2.7Z" transform="translate(-43.07 -64.69)"/><path class="cls-9" d="M290.16,276.44l11.4,15.3C301.56,291.84,285.36,290.64,290.16,276.44Z" transform="translate(-43.07 -64.69)"/><path class="cls-9" d="M293.56,273.94l-3.4,2.6,11.4,15.3,2-1.6s3.4-6.2-2.3-4.1l3.8-3.5s1.8-4.9-2.8-2.8l4.8-3.9s1.4-5.1-3.2-3.5l-5.3,3.5,4-4.2s3.4-4.9-2-3.9Z" transform="translate(-43.07 -64.69)"/><path class="cls-26" d="M299.56,274.14c-2.3,1.8-4.9,3.3-7.2,5.1-.4.3.2,1,.6.6,2.3-1.8,4.9-3.3,7.2-5.1.5-.3-.1-.9-.6-.6Z" transform="translate(-43.07 -64.69)"/><path class="cls-26" d="M302.76,279.14c-2.9,2-5.7,4.2-8.5,6.2-.5.3,0,1.1.4.8,2.9-2,5.7-4.2,8.5-6.2.5-.3,0-1.1-.4-.8Z" transform="translate(-43.07 -64.69)"/><path class="cls-26" d="M302.36,284.14c-1.6.9-3,1.9-4.6,2.8a.45.45,0,0,0,.4.8c1.6-.9,3-1.9,4.6-2.8.5-.3.1-1.1-.4-.8Z" transform="translate(-43.07 -64.69)"/><path class="cls-25" d="M422.46,378a6.12,6.12,0,0,0,1.2-.5,1.53,1.53,0,0,0-1.6-2.6s-.3.2-.2.2-.3.1-.3.1a1.4,1.4,0,0,0-1,1.8,1.81,1.81,0,0,0,1.9,1Z" transform="translate(-43.07 -64.69)"/><path class="cls-25" d="M453.26,391.74c3.2-1.6,5.8-3.9,8.6-5.9,1.6-1.1.1-3.7-1.5-2.6-2.9,2-5.5,4.3-8.6,5.9-1.7.9-.2,3.5,1.5,2.6Z" transform="translate(-43.07 -64.69)"/><path class="cls-25" d="M380.86,396.64c14.9,3.6,29.7,3.7,44.9,2.9,1.9-.1,1.9-3.1,0-3-14.9.8-29.4.8-44.1-2.8-1.8-.4-2.6,2.5-.8,2.9Z" transform="translate(-43.07 -64.69)"/><path class="cls-25" d="M396.06,303.54c-2.1,8.5-3.3,17.2-5.4,25.6s-5.2,16.7-8,25c-.6,1.8,2.3,2.6,2.9.8,2.8-8.3,5.9-16.5,8-25s3.3-17.2,5.4-25.6c.4-1.9-2.5-2.7-2.9-.8Z" transform="translate(-43.07 -64.69)"/><path class="cls-27" d="M277,577.94c5.26-38.28,17.09-214.73,22.93-257.15l71.77,51.35q-9.9,101.55-19.7,203.2Q314.46,576.54,277,577.94Z" transform="translate(-43.07 -64.69)"/><path class="cls-27" d="M116.86,498.64q4.2-96.3,8.5-192.6l27.3-62.9,27.3,50.6Q171.58,412.85,163.2,532a72.39,72.39,0,0,1-19.51-9.19c-1.18-.79-3.42-2.39-7.83-6A187.08,187.08,0,0,1,116.86,498.64Z" transform="translate(-43.07 -64.69)"/><path class="cls-27" d="M258.43,572.46c5.63-44.35,23.23-238.17,25.33-283.42L253,201.64l-54.7,89.7q-11.85,125.85-23.6,251.8c4.17,2.74,9,5.65,14.47,8.53a195.21,195.21,0,0,0,21.63,9.57C229.89,568.31,248.63,571.24,258.43,572.46Z" transform="translate(-43.07 -64.69)"/><path class="cls-27" d="M469.05,310.18l-9.52,11.72a77.11,77.11,0,0,1,11.21,28l9.91-3.92c3.29-1.31,6.58-2.62,9.91-3.93C483.39,331.37,476.22,320.77,469.05,310.18Z" transform="translate(-43.07 -64.69)"/><path class="cls-27" d="M66.54,419.46q10.59-22.59,22-45.74t22.91-45.43c-1.73,26.64-2.9,54.55-3.33,83.62-.39,26.67-.12,52.38.66,77-1-1.53-2.36-3.45-3.92-5.69-2.73-3.92-4.81-6.79-5.37-7.57-8-11.07-15.91-22-20.85-30.13A131.18,131.18,0,0,1,66.54,419.46Z" transform="translate(-43.07 -64.69)"/><polygon class="cls-28" points="317.49 346.56 239.69 193.85 265.89 180.46 343.59 333.25 317.49 346.56"/><path class="cls-29" d="M368.76,427.44l-7.4-14.4,26.1-13.4,7.4,14.4a14.75,14.75,0,0,1-6.4,19.8h0A14.75,14.75,0,0,1,368.76,427.44Z" transform="translate(-43.07 -64.69)"/><polygon class="cls-30" points="237.99 158.35 239.69 193.85 265.89 180.46 237.99 158.35"/><polygon class="cls-22" points="237.99 158.35 239.69 193.85 246.09 190.56 237.99 158.35"/><polygon class="cls-31" points="246.29 164.96 237.99 158.35 238.49 168.96 246.29 164.96"/><rect class="cls-23" x="363.01" y="412.67" width="31.9" height="4.8" transform="translate(-190.72 153.97) rotate(-27.15)"/><polygon class="cls-22" points="321.69 354.86 239.69 193.85 246.09 190.56 328.09 351.65 321.69 354.86"/><polygon class="cls-32" points="343.49 351.65 255.09 178.06 261.99 174.56 350.39 348.15 343.49 351.65"/><path class="cls-6" d="M487,368.68" transform="translate(-43.07 -64.69)"/><path class="cls-6" d="M27,451.93" transform="translate(-43.07 -64.69)"/></svg>