<svg xmlns="http://www.w3.org/2000/svg" xmlns:xlink="http://www.w3.org/1999/xlink" width="124" height="53" viewBox="0 0 124 53">
  <defs>
    <clipPath id="clip-path">
      <rect width="124" height="53" fill="none"/>
    </clipPath>
  </defs>
  <g id="Repeat_Grid_2" data-name="Repeat Grid 2" clip-path="url(#clip-path)">
    <g transform="translate(-20 -672)">
      <circle id="Ellipse_56" data-name="Ellipse 56" cx="0.5" cy="0.5" r="0.5" transform="translate(20 672)" fill="#212121"/>
    </g>
    <g transform="translate(-9 -672)">
      <circle id="Ellipse_56-2" data-name="Ellipse 56" cx="0.5" cy="0.5" r="0.5" transform="translate(20 672)" fill="#212121"/>
    </g>
    <g transform="translate(2 -672)">
      <circle id="Ellipse_56-3" data-name="Ellipse 56" cx="0.5" cy="0.5" r="0.5" transform="translate(20 672)" fill="#212121"/>
    </g>
    <g transform="translate(13 -672)">
      <circle id="Ellipse_56-4" data-name="Ellipse 56" cx="0.5" cy="0.5" r="0.5" transform="translate(20 672)" fill="#212121"/>
    </g>
    <g transform="translate(24 -672)">
      <circle id="Ellipse_56-5" data-name="Ellipse 56" cx="0.5" cy="0.5" r="0.5" transform="translate(20 672)" fill="#212121"/>
    </g>
    <g transform="translate(35 -672)">
      <circle id="Ellipse_56-6" data-name="Ellipse 56" cx="0.5" cy="0.5" r="0.5" transform="translate(20 672)" fill="#212121"/>
    </g>
    <g transform="translate(46 -672)">
      <circle id="Ellipse_56-7" data-name="Ellipse 56" cx="0.5" cy="0.5" r="0.5" transform="translate(20 672)" fill="#212121"/>
    </g>
    <g transform="translate(57 -672)">
      <circle id="Ellipse_56-8" data-name="Ellipse 56" cx="0.5" cy="0.5" r="0.5" transform="translate(20 672)" fill="#212121"/>
    </g>
    <g transform="translate(68 -672)">
      <circle id="Ellipse_56-9" data-name="Ellipse 56" cx="0.5" cy="0.5" r="0.5" transform="translate(20 672)" fill="#212121"/>
    </g>
    <g transform="translate(79 -672)">
      <circle id="Ellipse_56-10" data-name="Ellipse 56" cx="0.5" cy="0.5" r="0.5" transform="translate(20 672)" fill="#212121"/>
    </g>
    <g transform="translate(90 -672)">
      <circle id="Ellipse_56-11" data-name="Ellipse 56" cx="0.5" cy="0.5" r="0.5" transform="translate(20 672)" fill="#212121"/>
    </g>
    <g transform="translate(101 -672)">
      <circle id="Ellipse_56-12" data-name="Ellipse 56" cx="0.5" cy="0.5" r="0.5" transform="translate(20 672)" fill="#212121"/>
    </g>
    <g transform="translate(-20 -661)">
      <circle id="Ellipse_56-13" data-name="Ellipse 56" cx="0.5" cy="0.5" r="0.5" transform="translate(20 672)" fill="#212121"/>
    </g>
    <g transform="translate(-9 -661)">
      <circle id="Ellipse_56-14" data-name="Ellipse 56" cx="0.5" cy="0.5" r="0.5" transform="translate(20 672)" fill="#212121"/>
    </g>
    <g transform="translate(2 -661)">
      <circle id="Ellipse_56-15" data-name="Ellipse 56" cx="0.5" cy="0.5" r="0.5" transform="translate(20 672)" fill="#212121"/>
    </g>
    <g transform="translate(13 -661)">
      <circle id="Ellipse_56-16" data-name="Ellipse 56" cx="0.5" cy="0.5" r="0.5" transform="translate(20 672)" fill="#212121"/>
    </g>
    <g transform="translate(24 -661)">
      <circle id="Ellipse_56-17" data-name="Ellipse 56" cx="0.5" cy="0.5" r="0.5" transform="translate(20 672)" fill="#212121"/>
    </g>
    <g transform="translate(35 -661)">
      <circle id="Ellipse_56-18" data-name="Ellipse 56" cx="0.5" cy="0.5" r="0.5" transform="translate(20 672)" fill="#212121"/>
    </g>
    <g transform="translate(46 -661)">
      <circle id="Ellipse_56-19" data-name="Ellipse 56" cx="0.5" cy="0.5" r="0.5" transform="translate(20 672)" fill="#212121"/>
    </g>
    <g transform="translate(57 -661)">
      <circle id="Ellipse_56-20" data-name="Ellipse 56" cx="0.5" cy="0.5" r="0.5" transform="translate(20 672)" fill="#212121"/>
    </g>
    <g transform="translate(68 -661)">
      <circle id="Ellipse_56-21" data-name="Ellipse 56" cx="0.5" cy="0.5" r="0.5" transform="translate(20 672)" fill="#212121"/>
    </g>
    <g transform="translate(79 -661)">
      <circle id="Ellipse_56-22" data-name="Ellipse 56" cx="0.5" cy="0.5" r="0.5" transform="translate(20 672)" fill="#212121"/>
    </g>
    <g transform="translate(90 -661)">
      <circle id="Ellipse_56-23" data-name="Ellipse 56" cx="0.5" cy="0.5" r="0.5" transform="translate(20 672)" fill="#212121"/>
    </g>
    <g transform="translate(101 -661)">
      <circle id="Ellipse_56-24" data-name="Ellipse 56" cx="0.5" cy="0.5" r="0.5" transform="translate(20 672)" fill="#212121"/>
    </g>
    <g transform="translate(-20 -650)">
      <circle id="Ellipse_56-25" data-name="Ellipse 56" cx="0.5" cy="0.5" r="0.5" transform="translate(20 672)" fill="#212121"/>
    </g>
    <g transform="translate(-9 -650)">
      <circle id="Ellipse_56-26" data-name="Ellipse 56" cx="0.5" cy="0.5" r="0.5" transform="translate(20 672)" fill="#212121"/>
    </g>
    <g transform="translate(2 -650)">
      <circle id="Ellipse_56-27" data-name="Ellipse 56" cx="0.5" cy="0.5" r="0.5" transform="translate(20 672)" fill="#212121"/>
    </g>
    <g transform="translate(13 -650)">
      <circle id="Ellipse_56-28" data-name="Ellipse 56" cx="0.5" cy="0.5" r="0.5" transform="translate(20 672)" fill="#212121"/>
    </g>
    <g transform="translate(24 -650)">
      <circle id="Ellipse_56-29" data-name="Ellipse 56" cx="0.5" cy="0.5" r="0.5" transform="translate(20 672)" fill="#212121"/>
    </g>
    <g transform="translate(35 -650)">
      <circle id="Ellipse_56-30" data-name="Ellipse 56" cx="0.5" cy="0.5" r="0.5" transform="translate(20 672)" fill="#212121"/>
    </g>
    <g transform="translate(46 -650)">
      <circle id="Ellipse_56-31" data-name="Ellipse 56" cx="0.5" cy="0.5" r="0.5" transform="translate(20 672)" fill="#212121"/>
    </g>
    <g transform="translate(57 -650)">
      <circle id="Ellipse_56-32" data-name="Ellipse 56" cx="0.5" cy="0.5" r="0.5" transform="translate(20 672)" fill="#212121"/>
    </g>
    <g transform="translate(68 -650)">
      <circle id="Ellipse_56-33" data-name="Ellipse 56" cx="0.5" cy="0.5" r="0.5" transform="translate(20 672)" fill="#212121"/>
    </g>
    <g transform="translate(79 -650)">
      <circle id="Ellipse_56-34" data-name="Ellipse 56" cx="0.5" cy="0.5" r="0.5" transform="translate(20 672)" fill="#212121"/>
    </g>
    <g transform="translate(90 -650)">
      <circle id="Ellipse_56-35" data-name="Ellipse 56" cx="0.5" cy="0.5" r="0.5" transform="translate(20 672)" fill="#212121"/>
    </g>
    <g transform="translate(101 -650)">
      <circle id="Ellipse_56-36" data-name="Ellipse 56" cx="0.5" cy="0.5" r="0.5" transform="translate(20 672)" fill="#212121"/>
    </g>
    <g transform="translate(-20 -639)">
      <circle id="Ellipse_56-37" data-name="Ellipse 56" cx="0.5" cy="0.5" r="0.5" transform="translate(20 672)" fill="#212121"/>
    </g>
    <g transform="translate(-9 -639)">
      <circle id="Ellipse_56-38" data-name="Ellipse 56" cx="0.5" cy="0.5" r="0.5" transform="translate(20 672)" fill="#212121"/>
    </g>
    <g transform="translate(2 -639)">
      <circle id="Ellipse_56-39" data-name="Ellipse 56" cx="0.5" cy="0.5" r="0.5" transform="translate(20 672)" fill="#212121"/>
    </g>
    <g transform="translate(13 -639)">
      <circle id="Ellipse_56-40" data-name="Ellipse 56" cx="0.5" cy="0.5" r="0.5" transform="translate(20 672)" fill="#212121"/>
    </g>
    <g transform="translate(24 -639)">
      <circle id="Ellipse_56-41" data-name="Ellipse 56" cx="0.5" cy="0.5" r="0.5" transform="translate(20 672)" fill="#212121"/>
    </g>
    <g transform="translate(35 -639)">
      <circle id="Ellipse_56-42" data-name="Ellipse 56" cx="0.5" cy="0.5" r="0.5" transform="translate(20 672)" fill="#212121"/>
    </g>
    <g transform="translate(46 -639)">
      <circle id="Ellipse_56-43" data-name="Ellipse 56" cx="0.5" cy="0.5" r="0.5" transform="translate(20 672)" fill="#212121"/>
    </g>
    <g transform="translate(57 -639)">
      <circle id="Ellipse_56-44" data-name="Ellipse 56" cx="0.5" cy="0.5" r="0.5" transform="translate(20 672)" fill="#212121"/>
    </g>
    <g transform="translate(68 -639)">
      <circle id="Ellipse_56-45" data-name="Ellipse 56" cx="0.5" cy="0.5" r="0.5" transform="translate(20 672)" fill="#212121"/>
    </g>
    <g transform="translate(79 -639)">
      <circle id="Ellipse_56-46" data-name="Ellipse 56" cx="0.5" cy="0.5" r="0.5" transform="translate(20 672)" fill="#212121"/>
    </g>
    <g transform="translate(90 -639)">
      <circle id="Ellipse_56-47" data-name="Ellipse 56" cx="0.5" cy="0.5" r="0.5" transform="translate(20 672)" fill="#212121"/>
    </g>
    <g transform="translate(101 -639)">
      <circle id="Ellipse_56-48" data-name="Ellipse 56" cx="0.5" cy="0.5" r="0.5" transform="translate(20 672)" fill="#212121"/>
    </g>
    <g transform="translate(-20 -628)">
      <circle id="Ellipse_56-49" data-name="Ellipse 56" cx="0.5" cy="0.5" r="0.5" transform="translate(20 672)" fill="#212121"/>
    </g>
    <g transform="translate(-9 -628)">
      <circle id="Ellipse_56-50" data-name="Ellipse 56" cx="0.5" cy="0.5" r="0.5" transform="translate(20 672)" fill="#212121"/>
    </g>
    <g transform="translate(2 -628)">
      <circle id="Ellipse_56-51" data-name="Ellipse 56" cx="0.5" cy="0.5" r="0.5" transform="translate(20 672)" fill="#212121"/>
    </g>
    <g transform="translate(13 -628)">
      <circle id="Ellipse_56-52" data-name="Ellipse 56" cx="0.5" cy="0.5" r="0.5" transform="translate(20 672)" fill="#212121"/>
    </g>
    <g transform="translate(24 -628)">
      <circle id="Ellipse_56-53" data-name="Ellipse 56" cx="0.5" cy="0.5" r="0.5" transform="translate(20 672)" fill="#212121"/>
    </g>
    <g transform="translate(35 -628)">
      <circle id="Ellipse_56-54" data-name="Ellipse 56" cx="0.5" cy="0.5" r="0.5" transform="translate(20 672)" fill="#212121"/>
    </g>
    <g transform="translate(46 -628)">
      <circle id="Ellipse_56-55" data-name="Ellipse 56" cx="0.5" cy="0.5" r="0.5" transform="translate(20 672)" fill="#212121"/>
    </g>
    <g transform="translate(57 -628)">
      <circle id="Ellipse_56-56" data-name="Ellipse 56" cx="0.5" cy="0.5" r="0.5" transform="translate(20 672)" fill="#212121"/>
    </g>
    <g transform="translate(68 -628)">
      <circle id="Ellipse_56-57" data-name="Ellipse 56" cx="0.5" cy="0.5" r="0.5" transform="translate(20 672)" fill="#212121"/>
    </g>
    <g transform="translate(79 -628)">
      <circle id="Ellipse_56-58" data-name="Ellipse 56" cx="0.5" cy="0.5" r="0.5" transform="translate(20 672)" fill="#212121"/>
    </g>
    <g transform="translate(90 -628)">
      <circle id="Ellipse_56-59" data-name="Ellipse 56" cx="0.5" cy="0.5" r="0.5" transform="translate(20 672)" fill="#212121"/>
    </g>
    <g transform="translate(101 -628)">
      <circle id="Ellipse_56-60" data-name="Ellipse 56" cx="0.5" cy="0.5" r="0.5" transform="translate(20 672)" fill="#212121"/>
    </g>
  </g>
</svg>
