<?xml version="1.0"?>
<svg xmlns="http://www.w3.org/2000/svg" xmlns:xlink="http://www.w3.org/1999/xlink" version="1.1" id="Capa_1" x="0px" y="0px" viewBox="0 0 512 512" style="enable-background:new 0 0 512 512;" xml:space="preserve" width="512px" height="512px" class=""><g><g>
	<g>
		<g>
			<path d="M506.438,424.521L296.354,44.344c-7.854-14.198-22.813-23.01-39.021-23.01h-2.667c-16.208,0-31.166,8.813-39.021,23.021     L5.563,424.521C1.917,431.115,0,438.563,0,446.083c0,24.583,20,44.583,44.583,44.583h422.833c24.583,0,44.583-20,44.583-44.583     C512,438.563,510.083,431.115,506.438,424.521z M467.417,469.333H44.583c-12.813,0-23.25-10.427-23.25-23.25     c0-3.917,1-7.813,2.896-11.25L234.313,54.677c4.104-7.406,11.896-12.01,20.354-12.01h2.667c8.459,0,16.25,4.604,20.354,12     l210.083,380.167c1.896,3.438,2.896,7.333,2.896,11.25C490.667,458.906,480.229,469.333,467.417,469.333z" data-original="#000000" class="active-path" data-old_color="#000000" fill="#2962FF"/>
			<path d="M330.667,277.333h-48.25l36.813-92.042c1.313-3.281,0.917-7.01-1.063-9.938c-1.979-2.927-5.292-4.688-8.833-4.688     h-74.667c-4.5,0-8.521,2.833-10.042,7.083l-53.333,149.333c-1.167,3.26-0.667,6.896,1.313,9.729c2,2.833,5.25,4.521,8.729,4.521     h48.25l-36.813,92.042c-1.938,4.844-0.083,10.375,4.375,13.083c1.708,1.042,3.625,1.542,5.521,1.542c3.021,0,6-1.292,8.104-3.729     l128-149.333c2.708-3.156,3.333-7.615,1.583-11.396C338.625,279.76,334.833,277.333,330.667,277.333z M236.5,381.469     l18.729-46.844c1.313-3.281,0.917-7.01-1.063-9.938c-1.979-2.927-5.292-4.688-8.833-4.688h-48.854l45.708-128h51.396     l-36.813,92.042c-1.313,3.281-0.917,7.01,1.063,9.938c1.979,2.927,5.292,4.688,8.833,4.688h40.813L236.5,381.469z" data-original="#000000" class="active-path" data-old_color="#000000" fill="#2962FF"/>
		</g>
	</g>
</g></g> </svg>
