<svg xmlns="http://www.w3.org/2000/svg" width="600" height="847.36" viewBox="0 0 600 847.36"><title>Investor_404_Illustration_270320</title><g style="opacity:0.340000003576279"><g style="opacity:0.939999997615814"><path d="M533.66,214.94a250.25,250.25,0,0,1,40.2,83.5,54.15,54.15,0,0,1,1.9,12.7c.9,53.3-90.1,75.4-116.3,125.9-30.8,59.3,8.4,149-62.1,167.9-107.7,29-217.9-17-275.2-105.9a250.25,250.25,0,0,0,266.4,93.1c70.6-19,31.4-108.6,62.1-168,26.2-50.5,117.1-72.5,116.3-125.9a50.05,50.05,0,0,0-1.9-12.7A258.34,258.34,0,0,0,533.66,214.94Z" style="fill:#010101;opacity:0.740000009536743;isolation:isolate"/><path d="M329.36,213.54h1.5l.1.1h0a27.11,27.11,0,0,1,3.5,4l-1.4,1a28.4,28.4,0,0,0-5.1-5.3l1.1-1.4Zm9.1,12.5c.1.3.3.7.4,1.1h.1v.1h0c.1.5.2.9.3,1.4h0v.1h0v.1h0c0,.2.1.5.1.7l-1.7.1a25.85,25.85,0,0,0-1.6-7.2Zm1.2,15.4h0l-.1.1h-.3a9.14,9.14,0,0,1-.7,1.4l-1.5-.8a28.25,28.25,0,0,0,2.4-6.9Zm-8.1,11.9.8,1.6c-1.7.9-3.8.7-6.1.1H326a5.64,5.64,0,0,1-1.2-.4l.5-1.7c2.3.6,4.7,1.2,6.3.4Zm-14.1-2.6-.3,1.7-.4-.1h-.1a11.3,11.3,0,0,0-2.6,0h-.3a14.93,14.93,0,0,0-4,1.5l-.8-1.5a16.61,16.61,0,0,1,4.7-1.7,9.78,9.78,0,0,1,3.8.1Zm-15.3,5.9.9,1.5a8,8,0,0,1-1.6.8h-1.3l-.2.1h0a5.61,5.61,0,0,1-4.2-.5l.8-1.5c1.5,1.2,3.1,1,5.6-.4Zm-14.7-10.2a25.18,25.18,0,0,0,3.8,6.3l-1.3,1.1a28.32,28.32,0,0,1-2-2.8h0c0-.1-.1-.1-.1-.2h0v-.1h-.3c-.1-.2-.2-.5-.3-.7Zm-1.9-14.4a29.73,29.73,0,0,0-.1,7.3l-1.7.2a29.11,29.11,0,0,1,.1-7.8Zm4.6-14.3,1.3,1.1c-.2.2-.4.5-.6.7a30,30,0,0,0-3.3,5.4l-1.6-.7a11.94,11.94,0,0,1,.8-1.6h0v-.1h0v-.1h0v-.1h3ZM303,209l.5,1.6a33.49,33.49,0,0,0-6.6,3.2l-1-1.4c.5-.3,1-.7,1.6-1h1.2c.6-.3,1.2-.6,1.9-.9h0l.2-.1h1.7Zm15.5-.7-.4,1.7a25.51,25.51,0,0,0-7.3-.7l-.1-1.7h7.7Zm10.9,5.3-1.1,1.4c-1.1-.8-2.3-1.6-3.5-2.3l.9-1.5a16.65,16.65,0,0,1,2.8,1.8h.6Z" style="fill:#adaead;fill-opacity:0"/><path d="M533.66,214.94a250.25,250.25,0,0,1,31.3,70.7,54.15,54.15,0,0,1,1.9,12.7c.9,53.3-90.1,75.3-116.3,125.9-30.8,59.3,8.4,149-62.1,168-102.4,27.5-207-12.6-266.4-93.1a250.25,250.25,0,0,1-40.2-83.5C46,282.24,125,145,258.36,109.14,366.06,80.14,476.26,126,533.66,214.94Z" style="fill:#adaead;opacity:0.740000009536743;isolation:isolate"/></g></g><path d="M116.91,728.69s0,7.25-39.17-17.42c0,0-1.4-2.92,2.92-10.17l17.42-2.92v7.25C98.08,705.54,118.43,725.89,116.91,728.69Z" style="fill:#f5c696"/><path d="M157.77,383.47c2.12.43,5.18,1.32,5.7,3.3.88,3.32-8,6-7.84,11.14a6.5,6.5,0,0,0,2.25,4.26c5,4.93,16.87,4,24.05-1.75,9.66-7.71,8-21.85,7.77-24.31-2.13-18.54-20-28-22.14-29.1l4.63-9.39c7.05,2.65,29.51,12.08,37.05,33.48a40.77,40.77,0,0,1,2.25,10.53c1.18,17.27-9.67,34.14-22.8,43.34-16.08,11.27-28.7,6.2-32.81,15.53-4.95,11.22,9.59,27,6.69,29.13-1.71,1.27-8.66-2.8-12.4-8.53-7-10.76-19-35.07-9.23-66.17C140.94,394.93,147.6,381.83,157.77,383.47Z" style="fill:#3a458f"/><polygon points="129.22 475.26 163.78 606.56 189 703.33 207.4 703.33 180.6 475.26 129.22 475.26" style="fill:#766ab0;fill-rule:evenodd"/><polygon points="129.22 475.26 163.78 606.56 189 703.33 207.4 703.33 180.6 475.26 129.22 475.26" style="fill:#766ab0;fill-rule:evenodd"/><polygon points="129.22 475.26 163.78 606.56 189 703.33 207.4 703.33 180.6 475.26 129.22 475.26" style="fill:#231f20;fill-rule:evenodd;opacity:0.2"/><path d="M120,475.26c-.8,67.67-3.53,104.58-4.37,110.73s-13.53,45.26-38.08,117.34H96.58Q143.45,599.6,148.92,586c3.63-9.08,14.87-46,31.78-110.73Z" style="fill:#766ab0;fill-rule:evenodd"/><path d="M111.81,393.47s5.84-15.9,37.64-13.09c0,0,17.42,1.4,17.42,17.42s7.25,46.41,7.25,46.41l8.65,34.84-53.66,8.65-7.25,1.41L116,464.44Z" style="fill:#535aa8"/><path d="M127.82,383.42a15.46,15.46,0,0,0,18.83,0v-14.5l-18.83-11.57Z" style="fill:#e1b288"/><path d="M151,339.93s4.33,5.84,4.33,21.74c0,0,0,8.66-10.17,8.66s-18-9.24-18-9.24l-11-11.11,8.65-15.9Z" style="fill:#f5c696"/><path d="M151,339.93s18.83-4.33,10.17-17.42-17.42-1.4-17.42-1.4-17.42-21.75-23.14,2.8c0,0-20.35-8.65-14.5,18.82,0,0,1.4,13.1,20.34,24.67,0,0,5.85,4.33,1.4-10.17,0,0-15.9-11.57-2.92-14.5a5.08,5.08,0,0,1,4.33,2.93S133.55,334.08,151,339.93Z" style="fill:#422a27"/><path d="M188.74,700.7h18.82l27.59,8.65s10.17,5.85-4.32,4.33-40.57-1.4-40.57-1.4S183,713.8,188.74,700.7Z" style="fill:#f5c696"/><ellipse cx="140.22" cy="348.81" rx="1.17" ry="1.05" style="fill:#0b090f"/><ellipse cx="151.32" cy="348.35" rx="1.17" ry="1.05" style="fill:#0b090f"/><path d="M142.66,361.76a5.72,5.72,0,0,1,3.72-1.18,5.94,5.94,0,0,1,4.36,2.43h0s-3.05,1.5-5.36.86A4.92,4.92,0,0,1,142.66,361.76Z" style="fill:#f4ede9"/><path d="M119.41,391.49s11.81-3.28,10.17,36.24L129.46,446a9.82,9.82,0,0,0,8.65,9.7c7.72,1.05,21.4-3.86,42.32-5.73l38.94-8.06,2.45,14s-64.42,29.23-97.62,21.75a20,20,0,0,1-12.39-8.53c-7-10.76-19.06-35.08-9.24-66.18C102.57,402.94,109.24,389.85,119.41,391.49Z" style="fill:#3a458f"/><path d="M238.31,416.39l-15.2,40.92c-.47,1.4,1.4,5.26,2.8,4.56l17.54-3.39c.35-.12,3.51-7.6,3.74-8l12.86-34a1.63,1.63,0,0,0-1.64-2.23l-18.47,1.06A1.73,1.73,0,0,0,238.31,416.39Z" style="fill:#0b090f"/><path d="M240.64,418.73l-15.78,41.38A1.43,1.43,0,0,0,226.5,462l16.6-3.15a1.48,1.48,0,0,0,1.05-.82l15.78-39.4a1.39,1.39,0,0,0-1.4-1.87l-16.6,1.17A1.45,1.45,0,0,0,240.64,418.73Z" style="fill:#6751a2"/><path d="M219,443l13.91-12.86-3.28,9.36s-2.33,4.21-2.92,4.44a39.78,39.78,0,0,0,6.2-2.46s13-7.95,14.85-7.59.11,3,.11,3,3.51-2.57,4.68-1.63-2.69,4-2.69,4,1.75,2.46-2.34,5c0,0,3.28,1.75-2.1,4.79a95.47,95.47,0,0,1-23.74,7.37Z" style="fill:#f5c696"/><path d="M237.14,444.91a28.21,28.21,0,0,0,5.84-3.27c1.76-1.17,4-2.22,5.38-3.86.7-.82-.47-2.1-1.29-1.28-1.28,1.52-3.27,2.45-5,3.62a25.29,25.29,0,0,1-5.5,3c-.93.35-.47,2.11.59,1.75Z" style="fill:#d6a97f"/><path d="M240,449.94a77.48,77.48,0,0,0,8-4.71.9.9,0,0,0-.94-1.53c-2.59,1.65-5.3,3.3-8,4.71-.94.59,0,2.11.94,1.53Z" style="fill:#d6a97f"/><path d="M167.56,347c-5.09.38-14.33.43-14.18-.17.61-2.33,5-1.85,6-1.8,2.09-1.93,3-2.33,3.41-2.25l.09,0a43.36,43.36,0,0,0-5.49-1.47s-12.65-1.35-13.76-2.45S145,337,145,337s-3.62-.1-4-1.22,3.74-1.13,3.74-1.13,0-2.31,4-1.92c0,0-1.39-2.61,3.73-1.9a88.17,88.17,0,0,1,19.7,6.79Z" style="fill:#f5c696"/><path d="M155.75,333.18c-2.27-.35-4.55-.67-6.74-.91-.8-.1-.24.43.65.56,2.19.27,4.47.56,6.74.91.79.1.14-.46-.65-.56Z" style="fill:#d6a97f"/><path d="M153.16,335.35c-2.27-.34-4.54-.67-6.74-.91-.79-.1-.24.44.65.57,2.19.26,4.47.56,6.74.91.79.1.14-.47-.65-.57Z" style="fill:#d6a97f"/><path d="M152.62,337.74c-2.27-.35-4.54-.67-6.74-.91-.79-.1-.24.43.65.56,2.19.27,4.47.56,6.74.91.79.1.14-.46-.65-.56Z" style="fill:#d6a97f"/><text transform="translate(217.82 342.97) scale(1 0.99)" style="font-size:150px;fill:#b1afc2;font-family:OpenSans-ExtraBold, Open Sans;font-weight:800">404</text></svg>