<svg xmlns="http://www.w3.org/2000/svg" width="750.86" height="758.57" viewBox="0 0 750.86 758.57">
    <title>Investor_ConnectionLost_Illustration_270320</title>
    <g style="opacity:0.340000003576279">
        <g style="opacity:0.939999997615814">
            <path d="M590.69,225.62a257.9,257.9,0,0,1,41.42,86,55.73,55.73,0,0,1,1.95,13.08c.93,54.91-92.82,77.68-119.81,129.7-31.73,61.09,8.66,153.5-64,173-110.95,29.87-224.48-17.51-283.51-109.1A257.8,257.8,0,0,0,441.21,614.2c72.73-19.57,32.35-111.88,64-173.07,27-52,120.63-74.69,119.81-129.7a51.71,51.71,0,0,0-2-13.08A266.31,266.31,0,0,0,590.69,225.62Z" style="fill:#010101;opacity:0.740000009536743;isolation:isolate"/>
            <path d="M380.23,224.18h1.54l.11.1h0a28.73,28.73,0,0,1,3.6,4.12l-1.44,1a29.2,29.2,0,0,0-5.26-5.46l1.14-1.44Zm9.37,12.87c.1.31.31.73.41,1.14h.11v.1h0c.1.52.2.93.31,1.44h0v.11h0v.1h0c0,.2.1.51.1.72l-1.75.1a26.57,26.57,0,0,0-1.65-7.41Zm1.24,15.87h0l-.11.1h-.3a9.29,9.29,0,0,1-.73,1.44l-1.54-.82a29.12,29.12,0,0,0,2.47-7.11Zm-8.35,12.26.83,1.65c-1.75.92-3.92.72-6.29.1h-.31a5.92,5.92,0,0,1-1.23-.41l.51-1.75c2.37.61,4.84,1.23,6.49.41ZM368,262.5l-.31,1.75-.41-.1h-.11a10.84,10.84,0,0,0-2.67,0h-.31a15.21,15.21,0,0,0-4.12,1.54l-.83-1.54a17,17,0,0,1,4.84-1.75,10,10,0,0,1,3.92.1Zm-15.76,6.08.92,1.54a8.22,8.22,0,0,1-1.65.83h-1.33l-.21.1h0a5.76,5.76,0,0,1-4.33-.52l.83-1.54c1.54,1.24,3.19,1,5.77-.41Zm-15.15-10.51a25.94,25.94,0,0,0,3.92,6.49l-1.34,1.13a28.78,28.78,0,0,1-2.06-2.88h0c0-.1-.11-.1-.11-.21h0v-.1h-.3c-.11-.21-.21-.52-.31-.72Zm-2-14.83a31,31,0,0,0-.1,7.52l-1.75.2a30,30,0,0,1,.1-8Zm4.74-14.74,1.34,1.14c-.2.2-.41.51-.62.72a30.86,30.86,0,0,0-3.39,5.56l-1.65-.72a11.5,11.5,0,0,1,.82-1.65h0v-.1h0v-.1h0v-.11h3.09Zm13.19-9,.52,1.65a34.14,34.14,0,0,0-6.8,3.3l-1-1.45c.51-.31,1-.72,1.64-1h1.24c.62-.31,1.24-.61,2-.92h0l.2-.11h1.76Zm16-.72-.41,1.75a26.36,26.36,0,0,0-7.52-.72L361,218.1h7.93Zm11.23,5.46-1.14,1.44c-1.13-.82-2.37-1.65-3.6-2.37l.93-1.54a17,17,0,0,1,2.88,1.85h.62Z" style="fill:#adaead;fill-opacity:0"/><path d="M590.69,225.62a258.21,258.21,0,0,1,32.25,72.83,55.89,55.89,0,0,1,1.95,13.09c.93,54.9-92.82,77.57-119.81,129.7-31.73,61.08,8.66,153.49-64,173.06-105.49,28.33-213.25-13-274.44-95.9a257.78,257.78,0,0,1-41.41-86c-37-137.43,44.4-278.77,181.82-315.75C418,86.75,531.56,134,590.69,225.62Z" style="fill:#adaead;opacity:0.740000009536743;isolation:isolate"/>
        </g>
    </g>
    <text transform="translate(179.33 303.67) scale(1 0.99)" style="font-size:60px;fill:#b1afc2;font-family:OpenSans-ExtraBold, Open Sans;font-weight:800">No activity<tspan x="0" y="72.73">as yet</tspan></text>
    <path d="M417.11,405.58a103.83,103.83,0,0,1,7.95,8.9l-1.1,13.3s-18.2-4.4-22.9-8c0,0-1.8-1.8,2.2-1.6l-3.8-1.6s-2-1.6.7-2.5l3.6,1.1-6.4-2.7s-2.5-2.4,1.3-2.9l6.7,2.4-6-2.7s-2.9-2.2,1.1-2.5l15.6,4.9a2.7,2.7,0,0,1-1.52.33c-2.36-.25-4-4.18-4.15-7.27a10,10,0,0,1,.94-4.52C413.2,401.83,415.15,403.61,417.11,405.58Z" style="fill:#f8af84"/><path d="M411.18,425.51l11.41-15.58a5.29,5.29,0,1,0-1.61-9.88,5.28,5.28,0,1,0-9.34,3.42l-11.27,15.39a5.29,5.29,0,1,0,1.26,9.81,5.29,5.29,0,1,0,9.55-3.16Zm6.64-20.58.36-.18c0,.16,0,.31,0,.46Z" style="fill:#b2b1b2"/>
    <path d="M548.22,739.7s0,7.12,40.2-17.13c0,0,1.45-2.87-3-10l-17.88-2.87v7.13C567.54,716.94,546.66,736.94,548.22,739.7Z" style="fill:#f5c696"/><polygon points="535.58 490.55 500.09 619.63 474.2 714.76 455.31 714.76 482.83 490.55 535.58 490.55" style="fill:#766ab0;fill-rule:evenodd"/><polygon points="535.58 490.55 500.09 619.63 474.2 714.76 455.31 714.76 482.83 490.55 535.58 490.55" style="fill:#231f20;fill-rule:evenodd;opacity:0.2"/>
    <path d="M545.07,490.55c.82,66.53,3.62,102.82,4.48,108.86s13.9,44.5,39.1,115.35H569.08Q521,612.8,515.36,599.41c-3.74-8.93-15.27-45.21-32.64-108.86Z" style="fill:#766ab0;fill-rule:evenodd"/>
    <path d="M505,406.93c-1.52,23.41-17.38,41.16-35.11,43.13-19.68,2.19-34.79-15.85-35.71-17a47.21,47.21,0,0,1-9.08-18.59l-7.92,12a56.92,56.92,0,0,0,31.14,40.22c6.44,3.3,16.58,8.32,29,6.3a23.42,23.42,0,0,0,4.26-1c9.88-3.31,16.62-8.48,21.14-14.29,10.85-13.95,8.4-30.38,7.77-34.58A49.65,49.65,0,0,0,505,406.93Z" style="fill:#3a458f"/>
    <path d="M553.45,410.15s-6-15.63-38.65-12.88c0,0-17.88,1.38-17.88,17.13S489.48,460,489.48,460l-8.88,34.25,55.09,8.5,7.44,1.38,6-24.25Z" style="fill:#535aa8"/><path d="M536.62,398.66a16.41,16.41,0,0,1-19,3.79l-2.8-14,16.71-15Z" style="fill:#e1b288"/><path d="M504.91,361.41s-3.22,6.5-.15,21.83c0,0,1.67,8.34,11.91,6.29S533,377,533,377l8.91-12.92-11.78-13.58Z" style="fill:#f5c696"/><ellipse cx="508.12" cy="371.1" rx="1" ry="0.9" transform="translate(-63.03 107.11) rotate(-11.34)" style="fill:#0b090f"/><ellipse cx="517.36" cy="368.84" rx="1" ry="0.9" transform="translate(-62.41 108.88) rotate(-11.34)" style="fill:#0b090f"/><path d="M504.91,361.41s-19.78-.38-13.6-14.74,17.26-4.87,17.26-4.87,13.33-24.48,23.84-2c0,0,18.81-12.44,18.23,15.22,0,0,1.12,12.91-15.71,27.88,0,0-5,5.35-3.37-9.52,0,0,13.76-14.36.14-14.56a5.24,5.24,0,0,0-3.79,3.69S521.32,352.26,504.91,361.41Z" style="fill:#422a27"/><path d="M474.47,712.18H455.15l-28.33,8.51s-10.44,5.74,4.44,4.25,41.65-1.38,41.65-1.38S480.35,725.05,474.47,712.18Z" style="fill:#f5c696"/><path d="M517.5,380.77a22.91,22.91,0,0,1-3.59,1.7,22.06,22.06,0,0,1-4.3,1.13,5.1,5.1,0,0,0,5.19.55A5.22,5.22,0,0,0,517.5,380.77Z" style="fill:#f4ede9"/><path d="M463.5,505.07a57.62,57.62,0,0,0,10.75-2.94l9.47,9.41s-15.09,11.09-20.87,12.36c0,0-2.54.22.19-2.71l-3.67,1.88s-2.51.5-1.46-2.15l3.16-2L454.88,522s-3.44.37-1.38-2.86l6.15-3.58-5.93,2.85s-3.55.8-1.2-2.45l13.8-8.78a2.76,2.76,0,0,1-.74,1.38c-2.2,2.12-8.1.18-8.23-1.51,0-.37.22-.82,1-1.37C460,505.59,461.69,505.38,463.5,505.07Z" style="fill:#f8af84"/><path d="M217.06,681.07s-11.05,8.58-10.31,10.51c12.86,12.72,16.61,30,16.61,30h19.69l-5.63-4.19s-4.89-36.08-4.93-37.87Z" style="fill:#d37c5a"/><path d="M335.53,648.15s21.84,4.29,24.5,5.33c0,8.66-16.71,36-24.69,36-6.06,0-6.55-5.51-6.55-6.84,0-2.71,4.75-3.32,5.22-3.8a86.63,86.63,0,0,0,4.37-10.72c0-.67-2.46-1-5-1q-5.31,0-10.38.09" style="fill:#d37c5a"/><path d="M285.49,669.28l-13,52.34h24.29L291,717.7s40.73-63.38,44.56-69.56c2.77-4.07,13.36-22,17.85-24.87,8.95-5.62,30-6.93,30-31.24,0-3.13-3.3-4.55-4.25-4.55s-11.21,1.8-12.73,1.8c-6,0-13-16.57-25.81-16.57-39.42,0,8.54,55.7-98.63,55.7-20.73,0-27.46-2.32-29.78-2.32-6.94,0-39.45,37-39.45,72.71,0,11.61,1.16,21.66,1.54,22.82h21.6c0-.91-5.86-4.92-5.86-6.13,0-14.79,21.23-38.92,95.49-46.21" style="fill:#dd8d68"/><path d="M329.53,616.78C317.81,618,314.18,599,314.18,585.1c6.91-3.32,21.54-2.69,24.14-1.89C345,599.37,339.67,615.7,329.53,616.78Z" style="fill:#fed386"/><path d="M350.14,603.28c-2.39,2.92-7.69,15.58-3.55,17.17,6.18,2.37,15.43-11,16.59-13.15C359,606.89,351.63,604.08,350.14,603.28Z" style="fill:#f4836b"/><path d="M352.59,610.82c1.59-2.33,2.55-4.08,3.17-5.18" style="fill:none;stroke:#d24e36;stroke-linecap:round;stroke-linejoin:round"/><path d="M348.83,602.6c15.55,8.42,29.32,4.91,33.67-2.6" style="fill:none;stroke:#3a3b3a;stroke-linecap:round;stroke-miterlimit:10;stroke-width:2px"/><ellipse cx="378.33" cy="587.87" rx="3.11" ry="1.4" style="fill:#3a3b3a"/><ellipse cx="352.21" cy="586.3" rx="1.57" ry="2.96" style="fill:#3a3b3a"/><path d="M214,626.7c-1.81,0-12.59-5.53-12.59-16.77,0-1.38,1.07-10,12.42-10a15.11,15.11,0,0,1,3.3.92c.3,0,.84-1.72.84-2.94s-3.33-14.31-16.48-14.31c-5.86,0-23.18,7-23.18,25.95,0,9.24,12.58,28,23.69,28C206.37,637.57,215.84,626.7,214,626.7Z" style="fill:#dd8d68"/><path d="M309.43,611.24c9.85,13.75,29.71,22.93,34.13,24.37" style="fill:none;stroke:#5bc7d6;stroke-linecap:round;stroke-miterlimit:10;stroke-width:7px"/><path d="M423.33,415.18s-8.79-3.11-8.9-6.75,1.29-2.15,1.29-2.15l7,5.9Z" style="fill:#f8af84"/><path d="M542,405.63s-11.81-3.27-10.17,36.24l.11,18.24a9.58,9.58,0,0,1-2.44,6.43l-57.83,36.6h0L484.07,513a332.67,332.67,0,0,0,53.1-21.2c4.46-2.28,9.27-3.74,12.4-8.54,7-10.76,19-35.07,9.23-66.17C558.8,417.09,552.14,404,542,405.63Z" style="fill:#3a458f"/>
</svg>