<svg xmlns="http://www.w3.org/2000/svg" width="72.439" height="63.393" viewBox="0 0 72.439 63.393">
    <defs>
        <style>
            .cls-1{fill:#565ebf}
        </style>
    </defs>
    <path id="Union_26" d="M31.888 63.393a32.31 32.31 0 0 1-4.972-.383v-8.833a11.2 11.2 0 0 0 2.4.855 11.5 11.5 0 0 0 5.709-.125 11.392 11.392 0 0 0 6.875-5.424c-.186.857-.354 1.728-.517 2.571v.02c-.563 2.915-1.094 5.67-2.266 7.746a6.821 6.821 0 0 1-2.317 2.515 6.537 6.537 0 0 1-1.674.729 8.738 8.738 0 0 1-2.1.31c-.374.014-.757.019-1.131.019zm25.527-1.867a3.884 3.884 0 0 1-1.023-2.642l-.014-.687.014-.69a3.832 3.832 0 0 1 1.04-2.64 4.215 4.215 0 0 1 5.429 0 3.82 3.82 0 0 1 1.04 2.64c.02.236.031.465.031.69s-.011.451-.031.687a3.886 3.886 0 0 1-1.023 2.642 4.263 4.263 0 0 1-5.463 0zm1.1-5.8a2.816 2.816 0 0 0-.654 1.865l-.014.607.014.607a2.814 2.814 0 0 0 .654 1.864 2.387 2.387 0 0 0 3.269 0 2.814 2.814 0 0 0 .654-1.864c.009-.108.014-.31.014-.607s-.006-.5-.014-.607a2.816 2.816 0 0 0-.654-1.865 2.38 2.38 0 0 0-3.269 0zm12.475 6.631q-2.5 0-2.5-2.8v-4.29h-1.271a.346.346 0 0 1-.257-.1.334.334 0 0 1-.1-.255V54.4a.362.362 0 0 1 .1-.264.334.334 0 0 1 .257-.106h1.274v-2.668a.372.372 0 0 1 .1-.264.334.334 0 0 1 .257-.1h.709a.372.372 0 0 1 .266.1.365.365 0 0 1 .1.264v2.673h2a.363.363 0 0 1 .266.106.355.355 0 0 1 .1.264v.511a.328.328 0 0 1-.1.255.377.377 0 0 1-.266.1h-2v4.177a2.283 2.283 0 0 0 .269 1.232.99.99 0 0 0 .909.415h.983a.334.334 0 0 1 .257.1.361.361 0 0 1 .1.264v.528a.361.361 0 0 1-.1.264.324.324 0 0 1-.257.106zm-21.8 0a.612.612 0 0 1-.6-.4l-2.99-7.424a.542.542 0 0 1-.017-.161.313.313 0 0 1 .1-.239.3.3 0 0 1 .226-.1h.74a.41.41 0 0 1 .386.256l2.483 6.385 2.48-6.385a.409.409 0 0 1 .137-.176.394.394 0 0 1 .249-.08h.743a.308.308 0 0 1 .226.1.324.324 0 0 1 .1.239l-.034.161-2.98 7.425a.609.609 0 0 1-.594.4zM12.5 56.86a32.054 32.054 0 0 1-6.4-6.523 31.536 31.536 0 0 1-4.008-29.951 31.691 31.691 0 0 1 6.48-10.306A31.924 31.924 0 0 1 30.8.022C31.174.008 31.553 0 31.931 0a32.2 32.2 0 0 1 6.258.613A31.879 31.879 0 0 1 60.972 18.59a31.228 31.228 0 0 1 1.989 5.774 31.815 31.815 0 0 1 .84 6.229 4.6 4.6 0 0 1-.163 1.422 3.959 3.959 0 0 1-.557 1.181 5.969 5.969 0 0 1-2.089 1.774 16.584 16.584 0 0 1-3.023 1.226c-1.111.35-2.334.658-3.517.959h-.006c-3.76.954-7.646 1.944-9.441 4.38a14.278 14.278 0 0 0-1.717 3.15c.014-.216.02-.437.02-.658a11.149 11.149 0 0 0-.894-4.4 11.306 11.306 0 0 0-1.049-1.921 11.367 11.367 0 0 0-3.075-3.052 11.432 11.432 0 0 0-12.7-.017 11.648 11.648 0 0 0-1.68 1.371 11.384 11.384 0 0 0-1.392 1.66 11.239 11.239 0 0 0-1.969 6.281v17.378A32.069 32.069 0 0 1 12.5 56.86zm14.416-12.866a4.979 4.979 0 1 1 4.977 4.944 4.961 4.961 0 0 1-4.977-4.944z" class="cls-1" data-name="Union 26"/>
</svg>
