<?xml version="1.0"?>
<svg xmlns="http://www.w3.org/2000/svg" xmlns:xlink="http://www.w3.org/1999/xlink" version="1.1" id="Capa_1" x="0px" y="0px" viewBox="0 0 480 480" style="enable-background:new 0 0 480 480;" xml:space="preserve" width="512px" height="512px"><g><g>
	<g>
		<path d="M40,464V0H24v16H0v16h24v96H0v16h24v96H0v16h24v96H0v16h24v104c0,4.418,3.582,8,8,8h448v-16H40z" data-original="#000000" class="active-path" data-old_color="#000000" fill="#2962FF"/>
	</g>
</g><g>
	<g>
		<path d="M439.664,333.688c-0.937-3.148-3.703-5.404-6.976-5.688c-3.283-0.348-6.428,1.412-7.848,4.392l-15.064,30.168    l-26.128-84.912c-0.995-3.245-3.929-5.509-7.32-5.648c-3.411-0.22-6.564,1.821-7.76,5.024L347.2,330.488l-27.312-163.8    c-0.727-4.358-4.849-7.301-9.208-6.574c-1.642,0.274-3.158,1.054-4.336,2.23l-23.768,23.768l-27.264-61.36    c-1.797-4.036-6.526-5.851-10.563-4.054c-2.05,0.913-3.622,2.645-4.333,4.774l-24.112,72.32l-24.656-80.144    c-1.299-4.223-5.776-6.593-9.999-5.294c-1.248,0.384-2.383,1.067-3.305,1.99l-22.528,22.528l-20.152-67.2    c-1.269-4.232-5.728-6.635-9.96-5.366c-1.269,0.38-2.423,1.07-3.36,2.006L97.24,91.416L70.656,51.56l-13.312,8.88l32,48    c1.319,2.005,3.469,3.312,5.856,3.56l0,0c2.386,0.237,4.753-0.609,6.448-2.304l22.528-22.528l20.152,67.2    c1.269,4.232,5.728,6.635,9.96,5.366c1.269-0.38,2.423-1.07,3.36-2.006l22.6-22.6l28.096,91.296    c1.33,4.213,5.824,6.551,10.037,5.221c2.425-0.766,4.341-2.638,5.163-5.045l25.488-76.424l23.616,53.144    c1.07,2.408,3.257,4.134,5.848,4.616c2.591,0.467,5.247-0.357,7.12-2.208l21.008-21.008l29.448,176.664    c0.725,4.358,4.846,7.303,9.205,6.578c2.759-0.459,5.077-2.325,6.115-4.922L375.016,304l25.336,82.352    c1.295,4.224,5.77,6.598,9.994,5.303c2.096-0.643,3.836-2.117,4.814-4.079l14.976-29.976l18.2,60.68l15.328-4.592L439.664,333.688    z" data-original="#000000" class="active-path" data-old_color="#000000" fill="#2962FF"/>
	</g>
</g><g>
	<g>
		<rect x="320" y="16" width="16" height="16" data-original="#000000" class="active-path" data-old_color="#000000" fill="#2962FF"/>
	</g>
</g><g>
	<g>
		<rect x="352" y="16" width="96" height="16" data-original="#000000" class="active-path" data-old_color="#000000" fill="#2962FF"/>
	</g>
</g><g>
	<g>
		<rect x="320" y="48" width="128" height="16" data-original="#000000" class="active-path" data-old_color="#000000" fill="#2962FF"/>
	</g>
</g><g>
	<g>
		<rect x="320" y="80" width="128" height="16" data-original="#000000" class="active-path" data-old_color="#000000" fill="#2962FF"/>
	</g>
</g></g> </svg>
