<?xml version="1.0"?>
<svg xmlns="http://www.w3.org/2000/svg" id="Capa_1" enable-background="new 0 0 511.764 511.764" height="512px" viewBox="0 0 511.764 511.764" width="512px"><g><g><path d="m454.043 122.385h-146.393c-4.143 0-7.5 3.357-7.5 7.5s3.357 7.5 7.5 7.5h146.393c13.876 0 25.164 11.288 25.164 25.164v226.433h-446.65v-226.433c0-13.876 11.288-25.164 25.164-25.164h146.393c4.143 0 7.5-3.357 7.5-7.5s-3.357-7.5-7.5-7.5h-146.393c-22.146 0-40.164 18.018-40.164 40.164v238.047c0 22.146 18.018 40.164 40.164 40.164h113.548v31.032l-16.701 24.972h-15.945c-4.143 0-7.5 3.357-7.5 7.5s3.357 7.5 7.5 7.5h235.604c4.143 0 7.5-3.357 7.5-7.5s-3.357-7.5-7.5-7.5h-16.031l-16.701-24.972v-31.032h112.548c22.146 0 40.164-18.018 40.164-40.164v-238.047c0-22.147-18.018-40.164-40.164-40.164zm-281.43 374.379 10.162-15.195h147.213l10.162 15.195zm281.43-71.004h-209.725c-4.143 0-7.5 3.357-7.5 7.5s3.357 7.5 7.5 7.5h82.177v25.809h-140.226v-25.809h26.088c4.143 0 7.5-3.357 7.5-7.5s-3.357-7.5-7.5-7.5h-154.636c-12.727 0-23.27-9.499-24.93-21.778h446.182c-1.66 12.279-12.203 21.778-24.93 21.778z" data-original="#000000" class="active-path" data-old_color="#000000" fill="#2962FF"/><path d="m162.791 281.572c0 51.33 41.761 93.091 93.091 93.091s93.091-41.761 93.091-93.091-41.761-93.091-93.091-93.091-93.091 41.761-93.091 93.091zm30.484-46.623c-1.82 6.001-2.808 12.36-2.808 18.947 0 12.576 3.626 24.645 10.126 34.931-6.903 7.935-11.927 17.113-14.861 27.018-5.079-10.354-7.942-21.984-7.942-34.273.001-17.462 5.764-33.602 15.485-46.623zm62.607 124.714c-23.058 0-43.806-10.052-58.114-25.997.628-12.127 4.969-23.523 12.45-32.951 4.094 3.998 8.744 7.493 13.877 10.352 3.617 2.017 8.186.717 10.201-2.902 2.016-3.618.717-8.186-2.902-10.201-15.993-8.909-25.928-25.794-25.928-44.067 0-27.799 22.616-50.415 50.415-50.415s50.415 22.616 50.415 50.415c0 26.67-20.838 48.772-47.438 50.319-4.135.24-7.292 3.787-7.052 7.923.231 3.987 3.537 7.064 7.48 7.064.146 0 .294-.004.442-.013 16.293-.948 30.916-7.841 41.821-18.489 7.482 9.431 11.817 20.835 12.444 32.966-14.306 15.944-35.054 25.996-58.111 25.996zm78.091-78.091c0 12.282-2.859 23.905-7.932 34.254-2.934-9.904-7.959-19.084-14.862-27.017 6.41-10.129 10.118-22.113 10.118-34.913 0-6.587-.989-12.946-2.808-18.947 9.721 13.021 15.484 29.161 15.484 46.623z" data-original="#000000" class="active-path" data-old_color="#000000" fill="#2962FF"/><path d="m121.031 108.746h93.615l27.911 27.912c3.674 3.673 8.498 5.509 13.324 5.509 4.825 0 9.651-1.836 13.325-5.51l27.91-27.911h41.091c4.143 0 7.5-3.357 7.5-7.5s-3.357-7.5-7.5-7.5h-44.197c-1.989 0-3.896.79-5.304 2.197l-30.106 30.107c-1.5 1.498-3.938 1.497-5.437.001l-30.107-30.108c-1.407-1.407-3.314-2.197-5.304-2.197h-96.722c-12.112 0-21.966-9.854-21.966-21.966v-34.814c.001-12.112 9.855-21.966 21.966-21.966h269.703c12.111 0 21.965 9.854 21.965 21.966v34.815c0 12.111-9.854 21.965-21.965 21.965h-20.563c-4.143 0-7.5 3.357-7.5 7.5s3.357 7.5 7.5 7.5h20.563c20.383 0 36.965-16.582 36.965-36.965v-34.815c0-20.383-16.582-36.966-36.965-36.966h-269.703c-20.383 0-36.965 16.583-36.965 36.966v34.814c0 20.383 16.583 36.966 36.966 36.966z" data-original="#000000" class="active-path" data-old_color="#000000" fill="#2962FF"/><path d="m246.523 52.855c-1.131 6.834 4.722 12.688 11.556 11.557 4.14-.685 7.478-4.024 8.162-8.163 1.129-6.833-4.722-12.684-11.555-11.555-4.139.684-7.478 4.022-8.163 8.161z" data-original="#000000" class="active-path" data-old_color="#000000" fill="#2962FF"/><path d="m187.967 54.553c0 5.514 4.486 10 10 10s10-4.486 10-10-4.486-10-10-10-10 4.486-10 10z" data-original="#000000" class="active-path" data-old_color="#000000" fill="#2962FF"/><path d="m129.552 54.553c0 5.514 4.486 10 10 10s10-4.486 10-10-4.486-10-10-10-10 4.486-10 10z" data-original="#000000" class="active-path" data-old_color="#000000" fill="#2962FF"/><path d="m304.938 52.855c-1.131 6.834 4.722 12.688 11.556 11.557 4.14-.685 7.478-4.024 8.162-8.163 1.129-6.833-4.722-12.684-11.555-11.555-4.139.684-7.478 4.022-8.163 8.161z" data-original="#000000" class="active-path" data-old_color="#000000" fill="#2962FF"/><path d="m383.211 54.553c0-5.514-4.486-10-10-10s-10 4.486-10 10 4.486 10 10 10 10-4.486 10-10z" data-original="#000000" class="active-path" data-old_color="#000000" fill="#2962FF"/></g></g> </svg>
