<svg xmlns="http://www.w3.org/2000/svg" width="272.485" height="266.358" viewBox="0 0 272.485 266.358">
  <g id="Group_115" data-name="Group 115" transform="translate(-51.257 -158)">
    <g id="Scene_Wireframe" data-name="Scene/Wireframe" transform="translate(51.257 158)" opacity="0.496">
      <path id="Twisted-Leaf" d="M627.793,194.519a2.886,2.886,0,0,0-.929-.25,15.075,15.075,0,0,0-2.905-.27,53.607,53.607,0,0,0-8.983.807c-1.87.323-4.13,1.41-5.99.82a12.752,12.752,0,0,0-9.59.49,13.439,13.439,0,0,0-6.19,6.648,16.9,16.9,0,0,0-1.166,2.979c-.092.211-.181.423-.261.639-.227.612-.43,1.235-.619,1.859-.081.266-.284.854-.043.968a17.7,17.7,0,0,0-1.011,2.2,31.71,31.71,0,0,0-2.022,6.945,10.869,10.869,0,0,0-.012,2.6c.049.428.029,1.287.319,1.612.615.69.931-.276.862-.736-.53-3.506.493-6.8,1.7-10.094a20.739,20.739,0,0,1,3.514-5.846,14.754,14.754,0,0,1,4.02-3.5,62.884,62.884,0,0,1,6.122-3.035c1.363-.618,2.729-1.22,4.13-1.753a4.118,4.118,0,0,1,1.148-.424,11.026,11.026,0,0,1,2.472.737,53.667,53.667,0,0,0,7.072,1.842,9.121,9.121,0,0,0,4.42-.54,4.139,4.139,0,0,0,.7-.379,10.1,10.1,0,0,0,2.96-1.675,11.8,11.8,0,0,0,1.387-1.494.783.783,0,0,0,.183-.492c.1-.05.158-.108.172-.176.1-.5-.85-.51-1.461-.48" transform="translate(-359.502 -121.143)" fill="#89c5cc" fill-rule="evenodd"/>
      <path id="Fill-16" d="M4.645,0C3.889,0,3.135.015,2.38.054,1.8.084.925-.035.438.322-.068.693-.033,1.452.046,1.988A12.063,12.063,0,0,0,3.617,9.345a20.671,20.671,0,0,0,11.507,5.363A9.375,9.375,0,0,0,23.449,12.3a34.457,34.457,0,0,1,3.6,10.024,23.9,23.9,0,0,1,.357,5.152c-.036,1.118-.1,2.233-.218,3.345a3.94,3.94,0,0,0-.11,1.672.768.768,0,0,0,1.314.131,3.738,3.738,0,0,0,.287-1.579c.1-.748.184-1.5.248-2.249.1-1.217.179-2.438.174-3.659a27.161,27.161,0,0,0-1.465-8.106A27.812,27.812,0,0,0,19.356,4.107,15.969,15.969,0,0,0,10.76.629,43.3,43.3,0,0,0,4.645,0" transform="translate(21.409 118.032) rotate(-39)" fill="#dde3e9" fill-rule="evenodd"/>
      <path id="Leaf" d="M31.714,70.385a124.243,124.243,0,0,0-2.45-14.523c-.7-2.821-1.6-5.583-2.413-8.372q.11.525.194,1.055c-.284-.832-.876-1.627-1.217-2.456-.38-.924-.686-1.885-.976-2.839-.567-1.863-1.1-3.729-1.739-5.571-.711-2.052-1.529-4.069-2.292-6.1a49.532,49.532,0,0,0-2.1-5.185c-.459-.9-.871-1.862-1.322-2.777-.151-.306-1.446-3.727-1.436-3.727.214,0,1.017,1.521,1.15,1.744.389.653.719,1.332,1.053,2.012A8.959,8.959,0,0,1,18.9,21.3c.111-.229.889-1.92,1.143-1.92a26.522,26.522,0,0,1-1.191,3.473,5.782,5.782,0,0,0-.424.759c-.127.391-.061.293.043.646a18.535,18.535,0,0,0,.882,1.9,13.518,13.518,0,0,0,.858,2,51.765,51.765,0,0,1,2.235,5.828,12.478,12.478,0,0,1,.759-2.72,10.032,10.032,0,0,1,.946-2.151c.217,0-.613,3.11-.726,3.378-.209.5-.539.982-.713,1.49-.191.557.145,1.059.359,1.629.787,2.1,1.477,4.216,2.107,6.362,3.661-1.6,4.389-6.323,4.628-9.8a24.317,24.317,0,0,0-.825-7.5,50.1,50.1,0,0,0-3.629-9.4,33.631,33.631,0,0,0-6.815-9.412A35.964,35.964,0,0,0,13.71,2,10.276,10.276,0,0,0,11.065.637,9.581,9.581,0,0,0,9.73.311C9.386.251,8.685-.068,8.4.013a8.991,8.991,0,0,0-5.43,3.7A17.409,17.409,0,0,0,.447,10.061a20.19,20.19,0,0,0-.189,7.415A45.839,45.839,0,0,0,1.7,23.05c1.983,6.521,5.46,13.513,11.7,17.09a18.984,18.984,0,0,0,6.559,2.194c.542.085,1.083.165,1.632.2.37.021,1.585-.225,1.853-.065.367.219.577,1.458.737,1.908,1.215,3.416,2.3,6.872,3.286,10.358,1.048,3.709,1.881,7.454,2.575,11.24.3,1.611.582,3.219.827,4.838.057.377,0,1.562.366,1.894a.444.444,0,0,0,.7-.133c.241-.448-.151-1.685-.214-2.184" transform="matrix(0.799, -0.602, 0.602, 0.799, 0, 64.091)" fill="#c1dee2" fill-rule="evenodd"/>
      <path id="Fill-10" d="M628.469,231.257a18.322,18.322,0,0,0-4.146-.244,25.762,25.762,0,0,0-19.012,9.02c-3.946,4.671-5.031,10.479-5.811,16.35-.077.583-.11,1.162-.154,1.746-.009.125-.023.237-.038.342a.754.754,0,0,0-.286.945,39.036,39.036,0,0,0-1.737,4.557c-1.443,4.6-2.911,9.29-2.007,14.128a67.6,67.6,0,0,1,1.187-8c.031-.15.063-.3.1-.448l.01-.047a17.5,17.5,0,0,1,.73-2.346l.009-.025c.039-.1.081-.2.122-.3.085-.207.173-.415.265-.621q.047-.105.09-.212c.433-1.061.616-2.257,1-3.355q.139-.374.291-.746l.018-.043c.275-.666.578-1.323.9-1.974a2.433,2.433,0,0,0,.418-.752,4.711,4.711,0,0,0,.347-.67q.283-.548.568-1.1l-.017.006q.286-.526.571-1.047l.126-.229.2-.365c.635-1.137,1.309-2.251,2.009-3.352.25-.393.846-.956.961-1.4,0-.016.005-.032.008-.047a25.027,25.027,0,0,1,5.362-5.657c-.253.274-.792,1.2-.934,1.387-.436.563-.909,1.088-1.383,1.619a34.431,34.431,0,0,0-2.418,2.969,56.4,56.4,0,0,0-3.613,5.931c-.01.012-.022.023-.032.035a14.443,14.443,0,0,0-1.3,2.491c1.575-.73,3.317-1.2,4.933-1.853a40.531,40.531,0,0,0,4.694-2.21,52.363,52.363,0,0,0,6-3.824,23.774,23.774,0,0,0,5.626-5.164,27.124,27.124,0,0,0,4.748-7.444,22.354,22.354,0,0,0,1.2-4.269c.011-.063.025-.132.04-.2a13.975,13.975,0,0,0,.672-1.541c.3-.833,1.018-1.749-.323-2.042" transform="translate(-363.777 -143.74)" fill="#69a1ac" fill-rule="evenodd"/>
      <path id="Leave-the-Leaf_" data-name="Leave-the-Leaf!" d="M6.914,15.269A5.426,5.426,0,0,0,6.7,17.091c.011.156.143,1.292.27,1.292.3,0-.112-2.932-.056-3.114M1.767,12.71c.018-.007.344-.633.45-.815.227-.387.469-.764.717-1.132A7.381,7.381,0,0,0,1.767,12.71M19.235,31.33c.277.234.125.817-.2.5-.265-.261-.273-.235-.607-.219-.271.014-.559.1-.831.131a9,9,0,0,1-1.732.06,11.948,11.948,0,0,1-3.609-.844,18.724,18.724,0,0,1-5.643-3.3A23.046,23.046,0,0,1,.817,19.031a8.563,8.563,0,0,1-.47-5.942A6.84,6.84,0,0,1,2,10.346c.2-.2.472-.354.663-.563.293-.321.226-.218.035-.677q-.312-.751-.619-1.5A39.15,39.15,0,0,1,.628,3.593a11.25,11.25,0,0,1-.3-1.366C.275,1.878-.04.552.234.2.691-.4.885.514.9.825c.013.273.037.546.071.818a11.973,11.973,0,0,0,.443,2.012c.218.712.485,1.41.751,2.107.248.649.507,1.294.771,1.937q.22.536.444,1.07c.051.122.077.376.211.272a18.372,18.372,0,0,0,1.168,2.2c.485.875.981,1.748,1.539,2.582a21.09,21.09,0,0,0,1.29,1.749,11,11,0,0,0,.868.927c.169.162.747.854.979.854-.1,0-.553-.88-.623-.984-.282-.416-.588-.812-.9-1.206a23.3,23.3,0,0,1-1.6-2.285c.14-.084.724.3.9.376a8.973,8.973,0,0,0,1.2.419,9.88,9.88,0,0,0,2.325.414,4.293,4.293,0,0,1-.92-.438c-.352-.15-.712-.286-1.078-.4-.338-.105-.681-.185-1.027-.259a5.036,5.036,0,0,1-1.287-.261c-.019-.011,0-.19-.074-.237s-.29-.032-.307-.046c-.258-.194-.438-.755-.593-1.031-.4-.716-.795-1.437-1.191-2.156-.123-.223-.286-.375-.178-.556s.66-.312.873-.382a4.983,4.983,0,0,1,2.414-.21,8.938,8.938,0,0,1,4.09,1.869c4.625,3.621,8.418,8.177,9.576,13.963.479,2.4,1,6.131-1.795,7.389" transform="translate(56.321 99.504) rotate(122)" fill="#89c5cc" fill-rule="evenodd"/>
      <g id="Background-Shape-2" transform="translate(14.792 136.697)" opacity="0.6">
        <path id="Background-Shape" d="M257.581,56.892c3.756,25.428-87.341,42.014-165.75,30.439S-22.549,30.555,14.866,6.47,253.825,31.464,257.581,56.892Z" transform="translate(0 0)" fill="#dde3e9" fill-rule="evenodd"/>
      </g>
      <g id="Mobile3" transform="translate(53.329 26.924)">
        <rect id="Container" width="61.893" height="117.558" rx="8" fill="#f2f2f2"/>
        <circle id="Touch" cx="5.839" cy="5.839" r="5.839" transform="translate(24.913 98.484)" fill="#fff"/>
        <g id="Camera" transform="translate(24.913 6.228)">
          <circle id="Lens" cx="0.779" cy="0.779" r="0.779" fill="#fff"/>
          <rect id="Sensor" width="8.175" height="1.557" rx="0.779" transform="translate(3.503)" fill="#fff"/>
        </g>
        <g id="Rows" transform="translate(5.45 10.899)">
          <g id="Row">
            <rect id="Background" width="50.994" height="21.02" rx="4" fill="#fff"/>
            <g id="Text" transform="translate(15.181 6.306)">
              <rect id="Name" width="28.416" height="3.153" rx="1.577" fill="#dde3e9"/>
              <rect id="Name-2" data-name="Name" width="19.074" height="3.153" rx="1.577" transform="translate(0 5.255)" fill="#dde3e9"/>
            </g>
            <circle id="Avatar" cx="4.671" cy="4.671" r="4.671" transform="translate(3.503 5.839)" fill="#c5cfd6"/>
          </g>
          <g id="Row-2" data-name="Row" transform="translate(0 24.134)">
            <rect id="Background-2" data-name="Background" width="50.994" height="16.349" rx="4" fill="#fff"/>
            <g id="Text-2" data-name="Text" transform="translate(15.181 4.905)">
              <rect id="Name-3" data-name="Name" width="28.416" height="2.452" rx="1.226" fill="#dde3e9"/>
              <rect id="Name-4" data-name="Name" width="19.074" height="2.452" rx="1.226" transform="translate(0 4.087)" fill="#dde3e9"/>
            </g>
            <circle id="Avatar-2" data-name="Avatar" cx="4.671" cy="4.671" r="4.671" transform="translate(3.503 3.503)" fill="#c5cfd6"/>
          </g>
          <g id="Row-3" data-name="Row" transform="translate(0 43.598)">
            <rect id="Background-3" data-name="Background" width="50.994" height="16.349" rx="4" fill="#fff"/>
            <g id="Text-3" data-name="Text" transform="translate(15.181 4.905)">
              <rect id="Name-5" data-name="Name" width="28.416" height="2.452" rx="1.226" fill="#dde3e9"/>
              <rect id="Name-6" data-name="Name" width="19.074" height="2.452" rx="1.226" transform="translate(0 4.087)" fill="#dde3e9"/>
            </g>
            <circle id="Avatar-3" data-name="Avatar" cx="4.671" cy="4.671" r="4.671" transform="translate(3.503 3.503)" fill="#afb9c5"/>
          </g>
          <g id="Row-4" data-name="Row" transform="translate(0 63.061)">
            <rect id="Background-4" data-name="Background" width="50.994" height="16.349" rx="4" fill="#fff"/>
            <g id="Text-4" data-name="Text" transform="translate(15.181 4.905)">
              <rect id="Name-7" data-name="Name" width="28.416" height="2.452" rx="1.226" fill="#dde3e9"/>
              <rect id="Name-8" data-name="Name" width="19.074" height="2.452" rx="1.226" transform="translate(0 4.087)" fill="#dde3e9"/>
            </g>
            <circle id="Avatar-4" data-name="Avatar" cx="4.671" cy="4.671" r="4.671" transform="translate(3.503 3.503)" fill="#c5cfd6"/>
          </g>
        </g>
      </g>
      <g id="Mobile3-2" data-name="Mobile3" transform="translate(60.336 37.045)">
        <g id="Group" transform="translate(0 84.86)">
          <path id="Fill-16-2" data-name="Fill-16" d="M7.169,0c-.516,0-1.03.01-1.545.037C5.231.058,4.631-.024,4.3.221S3.977,1,4.031,1.363A8.284,8.284,0,0,0,6.468,6.406a14.071,14.071,0,0,0,7.85,3.676A6.375,6.375,0,0,0,20,8.433,23.694,23.694,0,0,1,22.453,15.3a16.463,16.463,0,0,1,.244,3.532c-.024.766-.067,1.531-.149,2.293a2.714,2.714,0,0,0-.075,1.146.523.523,0,0,0,.9.09,2.573,2.573,0,0,0,.2-1.082c.065-.513.126-1.026.169-1.542.07-.834.122-1.671.118-2.508a18.7,18.7,0,0,0-1-5.556A19.075,19.075,0,0,0,17.2,2.815,10.865,10.865,0,0,0,11.34.431,29.4,29.4,0,0,0,7.169,0" transform="translate(-2.443)" fill="#89c5cc" fill-rule="evenodd"/>
          <path id="Fill-18" d="M12.679,35c-5.566,0-9.315,4.486-11.087,9.148A25.309,25.309,0,0,0,.509,49.681,8.446,8.446,0,0,1,.217,51.7c-.087.191-.287.26-.192.521a.423.423,0,0,0,.342.286c.35.064.845-.317,1.145-.467A12.874,12.874,0,0,0,6.973,46.5a23.583,23.583,0,0,0,2.158-4.591,15.87,15.87,0,0,0,.578-3.035,11.554,11.554,0,0,0,.077-1.215,2.451,2.451,0,0,0-.323-.961,8.2,8.2,0,0,1,5.835-.166,7.477,7.477,0,0,1,3.995,3.612,6.89,6.89,0,0,1,.491,1.331,4.583,4.583,0,0,0,.224.959c.347.657,1.079.218,1.008-.394a7.908,7.908,0,0,0-2.418-4.6A8.7,8.7,0,0,0,12.679,35" transform="translate(0 -21.376)" fill="#89c5cc" fill-rule="evenodd"/>
        </g>
        <rect id="Container-2" data-name="Container" width="61.893" height="117.558" rx="8" transform="translate(18.685)" fill="#dde3e9"/>
        <circle id="Touch-2" data-name="Touch" cx="5.839" cy="5.839" r="5.839" transform="translate(43.598 98.484)" fill="#fff"/>
        <g id="Camera-2" data-name="Camera" transform="translate(43.598 6.228)">
          <circle id="Lens-2" data-name="Lens" cx="0.779" cy="0.779" r="0.779" fill="#fff"/>
          <rect id="Sensor-2" data-name="Sensor" width="8.175" height="1.557" rx="0.779" transform="translate(3.503)" fill="#fff"/>
        </g>
        <g id="Rows-2" data-name="Rows" transform="translate(24.134 10.899)">
          <g id="Row-5" data-name="Row">
            <rect id="Container-3" data-name="Container" width="50.994" height="21.02" rx="4" fill="#fff"/>
            <g id="Text-Stuff" transform="translate(3.503 6.306)">
              <rect id="Label" width="28.416" height="3.153" rx="1.577" fill="#dde3e9"/>
              <rect id="Label-2" data-name="Label" width="19.074" height="3.153" rx="1.577" transform="translate(0 5.255)" fill="#dde3e9"/>
            </g>
            <g id="Check" transform="translate(42.819 7.785)">
              <circle id="Background-5" data-name="Background" cx="2.725" cy="2.725" r="2.725" fill="#dde3e9"/>
              <circle id="Indicator" cx="1.168" cy="1.168" r="1.168" transform="translate(1.557 1.557)" fill="#f2f2f2"/>
            </g>
          </g>
          <g id="Row-6" data-name="Row" transform="translate(0 24.134)">
            <rect id="Background-6" data-name="Background" width="50.994" height="16.349" rx="4" fill="#fff"/>
            <g id="Text-5" data-name="Text" transform="translate(15.181 4.905)">
              <rect id="Name-9" data-name="Name" width="28.416" height="2.452" rx="1.226" fill="#dde3e9"/>
              <rect id="Name-10" data-name="Name" width="19.074" height="2.452" rx="1.226" transform="translate(0 4.087)" fill="#dde3e9"/>
            </g>
            <circle id="Avatar-5" data-name="Avatar" cx="4.671" cy="4.671" r="4.671" transform="translate(3.503 3.503)" fill="#c5cfd6"/>
          </g>
          <g id="Row-7" data-name="Row" transform="translate(0 43.598)">
            <rect id="Container-4" data-name="Container" width="50.994" height="16.349" rx="4" fill="#fff"/>
            <g id="Text-Stuff-2" data-name="Text-Stuff" transform="translate(3.503 4.905)">
              <rect id="Label-3" data-name="Label" width="28.416" height="2.452" rx="1.226" fill="#dde3e9"/>
              <rect id="Label-4" data-name="Label" width="19.074" height="2.452" rx="1.226" transform="translate(0 4.087)" fill="#afb9c5"/>
            </g>
            <g id="Check-2" data-name="Check" transform="translate(42.819 5.45)">
              <circle id="Background-7" data-name="Background" cx="2.725" cy="2.725" r="2.725" fill="#dde3e9"/>
              <circle id="Indicator-2" data-name="Indicator" cx="1.168" cy="1.168" r="1.168" transform="translate(1.557 1.557)" fill="#f2f2f2"/>
            </g>
          </g>
          <g id="Row-8" data-name="Row" transform="translate(0 63.061)">
            <rect id="Background-8" data-name="Background" width="50.994" height="16.349" rx="4" fill="#fff"/>
            <g id="Text-6" data-name="Text" transform="translate(15.181 4.905)">
              <rect id="Name-11" data-name="Name" width="28.416" height="2.452" rx="1.226" fill="#dde3e9"/>
              <rect id="Name-12" data-name="Name" width="19.074" height="2.452" rx="1.226" transform="translate(0 4.087)" fill="#dde3e9"/>
            </g>
            <circle id="Avatar-6" data-name="Avatar" cx="4.671" cy="4.671" r="4.671" transform="translate(3.503 3.503)" fill="#c5cfd6"/>
          </g>
        </g>
      </g>
      <g id="Web" transform="translate(104.712 46.776)">
        <rect id="Container-5" data-name="Container" width="130.404" height="134.686" rx="8" fill="#f2f2f2"/>
        <rect id="Background-9" data-name="Background" width="27.249" height="31.53" rx="8" transform="translate(96.927 16.738)" fill="#fff"/>
        <g id="Profile-Info" transform="translate(100.82 22.577)">
          <circle id="Avatar-7" data-name="Avatar" cx="6.228" cy="6.228" r="6.228" transform="translate(3.503)" fill="#dde3e9"/>
          <rect id="Name-13" data-name="Name" width="19.463" height="2.336" rx="1.168" transform="translate(0 14.014)" fill="#dde3e9"/>
          <rect id="Name-14" data-name="Name" width="13.235" height="2.336" rx="1.168" transform="translate(3.114 17.906)" fill="#dde3e9"/>
        </g>
        <path id="Header" d="M3.114,0H127.29A3.114,3.114,0,0,1,130.4,3.114v7.4H0v-7.4A3.114,3.114,0,0,1,3.114,0Z" transform="translate(0 0)" fill="#c5cfd6" fill-rule="evenodd"/>
        <g id="Buttons" transform="translate(3.503 3.893)">
          <circle id="buttons-2" data-name="buttons" cx="1.557" cy="1.557" r="1.557" fill="#f2f2f2"/>
          <circle id="buttons-3" data-name="buttons" cx="1.557" cy="1.557" r="1.557" transform="translate(4.671)" fill="#f2f2f2"/>
          <circle id="buttons-4" data-name="buttons" cx="1.557" cy="1.557" r="1.557" transform="translate(9.342)" fill="#f2f2f2"/>
        </g>
        <g id="Components" transform="translate(96.927 51.383)">
          <rect id="Background-10" data-name="Background" width="27.249" height="75.517" rx="8" fill="#fff"/>
          <g id="Rows-3" data-name="Rows" transform="translate(7.007 7.007)">
            <rect id="Data" width="13.235" height="10.121" rx="4" fill="#dde3e9"/>
            <rect id="Data-2" data-name="Data" width="13.235" height="9.732" rx="4" transform="translate(0 13.235)" fill="#afb9c5"/>
            <rect id="Data-3" data-name="Data" width="13.235" height="9.732" rx="4" transform="translate(0 26.081)" fill="#dde3e9"/>
            <rect id="Data-4" data-name="Data" width="13.235" height="9.732" rx="4" transform="translate(0 51.772)" fill="#dde3e9"/>
            <rect id="Data-5" data-name="Data" width="13.235" height="9.732" rx="4" transform="translate(0 38.927)" fill="#c5cfd6"/>
          </g>
        </g>
        <g id="Rows-4" data-name="Rows" transform="translate(6.228 17.128)">
          <g id="Row-9" data-name="Row">
            <rect id="Container-6" data-name="Container" width="87.585" height="18.295" rx="4" fill="#fff"/>
            <g id="Text-Stuff-3" data-name="Text-Stuff" transform="translate(3.503 5.489)">
              <rect id="Label-5" data-name="Label" width="65.007" height="2.744" rx="1.372" fill="#dde3e9"/>
              <rect id="Label-6" data-name="Label" width="43.635" height="2.744" rx="1.372" transform="translate(0 4.574)" fill="#dde3e9"/>
            </g>
            <g id="Check-3" data-name="Check" transform="translate(75.5 6.423)">
              <circle id="Background-11" data-name="Background" cx="2.725" cy="2.725" r="2.725" fill="#dde3e9"/>
              <circle id="Indicator-3" data-name="Indicator" cx="1.168" cy="1.168" r="1.168" transform="translate(1.557 1.557)" fill="#f2f2f2"/>
            </g>
          </g>
          <g id="Row-10" data-name="Row" transform="translate(0 21.41)">
            <rect id="Container-7" data-name="Container" width="87.585" height="15.181" rx="4" fill="#fff"/>
            <g id="Text-Stuff-4" data-name="Text-Stuff" transform="translate(3.503 4.554)">
              <rect id="Label-7" data-name="Label" width="65.007" height="2.277" rx="1.139" fill="#dde3e9"/>
              <rect id="Label-8" data-name="Label" width="43.635" height="2.277" rx="1.139" transform="translate(0 3.795)" fill="#dde3e9"/>
            </g>
            <g id="Check-4" data-name="Check" transform="translate(75.5 4.866)">
              <circle id="Background-12" data-name="Background" cx="2.725" cy="2.725" r="2.725" fill="#dde3e9"/>
              <circle id="Indicator-4" data-name="Indicator" cx="1.168" cy="1.168" r="1.168" transform="translate(1.557 1.557)" fill="#f2f2f2"/>
            </g>
          </g>
          <g id="Row-11" data-name="Row" transform="translate(0 39.705)">
            <rect id="Container-8" data-name="Container" width="87.585" height="15.181" rx="4" fill="#fff"/>
            <g id="Text-Stuff-5" data-name="Text-Stuff" transform="translate(3.503 4.554)">
              <rect id="Label-9" data-name="Label" width="65.007" height="2.277" rx="1.139" fill="#dde3e9"/>
              <rect id="Label-10" data-name="Label" width="43.635" height="2.277" rx="1.139" transform="translate(0 3.795)" fill="#dde3e9"/>
            </g>
            <g id="Check-5" data-name="Check" transform="translate(75.5 4.866)">
              <circle id="Background-13" data-name="Background" cx="2.725" cy="2.725" r="2.725" fill="#dde3e9"/>
              <circle id="Indicator-5" data-name="Indicator" cx="1.168" cy="1.168" r="1.168" transform="translate(1.557 1.557)" fill="#afb9c5"/>
            </g>
          </g>
          <g id="Row-12" data-name="Row" transform="translate(0 94.591)">
            <rect id="Container-9" data-name="Container" width="87.585" height="15.181" rx="4" fill="#fff"/>
            <g id="Text-Stuff-6" data-name="Text-Stuff" transform="translate(3.503 4.554)">
              <rect id="Label-11" data-name="Label" width="65.007" height="2.277" rx="1.139" fill="#dde3e9"/>
              <rect id="Label-12" data-name="Label" width="43.635" height="2.277" rx="1.139" transform="translate(0 3.795)" fill="#dde3e9"/>
            </g>
            <g id="Check-6" data-name="Check" transform="translate(75.5 4.866)">
              <circle id="Background-14" data-name="Background" cx="2.725" cy="2.725" r="2.725" fill="#dde3e9"/>
              <circle id="Indicator-6" data-name="Indicator" cx="1.168" cy="1.168" r="1.168" transform="translate(1.557 1.557)" fill="#f2f2f2"/>
            </g>
          </g>
          <g id="Row-13" data-name="Row" transform="translate(0 76.296)">
            <rect id="Container-10" data-name="Container" width="87.585" height="15.181" rx="4" fill="#fff"/>
            <g id="Text-Stuff-7" data-name="Text-Stuff" transform="translate(3.503 4.554)">
              <rect id="Label-13" data-name="Label" width="65.007" height="2.277" rx="1.139" fill="#dde3e9"/>
              <rect id="Label-14" data-name="Label" width="43.635" height="2.277" rx="1.139" transform="translate(0 3.795)" fill="#dde3e9"/>
            </g>
            <g id="Check-7" data-name="Check" transform="translate(75.5 4.866)">
              <circle id="Background-15" data-name="Background" cx="2.725" cy="2.725" r="2.725" fill="#dde3e9"/>
              <circle id="Indicator-7" data-name="Indicator" cx="1.168" cy="1.168" r="1.168" transform="translate(1.557 1.557)" fill="#f2f2f2"/>
            </g>
          </g>
          <g id="Row-14" data-name="Row" transform="translate(0 58.001)">
            <rect id="Container-11" data-name="Container" width="87.585" height="15.181" rx="4" fill="#fff"/>
            <g id="Text-Stuff-8" data-name="Text-Stuff" transform="translate(3.503 4.554)">
              <rect id="Label-15" data-name="Label" width="65.007" height="2.277" rx="1.139" fill="#dde3e9"/>
              <rect id="Label-16" data-name="Label" width="43.635" height="2.277" rx="1.139" transform="translate(0 3.795)" fill="#dde3e9"/>
            </g>
            <g id="Check-8" data-name="Check" transform="translate(75.5 4.866)">
              <circle id="Background-16" data-name="Background" cx="2.725" cy="2.725" r="2.725" fill="#dde3e9"/>
              <circle id="Indicator-8" data-name="Indicator" cx="1.168" cy="1.168" r="1.168" transform="translate(1.557 1.557)" fill="#f2f2f2"/>
            </g>
          </g>
        </g>
      </g>
      <path id="Fill-1" d="M609.82,295.314A9.757,9.757,0,0,0,604.406,294c-7.176,0-13.922,2.663-19.749,6.63a46.194,46.194,0,0,0-8.571,7.824,22.916,22.916,0,0,0-3.672,5.466,18.83,18.83,0,0,0-1.334,4.211,43.282,43.282,0,0,0-.757,5.374c-.05.708-.461,4.468.717,4.531a1.637,1.637,0,0,0,0,.26c-2.558,4-4.138,8.686-5.6,13.13a89.418,89.418,0,0,0-3.149,11.767,128.23,128.23,0,0,0-1.912,15.955c-.065,1.148-.11,2.3-.148,3.447q-.049,1.471-.1,2.942a18.957,18.957,0,0,0-.055,3.457c.152.951.976.807,1.012-.139.044-1.143.037-2.289.087-3.433q.1-2.278.209-4.555a106.5,106.5,0,0,1,6.04-30.9,72.045,72.045,0,0,1,5.245-11.577,80.72,80.72,0,0,1,6.442-9.409,59.637,59.637,0,0,1,7.323-8.113,56.321,56.321,0,0,1,7.2-5.3,79.079,79.079,0,0,1,9.868-5.579c1.8-.811,3.641-1.538,5.458-2.316.327-.14.678-.276.992-.438,1.049-.541.7-1.356-.132-1.923" transform="translate(-342.401 -182.216)" fill="#c1dee2" fill-rule="evenodd"/>
      <path id="Fill-20" d="M22.648,23.356a19.816,19.816,0,0,1-8.183-1.535,36.369,36.369,0,0,1-6.473-3.759,20.313,20.313,0,0,1-6.739-7.5C.3,8.7-.391,6.06.246,4.027,1,1.632,3.058-.365,5.773.057a10,10,0,0,1,4.494,2.418A17,17,0,0,1,14.024,6.9c1.646,2.726,2.613,5.808,4.011,8.656.663,1.352,1.3,2.713,2.1,4A6.45,6.45,0,0,0,21.543,21.3c.319.253,1.665.691,1.151,1.259A16.626,16.626,0,0,0,38.378,9.482c.135-.669.24-1.343.352-2.016.07-.425.042-1.992.422-2.263.838-.6.486,1.22.45,1.482q-.139,1.015-.3,2.028a16.881,16.881,0,0,1-4.927,9.705,17.173,17.173,0,0,1-11.73,4.937" transform="translate(261.197 173.287) rotate(180)" fill="#89c5cc" fill-rule="evenodd"/>
      <g id="Plant" transform="translate(24.913 157.732)">
        <path id="Fill-19" d="M3.868,13.911C11.135,26.1,19.6,37.9,24.68,51.232c-.2-1.571-.422-3.14-.665-4.707-1.29-8.307-2.892-16.554-4.576-24.79-.858-4.194-1.765-8.372-2.7-12.55-.5-2.244-.995-4.489-1.505-6.731C15.114,1.91,15.008.961,14.853,0c4.939,16.208,9.7,32.428,13.186,49.025q.686,3.267,1.165,6.523c.109-.5.216-.99.334-1.484A95.917,95.917,0,0,1,35.58,36.737a52.532,52.532,0,0,1,4.214-7.648c1.015-1.5,3.409-3.291,4.335-4.831-5.064,9.288-6.893,20.91-9.817,31.008-.714,2.464-1.432,4.925-2.136,7.389C36.586,53.811,43.428,46.545,52.94,43.4,41.426,51,34.519,64.328,29.865,77.954c-.015.162-.034.323-.049.485a18.241,18.241,0,0,1,5.433-6.6c5-3.525,10.555-2.5,15.409.526-3.81-2.422-10.695-.217-13.9,2.245A32.028,32.028,0,0,0,30.8,81.045c-.408.553-.965,1.2-1.553,1.886a85.017,85.017,0,0,1-4.071,15.943,39.97,39.97,0,0,0,.174-5.063c.009-.122.017-.244.027-.366q-.434,1.732-.838,3.419a46.8,46.8,0,0,0,1.052-6.641q.088-1.457.176-2.914-.029-2.765-.223-5.548c-.455-1.8-.965-3.5-1.386-4.914A63.526,63.526,0,0,0,17.677,62.3a57.413,57.413,0,0,0-8.94-11.334c-1.861-1.836-3.808-3.585-5.728-5.358A42.663,42.663,0,0,0,0,42.571c7.817,4.309,15.862,8.971,21.564,15.915q-1-3.851-2.163-7.578C15.5,38.325,10.585,25.284,3.868,13.911Z" fill="#dde3e9" fill-rule="evenodd"/>
        <path id="Base" d="M30,213c0,13.974,1.107,25.3,15.96,25.3S61.92,226.974,61.92,213" transform="translate(-18.322 -130.087)" fill="#c5cfd6" fill-rule="evenodd"/>
      </g>
      <g id="Graph" transform="translate(202.028 0)">
        <rect id="Value" width="2.336" height="9.732" rx="1.168" transform="translate(0 12.456)" fill="#dde3e9"/>
        <rect id="Value-2" data-name="Value" width="2.336" height="15.96" rx="1.168" transform="translate(5.45 6.228)" fill="#dde3e9"/>
        <rect id="Value-3" data-name="Value" width="2.336" height="19.074" rx="1.168" transform="translate(10.899 3.114)" fill="#dde3e9"/>
        <rect id="Value-4" data-name="Value" width="2.336" height="15.96" rx="1.168" transform="translate(16.349 6.228)" fill="#dde3e9"/>
        <rect id="Value-5" data-name="Value" width="2.336" height="22.188" rx="1.168" transform="translate(21.799)" fill="#c5cfd6"/>
      </g>
      <g id="Pie-Chart" transform="translate(26.08 144.482) rotate(180)">
        <path id="Value-6" data-name="Value" d="M7.785,5.739A7.86,7.86,0,0,1,0,13.624V5.739L5.32,0A7.814,7.814,0,0,1,7.785,5.739Z" transform="translate(7.785 1.946)" fill="#f2f2f2" fill-rule="evenodd"/>
        <path id="Value-7" data-name="Value" d="M7.862,7.785H0a7.791,7.791,0,0,1,2.14-5.32A7.924,7.924,0,0,1,7.862,0a8.036,8.036,0,0,1,5.373,2.119Z" transform="translate(0.129 0)" fill="#afb9c5" fill-rule="evenodd"/>
        <path id="Value-8" data-name="Value" d="M0,0A7.809,7.809,0,0,0,7.785,7.785V0ZM11.678,7.785,8.564.779l7.007,3.114A7.16,7.16,0,0,1,11.678,7.785Z" transform="translate(0 7.785)" fill="#c5cfd6" fill-rule="evenodd"/>
      </g>
      <g id="Chart" transform="translate(249.129 125.797)">
        <path id="Value-9" data-name="Value" d="M14.7,14.472a4.092,4.092,0,1,1-2.986-6.882V0a11.678,11.678,0,1,0,0,23.356,11.557,11.557,0,0,0,8.527-3.7Z" fill="#f2f2f2" fill-rule="evenodd"/>
        <path id="Value-10" data-name="Value" d="M30,0V7.591a4.087,4.087,0,0,1,4.087,4.087h7.591A11.714,11.714,0,0,0,30,0Z" transform="translate(-18.322)" fill="#afb9c5" fill-rule="evenodd"/>
        <path id="Value-11" data-name="Value" d="M37.595,30A4.142,4.142,0,0,1,36,33.266l4.773,6.076A11.839,11.839,0,0,0,45.342,30Z" transform="translate(-21.986 -18.322)" fill="#c5cfd6" fill-rule="evenodd"/>
      </g>
      <g id="Chart-2" data-name="Chart" transform="translate(178.283 4.282)">
        <path id="Value-12" data-name="Value" d="M11.309,11.1a3.143,3.143,0,1,1-2.3-5.276V0A9.01,9.01,0,0,0,0,8.953a9.01,9.01,0,0,0,9.012,8.953,8.9,8.9,0,0,0,6.559-2.835Z" transform="translate(0)" fill="#f2f2f2" fill-rule="evenodd"/>
        <path id="Value-13" data-name="Value" d="M23,0V5.82a3.134,3.134,0,0,1,3.134,3.134h5.82A8.981,8.981,0,0,0,23,0Z" transform="translate(-14.047)" fill="#afb9c5" fill-rule="evenodd"/>
        <path id="Value-14" data-name="Value" d="M29.2,23A3.106,3.106,0,0,1,28,25.45l3.58,4.557A8.879,8.879,0,0,0,35.007,23Z" transform="translate(-17.101 -14.047)" fill="#c5cfd6" fill-rule="evenodd"/>
      </g>
      <g id="Image" transform="translate(29.195 19.528)">
        <path id="Fill-35" d="M48,51.983,47.993,52s.005-.019.005-.012" transform="translate(-29.311 -31.747)" fill="#c5cfd6" fill-rule="evenodd"/>
        <path id="Fill-37" d="M48,51.994a.034.034,0,0,0,0,0s.007-.016,0,0" transform="translate(-29.313 -31.751)" fill="#c5cfd6" fill-rule="evenodd"/>
        <path id="Fill-39" d="M47.985,51.832c-.005.016-.012.03-.019.046l.009-.022c-.081.2-.03.071.009-.024" transform="translate(-29.274 -31.656)" fill="#c5cfd6" fill-rule="evenodd"/>
        <path id="Fill-41" d="M48,51.953l-.009.022c-.023.044.009-.022.009-.022" transform="translate(-29.302 -31.729)" fill="#c5cfd6" fill-rule="evenodd"/>
        <path id="Fill-43" d="M48,52Z" transform="translate(-29.315 -31.758)" fill="#c5cfd6" fill-rule="evenodd"/>
        <path id="Fill-45" d="M48,52v0" transform="translate(-29.315 -31.757)" fill="#c5cfd6" fill-rule="evenodd"/>
        <path id="Fill-47" d="M47.989,51.994c0,.009.022-.036,0,0" transform="translate(-29.308 -31.746)" fill="#c5cfd6" fill-rule="evenodd"/>
        <path id="Fill-49" d="M48,52l0,0,0,0" transform="translate(-29.314 -31.757)" fill="#c5cfd6" fill-rule="evenodd"/>
        <rect id="Photo-Background" width="36.98" height="24.524" rx="4" fill="#dde3e9"/>
        <g id="icons8-night_landscape" transform="translate(3.114 7.007)">
          <path id="Mountains" d="M10.9,0,0,17.517H21.8Z" fill="#afb9c5" fill-rule="evenodd"/>
          <path id="Mountains-2" data-name="Mountains" d="M40.537,12,31,24.846H50.074Z" transform="translate(-18.933 -7.329)" fill="#c5cfd6" fill-rule="evenodd"/>
        </g>
        <circle id="Sun" cx="3.503" cy="3.503" r="3.503" transform="translate(25.302 4.671)" fill="#fff"/>
      </g>
      <g id="Image-2" data-name="Image" transform="translate(261.197 212.603) rotate(180)">
        <path id="Fill-35-2" data-name="Fill-35" d="M.005.012,0,0S.005.019.005.012" transform="translate(27.635 6.61)" fill="#c5cfd6" fill-rule="evenodd"/>
        <path id="Fill-37-2" data-name="Fill-37" d="M0,0A.034.034,0,0,1,0,0S.007.016,0,0" transform="translate(27.636 6.613)" fill="#c5cfd6" fill-rule="evenodd"/>
        <path id="Fill-39-2" data-name="Fill-39" d="M.052.131C.047.115.04.1.034.085L.043.106C-.038-.1.013.036.052.131" transform="translate(27.612 6.552)" fill="#c5cfd6" fill-rule="evenodd"/>
        <path id="Fill-41-2" data-name="Fill-41" d="M.017.037.008.015C-.015-.029.017.037.017.037" transform="translate(27.629 6.599)" fill="#c5cfd6" fill-rule="evenodd"/>
        <path id="Fill-43-2" data-name="Fill-43" d="M0,0Z" transform="translate(27.638 6.617)" fill="#c5cfd6" fill-rule="evenodd"/>
        <path id="Fill-45-2" data-name="Fill-45" d="M0,0V0" transform="translate(27.637 6.617)" fill="#c5cfd6" fill-rule="evenodd"/>
        <path id="Fill-47-2" data-name="Fill-47" d="M0,0C0-.008.022.037,0,0" transform="translate(27.633 6.61)" fill="#c5cfd6" fill-rule="evenodd"/>
        <path id="Fill-49-2" data-name="Fill-49" d="M0,0,0,0,0,0" transform="translate(27.637 6.617)" fill="#c5cfd6" fill-rule="evenodd"/>
        <rect id="Photo-Background-2" data-name="Photo-Background" width="55.276" height="36.591" rx="4" fill="#dde3e9"/>
        <g id="icons8-night_landscape-2" data-name="icons8-night_landscape" transform="translate(4.543)">
          <path id="Mountains-3" data-name="Mountains" d="M15.981,26.081,0,0H31.963Z" transform="translate(0)" fill="#afb9c5" fill-rule="evenodd"/>
          <path id="Mountains-4" data-name="Mountains" d="M14.128,19.095,0,0H28.257Z" transform="translate(18.331)" fill="#c5cfd6" fill-rule="evenodd"/>
        </g>
        <circle id="Sun-2" data-name="Sun" cx="5.255" cy="5.255" r="5.255" transform="translate(37.759 19.074)" fill="#fff"/>
      </g>
    </g>
    <g id="humaaans_sitting-8" data-name="humaaans/sitting-8" transform="translate(182.476 267.884)">
      <g id="A-Human_Sitting" data-name="A-Human/Sitting" transform="translate(137.324 156.474) rotate(180)">
        <g id="Head_Front_Short-2" data-name="Head/Front/Short-2" transform="translate(36.9 119.107)">
          <g id="Head" transform="translate(1.868 0)">
            <path id="Path_11" data-name="Path 11" d="M3.859,17.987A12.653,12.653,0,0,0,.494,27.079c.7,10,14.616,7.8,17.323,2.752S20.2,11.989,16.7,11.087c-1.4-.36-4.367.521-7.392,2.344L11.21,0H0Z" fill="#915b3c" fill-rule="evenodd"/>
          </g>
          <path id="Hair" d="M4.866,0C3.459,6.259-.549,10.526.063,13.324A4.243,4.243,0,0,0,3.326,16.8Q4.7,22.35,12.17,21.522c7.473-.828,12.034-3.932,10.064-10.761-1.811,0-4,.655-7.019-.467q-1.439-.534-2.058-3.312H11.792Q9.8,10.279,7.871,9.405T6.992,5.161L6.319,0Z" transform="translate(0 15.737)" fill="#191847" fill-rule="evenodd"/>
        </g>
        <g id="Bottom_Sitting_Baggy-Pants" data-name="Bottom/Sitting/Baggy-Pants" transform="translate(0 0)">
          <g id="Objects_Seat_Cube-2" data-name="Objects/Seat/Cube-2" transform="translate(0 2.803)">
            <path id="Seat" d="M7.473,57.919H61.188a7.473,7.473,0,0,0,7.473-7.473V7.473A7.473,7.473,0,0,0,61.188,0H7.473A7.473,7.473,0,0,0,0,7.473V50.445A7.473,7.473,0,0,0,7.473,57.919ZM14.947,44.84a1.868,1.868,0,0,1-1.868-1.868V14.947a1.868,1.868,0,0,1,1.868-1.868H53.715a1.868,1.868,0,0,1,1.868,1.868V42.972a1.868,1.868,0,0,1-1.868,1.868Z" transform="translate(0 0)" fill="#c5cfd6" fill-rule="evenodd"/>
          </g>
          <path id="LegLower" d="M30.9,0Q17.088,16.868,12.209,25.011C6.639,34.305,2.08,42.576.641,45.735-2.789,53.269,8.539,56.8,11.1,53.283Q16.924,45.3,35.966,3.075Z" transform="translate(84.076 5.138)" fill="#b28b67" fill-rule="evenodd"/>
          <path id="LegLower-2" data-name="LegLower" d="M17.636,0,.5,43.142c-3.666,7.864,14.036,13.034,16.73,9.374C23.344,44.206,37.88,11.428,39.7,8.952Z" transform="translate(78.471 8.408)" fill="#2f3676" fill-rule="evenodd"/>
          <g id="Lower-Leg" transform="matrix(0.777, -0.629, 0.629, 0.777, 48.238, 15.654)">
            <path id="LegLower-3" data-name="LegLower" d="M.843,2.491C.373,8.377-.5,28.751.373,38.182c.251,2.71.516,5.33.782,7.788.793,7.306,14.339,7.075,13.263.134C11.74,28.819,7.024,4.594,6.686,2.5,6.213-.433,1.138-1.208.843,2.491Z" transform="translate(0 0)" fill="#915b3c" fill-rule="evenodd"/>
          </g>
          <g id="Accessories_Shoe_Flat-Sneaker" data-name="Accessories/Shoe/Flat-Sneaker" transform="matrix(0.866, -0.5, 0.5, 0.866, 47.153, 13.746)">
            <path id="shoe" d="M.784,6.819A10.029,10.029,0,0,1,0,3.687,23.437,23.437,0,0,1,.421,0H26.766q1.027,3.395-1.186,3.666T21.9,4.154L9.659,9.613a.467.467,0,0,1-.617-.236l-.005-.012L8.25,7.455A8.4,8.4,0,0,0,4.922,6.5a7.538,7.538,0,0,0-2.874.84h0A.934.934,0,0,1,.809,6.88Q.8,6.85.784,6.819Z" transform="translate(0 0)" fill="#e4e4e4" fill-rule="evenodd"/>
          </g>
          <g id="Accessories_Shoe_Flat-Sneaker-2" data-name="Accessories/Shoe/Flat-Sneaker" transform="translate(110.233 0)">
            <path id="shoe-2" data-name="shoe" d="M.784,6.819A10.029,10.029,0,0,1,0,3.687,23.437,23.437,0,0,1,.421,0H26.766q1.027,3.395-1.186,3.666T21.9,4.154L9.659,9.613a.467.467,0,0,1-.617-.236l-.005-.012L8.25,7.455A8.4,8.4,0,0,0,4.922,6.5a7.538,7.538,0,0,0-2.874.84h0A.934.934,0,0,1,.809,6.88Q.8,6.85.784,6.819Z" transform="translate(0)" fill="#e4e4e4" fill-rule="evenodd"/>
          </g>
          <path id="Leg-and-Butt" d="M44.7,36.649Q23.333,40.13,16.076,41.409C2.286,43.841-1.735,51.262.642,67.452H26.05Q31.093,66,68.2,49.437c4.45-2.209,3.622-8.723,2.808-10.869Q70.955,38.436,48.5,0L27.713,13.241,44.739,35.089Q45.413,36.447,44.7,36.649Z" transform="translate(28.101 12.746)" fill="#5c63ab" fill-rule="evenodd"/>
        </g>
        <g id="Body_Hoodie" data-name="Body/Hoodie" transform="translate(1.477 44.767)">
          <path id="Skin" d="M73.154,41.545,88.054,30.6a40.106,40.106,0,0,0,10.128-4.07c.64-.584,1.414-1.765-1.242-1.561s-5.459.3-5.826-.606,1.241-1.989.5-3.212q-.741-1.222-7,6.13L69.861,33.4Zm-57.206-.378,9.761-.038q-9.04-29.184-9.761-30.97C14.868,7.481,17.155,3.4,18.133,1.21c-3.186-1.425-2.846,3.854-6.865,1.984C7.6,1.487,4.81-1.6.573,1.01.052,1.331-.519,2.542.86,3.488,4.3,5.844,9.25,9.969,9.919,11.326Q11.287,14.1,15.949,41.168Z" transform="translate(0 0)" fill="#915b3c" fill-rule="evenodd"/>
          <path id="Coat-Back" d="M0,52.155,3.963,53.2c16.057-11.59,24.356-35.829,43.8-47.352L43.84,0C11.751,1.153,1.239,30.685,0,52.155Z" transform="translate(39.142 30.169) rotate(-5)" fill="#e87613" fill-rule="evenodd"/>
          <path id="Shirt" d="M0,0H35.738c1.633,0,1.325,2.358,1.089,3.548C34.1,17.28,23.467,32.083,23.467,51.631L13.159,53.248C4.632,39.535,1.684,22.652,0,0Z" transform="translate(26.081 31.368)" fill="#dde3e9" fill-rule="evenodd"/>
          <path id="Coat-Front" d="M16.7,59.386A5.9,5.9,0,0,0,13.141,62.4C9.373,69.2,10.734,72.939,14.76,74.17s7.617-1.3,14.033-1.3a6.456,6.456,0,0,0,.959-.066l3.227-.184Q46.867,25.547,40.639,9.809H12.511A95.942,95.942,0,0,0,7.727,0H.062Q-1.02,34.985,16.7,59.386Z" transform="translate(9.671 11.75)" fill="#ff9b21" fill-rule="evenodd"/>
          <path id="Shade" d="M6.125,16.116Q7.452,5.013,10.439,0H0Q2.916,6.8,6.125,16.116Z" transform="translate(22.182 21.559)" fill="rgba(0,0,0,0.1)" fill-rule="evenodd"/>
        </g>
      </g>
    </g>
  </g>
</svg>
