<svg xmlns="http://www.w3.org/2000/svg" width="153.136" height="196.402" viewBox="0 0 153.136 196.402">
  <g id="humaaans_sitting-4" data-name="humaaans/sitting-4" transform="translate(-18 -38)">
    <g id="A-Human_Sitting" data-name="A-Human/Sitting" transform="translate(171.136 234.402) rotate(180)">
      <g id="Head_Front_Curly" data-name="Head/Front/Curly" transform="translate(33.588 145.167)">
        <g id="Head" transform="translate(13.663)">
          <path id="Path_145" data-name="Path 145" d="M4.7,21.923A15.422,15.422,0,0,0,.6,33c.855,12.183,17.814,9.5,21.113,3.354s2.907-21.746-1.357-22.845c-1.7-.438-5.322.635-9.009,2.857L13.663,0H0Z" fill="#b28b67" fill-rule="evenodd"/>
        </g>
        <path id="hair" d="M41.43,28.942a2.955,2.955,0,0,1-2.07,2.1,2.726,2.726,0,0,1-.761.076c-.092,0-.118-.03-.16.034a.842.842,0,0,0-.046.22,3.943,3.943,0,0,1-1.165,2.014,5.083,5.083,0,0,1-3.053,1.445,4.451,4.451,0,0,1-1.836-.25,7.268,7.268,0,0,1-.891-.381c-.087-.044-.369-.257-.456-.243s-.29.255-.368.315A5.4,5.4,0,0,1,27.253,35.3a6.17,6.17,0,0,1-3.809-.908,7.616,7.616,0,0,1-.687-.571c-.115-.107-.226-.217-.332-.333q-.1-.1-.186-.214c-.1-.124-.085-.165-.228-.078a2.831,2.831,0,0,1-1.818.409,4.068,4.068,0,0,1-1.1-.31c-.119-.051-.395-.254-.522-.256s-.4.186-.528.234a4.327,4.327,0,0,1-2.193.2,5.663,5.663,0,0,1-2.15-.846,2.891,2.891,0,0,1-.8-.725c-.094-.129-.178-.266-.285-.386-.062-.07-.185-.142-.219-.231a4.722,4.722,0,0,1-.911.4,2.245,2.245,0,0,1-1.282-.049A5.1,5.1,0,0,1,8.186,30.2,5.742,5.742,0,0,1,7.437,29.2q-.153-.259-.28-.532a1.978,1.978,0,0,0-.123-.277c-.07-.1-.117-.1-.244-.148a3.945,3.945,0,0,1-1.68-1.125,3.873,3.873,0,0,1-.87-1.844.939.939,0,0,0-.035-.227c-.032-.03-.162-.017-.211-.022a4.433,4.433,0,0,1-.5-.089,4.168,4.168,0,0,1-.888-.319A4.639,4.639,0,0,1,.328,21.9a5.508,5.508,0,0,1,.086-3.771,3.684,3.684,0,0,1,.28-.552c.067-.108.089-.108.045-.221S.6,17.1.544,16.981a5.324,5.324,0,0,1-.4-1.261,5.913,5.913,0,0,1-.069-2.18,3.147,3.147,0,0,1,.337-.956A2.743,2.743,0,0,1,.7,12.157c.058-.069.119-.135.184-.2A1.227,1.227,0,0,0,1,11.851c.076-.1.092-.017.053-.162a6.453,6.453,0,0,0-.256-.6c-.079-.2-.15-.407-.215-.614A9.055,9.055,0,0,1,.273,9.2,4.017,4.017,0,0,1,.556,6.715a2.486,2.486,0,0,1,.7-.837A2.61,2.61,0,0,1,1.722,5.6c.084-.04.191-.057.229-.138s-.02-.26-.034-.357a5.958,5.958,0,0,1,.07-2.567A3.547,3.547,0,0,1,3.392.648,4.374,4.374,0,0,1,7.764.524a4.59,4.59,0,0,1,.976.671C9.489.187,11.03.219,12.124.506a4.861,4.861,0,0,1,3.088,2.551,2.057,2.057,0,0,1,3.268.429,2.723,2.723,0,0,1,.276.9c.022.163.008.328.025.49a2.533,2.533,0,0,0,.239.607,3.351,3.351,0,0,1,.254,1.21,6.141,6.141,0,0,1-.046.65,2.232,2.232,0,0,0,.066.571,2.61,2.61,0,0,0-1.105.138,2.182,2.182,0,0,0-.854.6,4.985,4.985,0,0,0-1.075,2.009c-.486,1.591-.287,3.5,1.314,4.374a8.247,8.247,0,0,0,3.867.2c.934-.211,1.992-2.272,2.044-2.465.032-.12.016-.268.126-.348.242-.176.641.129.82.28a3.232,3.232,0,0,1,.718.955,11.816,11.816,0,0,1,.985,2.415c.182.644.3,1.307.536,1.935a2.96,2.96,0,0,0,1.19,1.536,10.48,10.48,0,0,0,2.048.829A5.082,5.082,0,0,1,31.8,21.413a2.618,2.618,0,0,1,.325.362c.074.1.148.3.261.369.176.1.433-.164.586-.261a6.769,6.769,0,0,0,1.885-1.871,11.64,11.64,0,0,0,1.251-2.227,6.44,6.44,0,0,1,.842-1.857,3.55,3.55,0,0,1,2.118-.16,2.675,2.675,0,0,1,1.155,1,1.553,1.553,0,0,1,.131,1.018c-.041.205-.124.4-.169.6a1.867,1.867,0,0,1-.155.485,1.2,1.2,0,0,1-.745.594,3.5,3.5,0,0,1,.8,1.092,4.684,4.684,0,0,1,.417,1.422,1.727,1.727,0,0,1-.231,1.108,2.917,2.917,0,0,1-.946.785A6.152,6.152,0,0,1,40.648,25.3,4.477,4.477,0,0,1,41.43,28.942Z" transform="translate(0 15.94)" fill="#191847" fill-rule="evenodd"/>
      </g>
      <g id="Bottom_Sitting_Sweat-Pants" data-name="Bottom/Sitting/Sweat-Pants">
        <g id="Objects_Seat_Cube-2" data-name="Objects/Seat/Cube-2" transform="translate(0 3.416)">
          <path id="Seat" d="M9.108,70.591H74.576a9.108,9.108,0,0,0,9.108-9.108V9.108A9.108,9.108,0,0,0,74.576,0H9.108A9.108,9.108,0,0,0,0,9.108V61.482A9.108,9.108,0,0,0,9.108,70.591Zm9.108-15.94a2.277,2.277,0,0,1-2.277-2.277V18.217a2.277,2.277,0,0,1,2.277-2.277h47.25a2.277,2.277,0,0,1,2.277,2.277V52.374a2.277,2.277,0,0,1-2.277,2.277Z" fill="#c5cfd6" fill-rule="evenodd"/>
        </g>
        <path id="Skin" d="M86.742,0C79.448,16.144,74.173,30.2,72.055,37.618c-3.625,12.7-6.383,23.874-7.081,28.047-1.662,9.951,12.787,10.531,14.7,5.585,2.891-7.485,7.937-32.079,14-69.228ZM2.135,50.664c6.692,2.645,30.128,10.924,41.432,13.266,3.248.673,6.4,1.3,9.356,1.863,8.8,1.68,13.356-14.192,4.882-15.411C36.7,47.345,6.788,44.208,4.228,43.856.64,43.363-2.071,49,2.135,50.664Z" transform="translate(37.651 5.317)" fill="#b28b67" fill-rule="evenodd"/>
        <path id="Leg-Back" d="M36.2,56.487,0,74.914v4.012H4.305Q56.836,65.54,57.992,61.769q.012-.041.023-.081l.052-.07c6.94-9.545,11.1-56.145,12.461-59.634L57.228,0C52.141,18.865,35.865,32.007,36.3,54.6A7.4,7.4,0,0,0,36.2,56.487Z" transform="translate(59.774 18.99)" fill="#1f28cf" fill-rule="evenodd"/>
        <path id="Leg-Front" d="M28.625,14.387c-3.312.663-6.362,1.255-8.972,1.713C2.795,19.056-2.121,28.08.785,47.77H31.847c5.074-1.458,31.443-12.516,45.124-18.4,9.055-3.893,6.2-17.926,1.073-21.578a.5.5,0,0,0-.284-.444C50.175-4.082,28.353,1.917,21.063,0L17.692,10.636Z" transform="translate(34.157 50.147)" fill="#2b44ff" fill-rule="evenodd"/>
        <g id="Accessories_Shoe_Flat-Sneaker" data-name="Accessories/Shoe/Flat-Sneaker" transform="matrix(0.438, -0.899, 0.899, 0.438, 34.186, 54.887)">
          <path id="shoe" d="M.955,8.31A12.223,12.223,0,0,1,0,4.494,28.565,28.565,0,0,1,.513,0H32.621q1.252,4.138-1.445,4.468t-4.48.6L11.773,11.716a.569.569,0,0,1-.752-.288l-.006-.015-.959-2.327A10.238,10.238,0,0,0,6,7.922,9.188,9.188,0,0,0,2.5,8.946h0A1.139,1.139,0,0,1,.987,8.385Q.97,8.348.955,8.31Z" fill="#e4e4e4" fill-rule="evenodd"/>
        </g>
        <g id="Accessories_Shoe_Flat-Sneaker-2" data-name="Accessories/Shoe/Flat-Sneaker" transform="translate(120.118)">
          <path id="shoe-2" data-name="shoe" d="M.955,8.31A12.223,12.223,0,0,1,0,4.494,28.565,28.565,0,0,1,.513,0H32.622q1.252,4.138-1.445,4.468t-4.48.6L11.773,11.716a.569.569,0,0,1-.752-.288l-.006-.015-.959-2.327A10.238,10.238,0,0,0,6,7.922,9.188,9.188,0,0,0,2.5,8.946h0A1.139,1.139,0,0,1,.987,8.385Q.97,8.348.955,8.31Z" fill="#e4e4e4" fill-rule="evenodd"/>
        </g>
      </g>
      <g id="Body_Jacket" data-name="Body/Jacket" transform="translate(1.8 54.562)">
        <path id="Skin-2" data-name="Skin" d="M91.018,52.393l16.127-15.732a48.88,48.88,0,0,0,11.534-6.63c.674-.813,1.408-2.371-1.763-1.674s-6.538,1.288-7.134.256,1.16-2.611.059-3.961q-1.1-1.35-7.409,8.586L85.661,43.125ZM19.438,50.175l11.9-.047q-11.018-35.569-11.9-37.745C18.121,9.118,20.908,4.146,22.1,1.474c-3.883-1.737-3.469,4.7-8.367,2.418C9.264,1.813,5.863-1.956.7,1.231c-.635.392-1.331,1.867.35,3.02,4.189,2.872,10.225,7.9,11.04,9.553Q13.757,17.189,19.438,50.175Z" transform="translate(0 0)" fill="#b28b67" fill-rule="evenodd"/>
        <path id="Coat-Back" d="M0,73.057l4.83,1.27Q20.262,43.8,54.081,20.7L39.874,0C16.691,22.7,1.509,46.889,0,73.057Z" transform="translate(46.878 27.314) rotate(-5)" fill="#191847" fill-rule="evenodd"/>
        <path id="Shirt" d="M0,0H43.835Q28.6,37.039,28.6,62.928L15.379,64.9C4.987,48.185,2.052,27.608,0,0Z" transform="translate(31.787 38.231)" fill="#dde3e9" fill-rule="evenodd"/>
        <path id="Coat-Front" d="M35.024,83.675l.005.009h.863q1.549-.053,4.719-.192l3.2-9.131q.507-16.7,5.921-67.306H20.993q.113-3.5.373-7.056H0Q4.794,54.084,35.013,83.684Z" transform="translate(11.862 19.445)" fill="#2f3676" fill-rule="evenodd"/>
        <path id="Shade" d="M1.985,30.039Q3.212,8.252,8.128,0H.094A150.2,150.2,0,0,0,1.985,30.039Z" transform="translate(32.768 26.276)" fill="rgba(0,0,0,0.1)" fill-rule="evenodd"/>
        <path id="Light" d="M0,0,14.169,6.587V0Z" transform="translate(39.251 43.924)" fill="rgba(255,255,255,0.2)" fill-rule="evenodd"/>
      </g>
    </g>
  </g>
</svg>
