<svg xmlns="http://www.w3.org/2000/svg" width="41.44" height="36.393" viewBox="0 0 41.44 36.393">
  <path id="Union_34" data-name="Union 34" d="M34.241,36.394a18.4,18.4,0,0,1-2.843-.221V31.1a6.445,6.445,0,0,0,1.373.49,6.584,6.584,0,0,0,3.267-.071,6.519,6.519,0,0,0,3.931-3.114c-.106.493-.2.993-.3,1.476l0,.011a15.221,15.221,0,0,1-1.3,4.446,3.9,3.9,0,0,1-1.327,1.444,3.683,3.683,0,0,1-.957.419,5.046,5.046,0,0,1-1.2.178c-.216.007-.434.012-.649.012Zm14.6-1.074A2.224,2.224,0,0,1,48.26,33.8l-.009-.4.009-.4a2.2,2.2,0,0,1,.594-1.516,2.4,2.4,0,0,1,3.106,0,2.2,2.2,0,0,1,.595,1.516c.012.134.018.266.018.4s-.006.26-.018.4a2.225,2.225,0,0,1-.586,1.516,2.426,2.426,0,0,1-3.124,0Zm.626-3.33a1.611,1.611,0,0,0-.373,1.07l-.01.349.01.349a1.613,1.613,0,0,0,.373,1.07,1.363,1.363,0,0,0,1.871,0,1.618,1.618,0,0,0,.374-1.07c.006-.061.009-.178.009-.349s0-.288-.009-.349a1.616,1.616,0,0,0-.374-1.07,1.361,1.361,0,0,0-1.871,0ZM56.609,35.8q-1.428,0-1.428-1.608V31.729h-.728a.2.2,0,0,1-.148-.055.2.2,0,0,1-.055-.148v-.293a.213.213,0,0,1,.055-.152.193.193,0,0,1,.148-.059h.728V29.487a.217.217,0,0,1,.055-.151.19.19,0,0,1,.148-.06h.406a.2.2,0,0,1,.212.212v1.535h1.143a.2.2,0,0,1,.212.212v.293a.193.193,0,0,1-.06.148.219.219,0,0,1-.152.055H56v2.4a1.337,1.337,0,0,0,.152.707.57.57,0,0,0,.521.239h.563a.188.188,0,0,1,.147.06.213.213,0,0,1,.056.151v.3a.213.213,0,0,1-.056.151.188.188,0,0,1-.147.06Zm-12.469,0a.348.348,0,0,1-.341-.23l-1.715-4.262a.314.314,0,0,1-.009-.092.187.187,0,0,1,.055-.138.177.177,0,0,1,.13-.055h.424a.235.235,0,0,1,.221.147l1.419,3.666,1.419-3.666a.219.219,0,0,1,.078-.1.231.231,0,0,1,.143-.046h.424a.174.174,0,0,1,.129.055.187.187,0,0,1,.056.138l-.019.092-1.7,4.262a.348.348,0,0,1-.341.23Zm-20.99-3.157A18.277,18.277,0,0,1,19.488,28.9,18.124,18.124,0,0,1,18.77,8.556,18.233,18.233,0,0,1,33.617.013C33.832,0,34.051,0,34.266,0A18.261,18.261,0,0,1,50.88,10.672a18.077,18.077,0,0,1,1.137,3.314,18.319,18.319,0,0,1,.481,3.576,2.644,2.644,0,0,1-.093.817,2.312,2.312,0,0,1-.319.678,3.392,3.392,0,0,1-1.194,1.018,9.344,9.344,0,0,1-1.73.7c-.637.2-1.337.378-2.012.551h0c-2.151.549-4.375,1.116-5.4,2.516a8.12,8.12,0,0,0-.982,1.807c.007-.123.011-.25.011-.377a6.434,6.434,0,0,0-.511-2.526,6.516,6.516,0,0,0-10.586-2.077,6.466,6.466,0,0,0-1.4,2.048,6.423,6.423,0,0,0-.524,2.509v9.976A18.268,18.268,0,0,1,23.151,32.641ZM31.4,25.256a2.848,2.848,0,1,1,2.848,2.839A2.843,2.843,0,0,1,31.4,25.256Z" transform="translate(-15.999 -0.001)" fill="#fff"/>
</svg>
